<?xml version="1.0" encoding="UTF-8"?>
<svg version="1.1" xmlns="http://www.w3.org/2000/svg" width="132" height="96">
<path d="M0 0 C43.56 0 87.12 0 132 0 C132 31.68 132 63.36 132 96 C88.44 96 44.88 96 0 96 C0 64.32 0 32.64 0 0 Z " fill="#202221" transform="translate(0,0)"/>
<path d="M0 0 C0.15490223 5.73138244 -0.34755115 10.89349206 -1.5 16.5 C-1.64308594 17.22703125 -1.78617187 17.9540625 -1.93359375 18.703125 C-2.28233698 20.47009071 -2.64019723 22.23525309 -3 24 C-4.485 24.495 -4.485 24.495 -6 25 C-7.65 23.02 -9.3 21.04 -11 19 C-14.43708793 19.59444093 -16.24668574 20.79434184 -18.8125 23.125 C-19.51375 23.75921875 -20.215 24.3934375 -20.9375 25.046875 C-22.77380783 26.78580287 -24.55013346 28.56179596 -26.3125 30.375 C-30.86193955 34.99748101 -35.91018318 38.99312293 -41 43 C-41.58007812 43.48210938 -42.16015625 43.96421875 -42.7578125 44.4609375 C-45.8137332 46.81549935 -48.90324433 47.88339273 -52.78515625 47.734375 C-56.9017759 46.3694288 -59.64334833 43.1242333 -62.60546875 40.06640625 C-65.30128735 37.73999835 -66.44244371 36.94713884 -70 37 C-72.48367175 38.24793826 -74.59579904 39.50805006 -76.875 41.0625 C-78.28773604 41.98640646 -79.70188863 42.90814925 -81.1171875 43.828125 C-82.27492676 44.58706055 -82.27492676 44.58706055 -83.45605469 45.36132812 C-88.2425816 48.44454968 -93.12789147 51.36716338 -98 54.3125 C-99.91706887 55.47459717 -101.83375106 56.63733255 -103.75 57.80078125 C-104.64203125 58.34081787 -105.5340625 58.88085449 -106.453125 59.43725586 C-109.45080066 61.27660804 -112.40521728 63.17853668 -115.34375 65.11083984 C-117.61542061 66.33038942 -119.47930355 66.39385882 -122 66 C-122 64.68 -122 63.36 -122 62 C-120.48046875 60.53515625 -120.48046875 60.53515625 -118.1875 59.0625 C-116.81271484 58.15564453 -116.81271484 58.15564453 -115.41015625 57.23046875 C-114.60989014 56.71105713 -114.60989014 56.71105713 -113.79345703 56.18115234 C-111.00132144 54.34228058 -108.26235011 52.42759854 -105.51416016 50.52392578 C-102.22794966 48.2558831 -98.92228983 46.0170323 -95.61572266 43.77880859 C-93.84226171 42.57277569 -92.07384075 41.35930425 -90.31005859 40.13916016 C-87.65577789 38.30430896 -84.98609019 36.49406094 -82.3125 34.6875 C-81.09361084 33.83357666 -81.09361084 33.83357666 -79.85009766 32.96240234 C-74.62449428 29.47614597 -71.30038102 28.04139009 -65 29 C-62.3203125 30.4609375 -62.3203125 30.4609375 -60.125 32.375 C-59.38507813 33.00148437 -58.64515625 33.62796875 -57.8828125 34.2734375 C-56.56064104 35.48588519 -55.26849651 36.73150349 -54 38 C-51.34723169 38.57114762 -49.7081656 38.45020023 -47.39550781 36.97998047 C-45.57617491 35.52587264 -43.84711107 34.00550301 -42.125 32.4375 C-41.50657227 31.8919043 -40.88814453 31.34630859 -40.25097656 30.78417969 C-36.97755751 27.87313174 -33.81262337 24.88369691 -30.75 21.75 C-29.38875 20.38875 -29.38875 20.38875 -28 19 C-27.34 19 -26.68 19 -26 19 C-25.505 17.515 -25.505 17.515 -25 16 C-24.01 15.34 -23.02 14.68 -22 14 C-21.67 13.01 -21.34 12.02 -21 11 C-22.175625 10.5359375 -22.175625 10.5359375 -23.375 10.0625 C-26 9 -26 9 -28 8 C-28 7.34 -28 6.68 -28 6 C-24.27349238 4.98990734 -20.54340541 3.99371446 -16.8125 3 C-15.75740234 2.71382813 -14.70230469 2.42765625 -13.61523438 2.1328125 C-12.59365234 1.86210938 -11.57207031 1.59140625 -10.51953125 1.3125 C-9.58214111 1.06113281 -8.64475098 0.80976562 -7.67895508 0.55078125 C-5.03746727 0.0077031 -2.68782684 -0.1023122 0 0 Z " fill="#D7E22B" transform="translate(131,2)"/>
<path d="M0 0 C2 2 2 2 2.24723816 4.28382874 C2.24581314 5.23567551 2.24438812 6.18752228 2.24291992 7.16821289 C2.24599655 8.24595474 2.24907318 9.32369659 2.25224304 10.43409729 C2.24505753 11.60182175 2.23787201 12.7695462 2.23046875 13.97265625 C2.22978142 15.76273354 2.22978142 15.76273354 2.2290802 17.588974 C2.22605506 20.11507154 2.218161 22.64116717 2.20581055 25.16723633 C2.18756013 29.04970858 2.18530076 32.93194248 2.18554688 36.81445312 C2.1806317 39.26302291 2.17480338 41.71159107 2.16796875 44.16015625 C2.16685593 45.32990494 2.1657431 46.49965363 2.16459656 47.70484924 C2.15821671 48.77943893 2.15183685 49.85402863 2.14526367 50.96118164 C2.13954597 52.38775841 2.13954597 52.38775841 2.13371277 53.84315491 C2 56 2 56 1 57 C-1.51136104 57.09975032 -3.98903415 57.13882183 -6.5 57.125 C-7.20253906 57.12886719 -7.90507813 57.13273437 -8.62890625 57.13671875 C-13.87338622 57.12661378 -13.87338622 57.12661378 -15 56 C-15.09340434 54.37325222 -15.11745171 52.74245949 -15.11352539 51.11303711 C-15.11344986 50.07203354 -15.11337433 49.03102997 -15.11329651 47.95848083 C-15.10813522 46.8262056 -15.10297394 45.69393036 -15.09765625 44.52734375 C-15.0962413 43.37456436 -15.09482635 42.22178497 -15.09336853 41.03407288 C-15.08775005 37.33518936 -15.07519442 33.63636536 -15.0625 29.9375 C-15.05748738 27.43684983 -15.05292406 24.93619871 -15.04882812 22.43554688 C-15.03777462 16.29034412 -15.02101852 10.14517631 -15 4 C-9.34892925 0.67709961 -6.61373136 -0.67258285 0 0 Z " fill="#74CC36" transform="translate(122,32)"/>
<path d="M0 0 C2.55433751 2.55433751 2.23730793 4.20733883 2.25224304 7.68971252 C2.24505753 8.46370895 2.23787201 9.23770538 2.23046875 10.03515625 C2.22978142 11.22594032 2.22978142 11.22594032 2.2290802 12.44078064 C2.22605765 14.11947117 2.21817125 15.7981589 2.20581055 17.47680664 C2.18754885 20.05560158 2.18530087 22.63403777 2.18554688 25.21289062 C2.18063196 26.84114896 2.17480376 28.46940484 2.16796875 30.09765625 C2.16685593 30.87367691 2.1657431 31.64969757 2.16459656 32.44923401 C2.11605007 37.88394993 2.11605007 37.88394993 1 39 C-1.51136104 39.09975032 -3.98903415 39.13882183 -6.5 39.125 C-7.20253906 39.12886719 -7.90507813 39.13273437 -8.62890625 39.13671875 C-13.87338622 39.12661378 -13.87338622 39.12661378 -15 38 C-15.08847743 35.47905924 -15.11527301 32.98569107 -15.09765625 30.46484375 C-15.0962413 29.71159317 -15.09482635 28.95834259 -15.09336853 28.18226624 C-15.08775376 25.7673044 -15.07519883 23.35243399 -15.0625 20.9375 C-15.0574869 19.30403779 -15.05292366 17.67057414 -15.04882812 16.03710938 C-15.03777954 12.02470415 -15.02050506 8.01236759 -15 4 C-13.7515621 3.33328505 -12.4979129 2.6763232 -11.2421875 2.0234375 C-10.19587158 1.47308838 -10.19587158 1.47308838 -9.12841797 0.91162109 C-5.98978794 -0.43268317 -3.35170029 -0.40220403 0 0 Z " fill="#97D429" transform="translate(97,50)"/>
<path d="M0 0 C1.06347656 0.00386719 2.12695312 0.00773437 3.22265625 0.01171875 C5.9375 0.3125 5.9375 0.3125 7.9375 2.3125 C8.12487649 4.95366113 8.19319866 7.4880398 8.16796875 10.12890625 C8.16728142 11.28639626 8.16728142 11.28639626 8.1665802 12.4672699 C8.16355787 14.09888242 8.15567213 15.73049205 8.14331055 17.36206055 C8.12504787 19.86843 8.12280088 22.37443033 8.12304688 24.88085938 C8.11813198 26.46354488 8.11230379 28.04622787 8.10546875 29.62890625 C8.10435593 30.38305313 8.1032431 31.13720001 8.10209656 31.91419983 C8.05355119 37.19644881 8.05355119 37.19644881 6.9375 38.3125 C4.62675832 38.41182392 2.31287058 38.44219618 0 38.4375 C-1.90072266 38.44136719 -1.90072266 38.44136719 -3.83984375 38.4453125 C-7.0625 38.3125 -7.0625 38.3125 -9.0625 37.3125 C-9.13665168 32.52534377 -9.19110204 27.73852173 -9.22729492 22.95092773 C-9.24238243 21.32228777 -9.26285506 19.69368844 -9.28881836 18.06518555 C-9.32520449 15.72434465 -9.3422262 13.38404081 -9.35546875 11.04296875 C-9.37095261 10.31474411 -9.38643646 9.58651947 -9.40238953 8.83622742 C-9.40406252 3.81208962 -9.40406252 3.81208962 -7.72216797 1.35205078 C-5.17072343 -0.24607379 -2.9728384 -0.04695857 0 0 Z " fill="#C6E025" transform="translate(66.0625,50.6875)"/>
<path d="M0 0 C0.15490223 5.73138244 -0.34755115 10.89349206 -1.5 16.5 C-1.64308594 17.22703125 -1.78617188 17.9540625 -1.93359375 18.703125 C-2.28233698 20.47009071 -2.64019723 22.23525309 -3 24 C-3.99 24.33 -4.98 24.66 -6 25 C-8.475 22.03 -8.475 22.03 -11 19 C-14.59836113 19.58896942 -16.45835011 20.99898556 -19.125 23.4375 C-20.14980469 24.36369141 -20.14980469 24.36369141 -21.1953125 25.30859375 C-22.48461379 26.51696487 -23.75050839 27.75050839 -25 29 C-25.639375 29.144375 -26.27875 29.28875 -26.9375 29.4375 C-29.05709122 29.83187601 -29.05709122 29.83187601 -30.35546875 31.359375 C-32.21141954 33.21091736 -34.14832125 34.43317511 -36.375 35.8125 C-39.38140962 37.75353146 -41.61702243 39.50159391 -43.75 42.375 C-46 45 -46 45 -48.8125 45.375 C-49.8953125 45.189375 -49.8953125 45.189375 -51 45 C-47.35844252 40.64789472 -43.6433682 36.57110648 -39.515625 32.67578125 C-37.92417269 31.07070494 -37.92417269 31.07070494 -37.046875 29.05859375 C-35.73606075 26.48098512 -34.04851913 24.78345649 -32 22.75 C-31.29875 22.04359375 -30.5975 21.3371875 -29.875 20.609375 C-28 19 -28 19 -26 19 C-25.67 18.01 -25.34 17.02 -25 16 C-24.01 15.34 -23.02 14.68 -22 14 C-21.67 13.01 -21.34 12.02 -21 11 C-21.78375 10.690625 -22.5675 10.38125 -23.375 10.0625 C-26 9 -26 9 -28 8 C-28 7.34 -28 6.68 -28 6 C-24.27349238 4.98990734 -20.54340541 3.99371446 -16.8125 3 C-15.75740234 2.71382813 -14.70230469 2.42765625 -13.61523438 2.1328125 C-12.59365234 1.86210938 -11.57207031 1.59140625 -10.51953125 1.3125 C-9.58214111 1.06113281 -8.64475098 0.80976562 -7.67895508 0.55078125 C-5.03746727 0.0077031 -2.68782684 -0.1023122 0 0 Z " fill="#D5E632" transform="translate(131,2)"/>
<path d="M0 0 C1.43859375 0.00580078 1.43859375 0.00580078 2.90625 0.01171875 C5.5 0.3125 5.5 0.3125 8.5 2.3125 C8.85644531 4.72680664 8.85644531 4.72680664 8.828125 7.72265625 C8.82296875 8.79451172 8.8178125 9.86636719 8.8125 10.97070312 C8.791875 12.09412109 8.77125 13.21753906 8.75 14.375 C8.74484375 15.50228516 8.7396875 16.62957031 8.734375 17.79101562 C8.6537709 26.1587291 8.6537709 26.1587291 7.5 27.3125 C5.19006618 27.43807162 2.87581464 27.48825729 0.5625 27.5 C-0.70464844 27.51417969 -1.97179688 27.52835938 -3.27734375 27.54296875 C-6.5 27.3125 -6.5 27.3125 -8.5 25.3125 C-8.95295333 21.68605496 -8.82404802 18.02648262 -8.8125 14.375 C-8.82861328 13.35986328 -8.84472656 12.34472656 -8.86132812 11.29882812 C-8.86197266 10.32494141 -8.86261719 9.35105469 -8.86328125 8.34765625 C-8.86626221 7.4544165 -8.86924316 6.56117676 -8.87231445 5.64086914 C-8.03236931 0.38804498 -4.77683833 -0.08346626 0 0 Z " fill="#F7AF0F" transform="translate(40.5,61.6875)"/>
<path d="M0 0 C0.33 0 0.66 0 1 0 C1.0246501 5.10863896 1.04283607 10.21724359 1.05493164 15.32592773 C1.05997204 17.06519168 1.0668043 18.80445136 1.07543945 20.54370117 C1.08751792 23.03825937 1.09323108 25.53276173 1.09765625 28.02734375 C1.10281754 28.80963852 1.10797882 29.59193329 1.11329651 30.39793396 C1.11349226 32.26567114 1.06199694 34.13329204 1 36 C-0.75559942 37.75559942 -3.03582442 37.13221919 -5.37109375 37.13671875 C-6.07363281 37.13285156 -6.77617188 37.12898438 -7.5 37.125 C-8.20253906 37.12886719 -8.90507813 37.13273437 -9.62890625 37.13671875 C-14.87338622 37.12661378 -14.87338622 37.12661378 -16 36 C-16.78077904 30.16922808 -16.78077904 30.16922808 -14.91943359 27.38183594 C-13.4067667 25.78960902 -11.83707338 24.32479805 -10.1875 22.875 C-4.40875857 17.6067481 -0.76366272 13.89866142 -0.3125 5.6875 C-0.24675781 4.61886719 -0.18101563 3.55023438 -0.11328125 2.44921875 C-0.07589844 1.64097656 -0.03851563 0.83273438 0 0 Z " fill="#4FC429" transform="translate(98,52)"/>
<path d="M0 0 C0.97066406 -0.00515625 1.94132812 -0.0103125 2.94140625 -0.015625 C5.4375 0.25 5.4375 0.25 7.4375 2.25 C7.66796875 5.25390625 7.66796875 5.25390625 7.625 8.8125 C7.61855469 9.98941406 7.61210937 11.16632813 7.60546875 12.37890625 C7.4375 15.25 7.4375 15.25 6.4375 16.25 C4.10589945 16.34909302 1.77120058 16.37970504 -0.5625 16.375 C-1.84125 16.37757812 -3.12 16.38015625 -4.4375 16.3828125 C-7.5625 16.25 -7.5625 16.25 -8.5625 15.25 C-8.71404969 13.1079034 -8.78427745 10.95976538 -8.8125 8.8125 C-8.83828125 7.63816406 -8.8640625 6.46382813 -8.890625 5.25390625 C-8.78234375 4.26261719 -8.6740625 3.27132812 -8.5625 2.25 C-5.19898987 0.00765991 -3.93939944 -0.02098215 0 0 Z " fill="#FAA21C" transform="translate(16.5625,72.75)"/>
<path d="M0 0 C0.33 0 0.66 0 1 0 C1.02465098 4.96622349 1.04283649 9.93241166 1.05493164 14.89868164 C1.0599719 16.58944316 1.06680405 18.28020029 1.07543945 19.97094727 C1.08751857 22.39600707 1.09323123 24.82100944 1.09765625 27.24609375 C1.10281754 28.00651474 1.10797882 28.76693573 1.11329651 29.55039978 C1.11349238 31.3673257 1.06197277 33.18413127 1 35 C0 36 0 36 -3.08984375 36.1328125 C-4.35957031 36.13023438 -5.62929687 36.12765625 -6.9375 36.125 C-8.83822266 36.12886719 -8.83822266 36.12886719 -10.77734375 36.1328125 C-14 36 -14 36 -16 35 C-16 31.04 -16 27.08 -16 23 C-15.67 23 -15.34 23 -15 23 C-13.875 28.75 -13.875 28.75 -15 31 C-14.05125 30.505 -13.1025 30.01 -12.125 29.5 C-9 28 -9 28 -7 28 C-6.7525 27.4225 -6.505 26.845 -6.25 26.25 C-5 24 -5 24 -2.96875 22.5 C0.10074013 18.60223476 -0.32438699 14.57839199 -0.25 9.75 C-0.22035156 8.81414063 -0.19070312 7.87828125 -0.16015625 6.9140625 C-0.08960196 4.60928908 -0.03683748 2.30551832 0 0 Z " fill="#91D123" transform="translate(73,53)"/>
<path d="M0 0 C0.33 0 0.66 0 1 0 C1.84044055 6.72352443 1.84044055 6.72352443 -0.453125 10.20703125 C-2.23481881 12.22453748 -4.06419792 14.1305209 -6 16 C-6.5053125 16.556875 -7.010625 17.11375 -7.53125 17.6875 C-9.75689827 19.67637718 -12.10765666 19.67862852 -15 20 C-14.56866583 15.63530901 -11.65829178 13.3896835 -8.625 10.5625 C-5.149942 7.30010831 -2.35324541 4.18270394 0 0 Z " fill="#6DCE28" transform="translate(97,64)"/>
<path d="M0 0 C0.33 1.65 0.66 3.3 1 5 C-1 4 -1 4 -2 2 C-6.18268514 3.10718136 -9.12415612 5.12254249 -11.84375 8.41796875 C-14.26407433 13.82281464 -13.30602303 20.20859798 -13.04931641 26.01806641 C-12.95669162 29.7404823 -13.46541526 33.32472993 -14 37 C-14.33 37 -14.66 37 -15 37 C-15 26.11 -15 15.22 -15 4 C-7.125 -0.5 -7.125 -0.5 0 0 Z " fill="#C6E548" transform="translate(122,32)"/>
<path d="M0 0 C0.33 0 0.66 0 1 0 C1.02465098 4.96622349 1.04283649 9.93241166 1.05493164 14.89868164 C1.0599719 16.58944316 1.06680405 18.28020029 1.07543945 19.97094727 C1.08751857 22.39600707 1.09323123 24.82100944 1.09765625 27.24609375 C1.10281754 28.00651474 1.10797882 28.76693573 1.11329651 29.55039978 C1.11349238 31.3673257 1.06197277 33.18413127 1 35 C0 36 0 36 -3.16015625 36.09765625 C-4.44792969 36.08605469 -5.73570313 36.07445312 -7.0625 36.0625 C-8.35285156 36.05347656 -9.64320312 36.04445312 -10.97265625 36.03515625 C-11.97167969 36.02355469 -12.97070312 36.01195312 -14 36 C-14 35.67 -14 35.34 -14 35 C-13.154375 34.814375 -12.30875 34.62875 -11.4375 34.4375 C-6.79767966 32.49721149 -3.72956711 30.27941735 -1 26 C-0.01901714 21.51295891 -0.02002865 17.14191118 -0.0625 12.5625 C-0.04638672 11.35400391 -0.03027344 10.14550781 -0.01367188 8.90039062 C0.0215213 5.93243282 0.02515488 2.96795786 0 0 Z " fill="#70CB1E" transform="translate(73,53)"/>
<path d="M0 0 C0.33 0 0.66 0 1 0 C1.02526605 7.67211202 1.04283123 15.3442134 1.05493164 23.01635742 C1.05997377 25.62866619 1.06680725 28.24097211 1.07543945 30.85327148 C1.08751036 34.59880268 1.09322935 38.34429672 1.09765625 42.08984375 C1.10281754 43.26586655 1.10797882 44.44188934 1.11329651 45.65354919 C1.11340981 47.27511681 1.11340981 47.27511681 1.11352539 48.92944336 C1.115746 49.88652695 1.11796661 50.84361053 1.12025452 51.82969666 C1 54 1 54 0 55 C-2.53049402 55.07313567 -5.03304837 55.09247527 -7.5625 55.0625 C-8.62887695 55.05573242 -8.62887695 55.05573242 -9.71679688 55.04882812 C-11.47790013 55.03700864 -13.23896036 55.01907263 -15 55 C-15.33 54.34 -15.66 53.68 -16 53 C-11.05 53 -6.1 53 -1 53 C-0.979375 51.288125 -0.95875 49.57625 -0.9375 47.8125 C-0.92589844 46.84957031 -0.91429688 45.88664062 -0.90234375 44.89453125 C-0.90424448 42.05511726 -0.90424448 42.05511726 -1.56640625 39.57421875 C-2.13251232 36.2132827 -1.48642493 33.37283572 -1 30 C-0.86034659 27.58637065 -0.75619474 25.1704821 -0.68359375 22.75390625 C-0.6524221 21.76994118 -0.6524221 21.76994118 -0.62062073 20.76609802 C-0.55594062 18.69832454 -0.49662534 16.63043899 -0.4375 14.5625 C-0.39423693 13.14907758 -0.35062035 11.73566593 -0.30664062 10.32226562 C-0.20034484 6.88162529 -0.09885528 3.44086308 0 0 Z " fill="#349934" transform="translate(123,34)"/>
<path d="M0 0 C0.99 0.33 1.98 0.66 3 1 C-15.07172066 18.18495264 -15.07172066 18.18495264 -22.3125 18.625 C-26 18 -26 18 -30 14 C-25.71 14.66 -21.42 15.32 -17 16 C-16.34 14.68 -15.68 13.36 -15 12 C-11.50961291 8.40411003 -7.45747829 5.29241741 -3 3 C-2.34 3 -1.68 3 -1 3 C-0.67 2.01 -0.34 1.02 0 0 Z " fill="#AAD523" transform="translate(102,31)"/>
<path d="M0 0 C-1.83308926 4.30919937 -4.8109254 6.79908766 -8.22265625 9.90234375 C-10.24835745 12.29311638 -10.65225891 13.92382885 -11 17 C-11.33 17 -11.66 17 -12 17 C-12 12.38 -12 7.76 -12 3 C-5.25 -0.375 -5.25 -0.375 0 0 Z " fill="#C0E131" transform="translate(94,51)"/>
<path d="M0 0 C0.33 0 0.66 0 1 0 C1.0246501 5.10863896 1.04283607 10.21724359 1.05493164 15.32592773 C1.05997204 17.06519168 1.0668043 18.80445136 1.07543945 20.54370117 C1.08751792 23.03825937 1.09323108 25.53276173 1.09765625 28.02734375 C1.10281754 28.80963852 1.10797882 29.59193329 1.11329651 30.39793396 C1.11349226 32.26567114 1.06199694 34.13329204 1 36 C0 37 0 37 -3.37890625 37.09765625 C-4.77347077 37.09098369 -6.16801743 37.07902532 -7.5625 37.0625 C-8.62887695 37.05573242 -8.62887695 37.05573242 -9.71679688 37.04882812 C-11.47790013 37.03700864 -13.23896036 37.01907263 -15 37 C-15 36.67 -15 36.34 -15 36 C-13.453125 35.9071875 -13.453125 35.9071875 -11.875 35.8125 C-7.10242672 34.81179915 -5.54874894 33.21863276 -2 30 C-1.34 30 -0.68 30 0 30 C0 20.1 0 10.2 0 0 Z " fill="#359F26" transform="translate(98,52)"/>
<path d="M0 0 C0.33 0 0.66 0 1 0 C0.42978066 5.3503559 -0.20734361 10.67787852 -1 16 C-1.99 16.33 -2.98 16.66 -4 17 C-5.20442708 15.50260417 -6.40885417 14.00520833 -7.61328125 12.5078125 C-9.12270545 10.74707893 -9.12270545 10.74707893 -12 9 C-10.56328432 8.35242375 -9.12559584 7.70700547 -7.6875 7.0625 C-6.88699219 6.70285156 -6.08648437 6.34320312 -5.26171875 5.97265625 C-3 5 -3 5 0 4 C0 2.68 0 1.36 0 0 Z " fill="#A4DC2D" transform="translate(129,10)"/>
<path d="M0 0 C0.33 0 0.66 0 1 0 C1.06058594 0.71027344 1.12117187 1.42054687 1.18359375 2.15234375 C1.26738281 3.07144531 1.35117188 3.99054688 1.4375 4.9375 C1.51871094 5.85402344 1.59992187 6.77054687 1.68359375 7.71484375 C1.76044976 9.96159732 1.76044976 9.96159732 3 11 C4.62853535 10.93579251 6.25449212 10.7987936 7.875 10.625 C8.75929688 10.53476563 9.64359375 10.44453125 10.5546875 10.3515625 C13.13106904 10.05520218 13.13106904 10.05520218 16 9 C15.67 10.65 15.34 12.3 15 14 C12.68756208 14.02685412 10.3750373 14.04632841 8.0625 14.0625 C6.77472656 14.07410156 5.48695312 14.08570312 4.16015625 14.09765625 C1 14 1 14 0 13 C-0.07258946 10.81360547 -0.08373783 8.62499611 -0.0625 6.4375 C-0.05347656 5.23996094 -0.04445313 4.04242188 -0.03515625 2.80859375 C-0.02355469 1.88175781 -0.01195312 0.95492187 0 0 Z " fill="#DF5F0E" transform="translate(8,75)"/>
<path d="M0 0 C0.66 0.33 1.32 0.66 2 1 C1.44570312 1.54269531 0.89140625 2.08539063 0.3203125 2.64453125 C-0.76636719 3.71767578 -0.76636719 3.71767578 -1.875 4.8125 C-2.59429687 5.52019531 -3.31359375 6.22789063 -4.0546875 6.95703125 C-6.15358937 9.04399194 -6.15358937 9.04399194 -8 12 C-10.4375 13.75 -10.4375 13.75 -13 15 C-13.99 14.67 -14.98 14.34 -16 14 C-14.03397828 9.83665988 -11.90904579 8.15331314 -7.8515625 6.046875 C-4.9132801 4.38556765 -2.53138666 2.22268097 0 0 Z " fill="#C2D826" transform="translate(92,32)"/>
<path d="M0 0 C0.33 0 0.66 0 1 0 C1.02886984 3.97915159 1.04675406 7.95827653 1.0625 11.9375 C1.07087891 13.07380859 1.07925781 14.21011719 1.08789062 15.38085938 C1.09111328 16.46044922 1.09433594 17.54003906 1.09765625 18.65234375 C1.10289307 19.65257568 1.10812988 20.65280762 1.11352539 21.68334961 C1 24 1 24 0 25 C-2.35313555 25.07271741 -4.70833668 25.08370868 -7.0625 25.0625 C-8.35285156 25.05347656 -9.64320312 25.04445313 -10.97265625 25.03515625 C-11.97167969 25.02355469 -12.97070312 25.01195313 -14 25 C-14 24.67 -14 24.34 -14 24 C-13.31292969 23.97421875 -12.62585937 23.9484375 -11.91796875 23.921875 C-11.01691406 23.86515625 -10.11585937 23.8084375 -9.1875 23.75 C-8.29417969 23.70359375 -7.40085937 23.6571875 -6.48046875 23.609375 C-3.96080749 23.17633617 -3.96080749 23.17633617 -2.21875 21.5625 C-0.32379966 17.57824544 -0.42523209 13.61112159 -0.3125 9.25 C-0.27833984 8.36183594 -0.24417969 7.47367187 -0.20898438 6.55859375 C-0.12671286 4.37252197 -0.05749828 2.18684049 0 0 Z " fill="#D9750A" transform="translate(48,64)"/>
<path d="M0 0 C-2 2 -2 2 -4.54296875 3.11328125 C-7.39368517 4.89472957 -7.39368517 4.89472957 -7.92578125 8.79296875 C-8.07799808 10.25557398 -8.20618343 11.72084366 -8.3125 13.1875 C-8.38533203 13.93708984 -8.45816406 14.68667969 -8.53320312 15.45898438 C-8.70949091 17.30412987 -8.85751413 19.15193695 -9 21 C-9.33 21 -9.66 21 -10 21 C-10.08086376 18.06195004 -10.1404283 15.12611925 -10.1875 12.1875 C-10.21263672 11.35412109 -10.23777344 10.52074219 -10.26367188 9.66210938 C-10.27333984 8.85966797 -10.28300781 8.05722656 -10.29296875 7.23046875 C-10.3086792 6.49207764 -10.32438965 5.75368652 -10.34057617 4.99291992 C-9.35305646 -0.78566319 -4.93047381 -0.27908342 0 0 Z " fill="#E7E75F" transform="translate(67,51)"/>
<path d="M0 0 C0.66 0 1.32 0 2 0 C2.1875 2.375 2.1875 2.375 2 5 C-0.90092502 6.93395001 -1.89674737 7.30131941 -5.1875 7.625 C-6.445625 7.74875 -7.70375 7.8725 -9 8 C-8.67 7.01 -8.34 6.02 -8 5 C-7.34 5 -6.68 5 -6 5 C-6 4.34 -6 3.68 -6 3 C-5.195625 2.690625 -4.39125 2.38125 -3.5625 2.0625 C-1.10919595 1.23664655 -1.10919595 1.23664655 0 0 Z " fill="#FA7C0F" transform="translate(22,79)"/>
<path d="M0 0 C0.33 0 0.66 0 1 0 C1 11.55 1 23.1 1 35 C-1.475 35.495 -1.475 35.495 -4 36 C-3.34 35.01 -2.68 34.02 -2 33 C-1.34 33 -0.68 33 0 33 C0 22.11 0 11.22 0 0 Z " fill="#79A51C" transform="translate(73,53)"/>
<path d="M0 0 C0 0.66 0 1.32 0 2 C-1.83072917 2.45768229 -3.66145833 2.91536458 -5.4921875 3.37304688 C-6.23726562 3.55931641 -6.98234375 3.74558594 -7.75 3.9375 C-9.85904948 4.46476237 -11.96809896 4.99202474 -14.07714844 5.51928711 C-15.43729217 5.85932304 -16.78432771 6.2539392 -18.11816406 6.68579102 C-19.04967285 6.84132446 -19.04967285 6.84132446 -20 7 C-20.66 6.34 -21.32 5.68 -22 5 C-19.75023648 4.35334337 -17.50018033 3.70770477 -15.25 3.0625 C-13.99703125 2.70285156 -12.7440625 2.34320313 -11.453125 1.97265625 C-10.31359375 1.65167969 -9.1740625 1.33070312 -8 1 C-7.27296875 0.79246094 -6.5459375 0.58492188 -5.796875 0.37109375 C-4 0 -4 0 0 0 Z " fill="#DFDF61" transform="translate(126,3)"/>
<path d="M0 0 C0.33 0 0.66 0 1 0 C1.3125 2.8125 1.3125 2.8125 1 6 C-1.4375 7.8125 -1.4375 7.8125 -4 9 C-4.33 9.33 -4.66 9.66 -5 10 C-7.33297433 10.04092937 -9.66705225 10.04241723 -12 10 C-8.71562312 6.71562312 -4.35288527 5.45096176 0 4 C0 2.68 0 1.36 0 0 Z " fill="#ADDB2D" transform="translate(129,10)"/>
<path d="M0 0 C-1.97566188 1.97566188 -3.52337094 2.89579072 -6 4.125 C-6.70125 4.47820313 -7.4025 4.83140625 -8.125 5.1953125 C-10 6 -10 6 -12 6 C-12 5.01 -12 4.02 -12 3 C-7.77050005 0.58314288 -4.87664009 -0.34833144 0 0 Z " fill="#D8DB7B" transform="translate(94,51)"/>
<path d="M0 0 C4.29 0.66 8.58 1.32 13 2 C12.67 2.66 12.34 3.32 12 4 C6.140625 4.390625 6.140625 4.390625 4 4 C2.68 2.68 1.36 1.36 0 0 Z " fill="#8DCA1D" transform="translate(72,45)"/>
<path d="M0 0 C0 3 0 3 -1.75 5.04296875 C-2.4925 5.75066406 -3.235 6.45835938 -4 7.1875 C-4.7425 7.90292969 -5.485 8.61835937 -6.25 9.35546875 C-7.11625 10.16951172 -7.11625 10.16951172 -8 11 C-8.66 10.67 -9.32 10.34 -10 10 C-3.84965831 2.51708428 -3.84965831 2.51708428 0 0 Z " fill="#7FCE20" transform="translate(72,77)"/>
<path d="M0 0 C1.51400391 0.01740234 1.51400391 0.01740234 3.05859375 0.03515625 C4.07050781 0.04417969 5.08242188 0.05320313 6.125 0.0625 C7.29869141 0.07990234 7.29869141 0.07990234 8.49609375 0.09765625 C4.93185742 1.9739833 1.37762312 3.01945365 -2.50390625 4.09765625 C-3.49390625 4.59265625 -3.49390625 4.59265625 -4.50390625 5.09765625 C-3.38261259 0.13192717 -3.38261259 0.13192717 0 0 Z " fill="#E8D251" transform="translate(37.50390625,61.90234375)"/>
<path d="M0 0 C0.33 1.65 0.66 3.3 1 5 C-1 4 -1 4 -2 2 C-2.763125 2.20625 -3.52625 2.4125 -4.3125 2.625 C-7 3 -7 3 -10 1 C-6.78548731 -0.60725635 -3.56387464 -0.05748185 0 0 Z " fill="#BED449" transform="translate(122,32)"/>
<path d="M0 0 C0.33 0.99 0.66 1.98 1 3 C-2.14591933 5.80045623 -4.067064 6.35261589 -8.25 6.1875 C-9.14203125 6.16042969 -10.0340625 6.13335937 -10.953125 6.10546875 C-11.96632812 6.05326172 -11.96632812 6.05326172 -13 6 C-13 5.67 -13 5.34 -13 5 C-11.1746875 4.87625 -11.1746875 4.87625 -9.3125 4.75 C-5.21534129 4.26241628 -2.99860092 2.90489464 0 0 Z " fill="#61C01B" transform="translate(72,83)"/>
<path d="M0 0 C0.33 0 0.66 0 1 0 C1 2.31 1 4.62 1 7 C0.01 7.33 -0.98 7.66 -2 8 C-2.99 6.35 -3.98 4.7 -5 3 C-3.35 3 -1.7 3 0 3 C0 2.01 0 1.02 0 0 Z " fill="#79CA2C" transform="translate(127,19)"/>
<path d="M0 0 C0.66 0 1.32 0 2 0 C2 1.32 2 2.64 2 4 C-0.76264289 4.59732819 -3.16032769 5 -6 5 C-6 4.34 -6 3.68 -6 3 C-5.195625 2.690625 -4.39125 2.38125 -3.5625 2.0625 C-1.10919595 1.23664655 -1.10919595 1.23664655 0 0 Z " fill="#FC8911" transform="translate(22,79)"/>
<path d="M0 0 C0 3 0 3 -1.53125 4.60546875 C-2.1809375 5.12753906 -2.830625 5.64960938 -3.5 6.1875 C-4.1496875 6.71730469 -4.799375 7.24710938 -5.46875 7.79296875 C-5.9740625 8.19128906 -6.479375 8.58960938 -7 9 C-7.66 8.67 -8.32 8.34 -9 8 C-8.360625 7.731875 -7.72125 7.46375 -7.0625 7.1875 C-4.66868314 6.11332248 -4.66868314 6.11332248 -4 3 C-1.9375 1.3125 -1.9375 1.3125 0 0 Z " fill="#DBDB71" transform="translate(110,15)"/>
<path d="M0 0 C0.33 0 0.66 0 1 0 C1 2.97 1 5.94 1 9 C-0.65 9.33 -2.3 9.66 -4 10 C-3.34 9.01 -2.68 8.02 -2 7 C-1.34 7 -0.68 7 0 7 C0 4.69 0 2.38 0 0 Z " fill="#45A518" transform="translate(73,79)"/>
<path d="M0 0 C-4.75 3 -4.75 3 -7 3 C-7.33 3.66 -7.66 4.32 -8 5 C-8 3.68 -8 2.36 -8 1 C-4.93251126 -0.86240388 -3.40254489 -1.2151946 0 0 Z " fill="#E3E682" transform="translate(115,35)"/>
</svg>
