<?xml version="1.0" encoding="UTF-8"?>
<svg version="1.1" xmlns="http://www.w3.org/2000/svg" width="177" height="99">
<path d="M0 0 C0.8690094 -0.0071553 1.7380188 -0.01431061 2.63336182 -0.02168274 C3.57888916 -0.02437164 4.5244165 -0.02706055 5.49859619 -0.02983093 C7.00175385 -0.03968773 7.00175385 -0.03968773 8.53527832 -0.04974365 C11.85150225 -0.06945366 15.16768094 -0.08113395 18.48394775 -0.09111023 C20.18454723 -0.09722352 20.18454723 -0.09722352 21.91950226 -0.10346031 C27.91982338 -0.12431086 33.92012169 -0.13861722 39.92047119 -0.147995 C46.11215019 -0.15905954 52.30346984 -0.1934633 58.49502182 -0.23316669 C63.26148133 -0.25933195 68.02785518 -0.26768676 72.79438019 -0.27127647 C75.07648395 -0.27614232 77.35858388 -0.28775617 79.64061737 -0.30631447 C82.83835722 -0.33070403 86.03516648 -0.32974089 89.23297119 -0.32279968 C90.17040161 -0.33560974 91.10783203 -0.3484198 92.07366943 -0.36161804 C98.85875863 -0.30809649 104.51818023 1.08035038 109.4644165 5.96357727 C109.82664307 6.53978821 110.18886963 7.11599915 110.56207275 7.70967102 C111.13248291 8.57785461 111.13248291 8.57785461 111.7144165 9.46357727 C113.66566224 13.07296316 113.76516643 16.11862002 113.80157471 20.14399719 C113.82082756 21.99688606 113.82082756 21.99688606 113.84046936 23.88720703 C113.84863913 25.23818051 113.85608241 26.58915856 113.862854 27.94013977 C113.86692953 28.62245478 113.87100506 29.30476978 113.87520409 30.007761 C113.89605137 33.62201762 113.91035663 37.23623646 113.91973877 40.85054016 C113.93077702 44.56830401 113.9651498 48.285465 114.00491047 52.00301647 C114.03116788 54.87452236 114.0394388 57.74588686 114.04302025 60.61750221 C114.04786581 61.98693711 114.05942151 63.35636656 114.07805824 64.72568321 C114.17889696 72.62839284 114.0161596 78.44353248 109.62457275 85.14717102 C103.68538439 90.9340725 97.9790317 91.458473 90.065979 91.56123352 C89.12640854 91.58059967 88.18683807 91.59996582 87.21879578 91.61991882 C84.20831365 91.67950832 81.19778412 91.7257892 78.18707275 91.77217102 C76.22807222 91.81041439 74.26908735 91.84946967 72.31011963 91.88935852 C59.96769953 92.12778426 47.62849185 92.20100322 35.2840271 92.1552887 C32.65264065 92.14725669 30.02135018 92.14734051 27.38995361 92.14863586 C23.1915457 92.14679795 18.99465621 92.10925455 14.79669189 92.04951477 C13.11708942 92.0310304 11.43733051 92.02384309 9.75762939 92.02705383 C-7.09688114 92.04639534 -7.09688114 92.04639534 -13.67303467 87.2101593 C-20.00281086 79.53962885 -19.96604257 72.48280822 -19.90667725 62.86592102 C-19.90937749 61.48404162 -19.91326433 60.10216409 -19.91827393 58.72029114 C-19.92414412 55.83554347 -19.91568744 52.95129398 -19.89691162 50.06660461 C-19.87412246 46.38808784 -19.88725909 42.71073875 -19.91120148 39.03226471 C-19.92572751 36.18213772 -19.92102269 33.33228287 -19.91069031 30.48214722 C-19.90676368 28.47265353 -19.91880893 26.46314881 -19.93121338 24.45368958 C-19.8500371 16.5033415 -19.37314559 10.27639325 -13.59417725 4.30732727 C-12.743396 3.76398743 -12.743396 3.76398743 -11.87542725 3.20967102 C-11.30823975 2.82939758 -10.74105225 2.44912415 -10.15667725 2.05732727 C-6.84511093 0.36523308 -3.68248949 0.02090319 0 0 Z " fill="#2C2D2D" transform="translate(38.37542724609375,3.8528289794921875)"/>
<path d="M0 0 C5.72630734 3.50400395 9.66937195 7.74545545 11.7421875 14.19140625 C12.47652532 17.90389188 12.39925194 21.56118775 12.1640625 25.32421875 C-1.93801475 34.13801703 -21.55883883 32.16818872 -37.20703125 29.37109375 C-41.96548426 27.99836457 -45.3485472 25.81160905 -48.8359375 22.32421875 C-49.19739403 16.40838015 -47.54550124 10.94788702 -43.8359375 6.32421875 C-33.10364326 -4.91150933 -14.10564274 -6.3811241 0 0 Z " fill="#C2E45F" transform="translate(82.8359375,54.67578125)"/>
<path d="M0 0 C1.29421875 -0.03738281 2.5884375 -0.07476562 3.921875 -0.11328125 C11.72103928 -0.18476035 17.69263108 0.31569342 23.875 5.375 C29.15534359 10.97272595 32.20672057 17.03118369 33.375 24.625 C32.875 27.375 32.875 27.375 30.703125 29.4375 C21.50940251 35.73596182 8.60230785 35.00530509 -2.125 34.375 C-2.785 34.045 -3.445 33.715 -4.125 33.375 C-4.79838808 31.20780778 -5.3887383 29.01455227 -5.9375 26.8125 C-8.78025468 16.54526148 -12.82294803 10.96720008 -21.125 4.375 C-14.63613335 -0.77134252 -7.98714819 0.08596735 0 0 Z " fill="#DEE5E7" transform="translate(105.125,47.625)"/>
<path d="M0 0 C0.87768036 -0.00571014 1.75536072 -0.01142029 2.65963745 -0.01730347 C4.09206787 -0.01898026 4.09206787 -0.01898026 5.55343628 -0.02069092 C6.56517914 -0.02565582 7.576922 -0.03062073 8.61932373 -0.03573608 C11.96439289 -0.0503366 15.30941472 -0.05715427 18.6545105 -0.06268311 C20.97570802 -0.06843387 23.29690553 -0.07419161 25.61810303 -0.07995605 C30.48196637 -0.09045834 35.3458132 -0.09630687 40.20968628 -0.09979248 C46.45569745 -0.10529234 52.70149229 -0.12935544 58.94743538 -0.15776443 C63.7393865 -0.17633901 68.5312848 -0.18159352 73.32326889 -0.18312836 C75.62706568 -0.18616438 77.93086134 -0.19422458 80.23462296 -0.20731354 C83.44783569 -0.2242746 86.66051007 -0.2225188 89.87374878 -0.21600342 C90.83275085 -0.2252182 91.79175293 -0.23443298 92.77981567 -0.243927 C93.65185638 -0.23835785 94.52389709 -0.2327887 95.42236328 -0.22705078 C96.18225618 -0.22851734 96.94214909 -0.2299839 97.72506905 -0.2314949 C99.584198 0.14044189 99.584198 0.14044189 101.584198 3.14044189 C100.26954559 3.13155945 98.95489319 3.122677 97.60040283 3.11352539 C85.21132554 3.03244023 72.82230208 2.97247661 60.43301964 2.93319321 C54.06354081 2.91231826 47.6942762 2.88400159 41.32492065 2.83868408 C35.17817707 2.79522411 29.03163955 2.77130409 22.88475418 2.76093292 C20.53958518 2.75354191 18.19442745 2.73910909 15.84934616 2.71752167 C12.56458919 2.68848661 9.28068374 2.68448607 5.99581909 2.68634033 C4.54140915 2.66476868 4.54140915 2.66476868 3.05761719 2.64276123 C-3.74875176 2.6843387 -7.12863823 3.946974 -12.06033325 8.73809814 C-15.13380686 12.59278912 -16.52534662 15.30657358 -16.59280396 20.20611572 C-16.60563919 21.02159378 -16.61847443 21.83707184 -16.63169861 22.67726135 C-16.63908554 23.55843124 -16.64647247 24.43960114 -16.65408325 25.34747314 C-16.662155 26.2644548 -16.67022675 27.18143646 -16.67854309 28.12620544 C-16.69238365 30.07388421 -16.70310593 32.02158724 -16.71096802 33.96929932 C-16.72241002 35.93877389 -16.74273603 37.90821941 -16.77249146 39.87750244 C-16.93531431 50.65928655 -16.83970645 60.28078702 -13.27981567 70.56500244 C-12.415802 73.14044189 -12.415802 73.14044189 -12.415802 76.14044189 C-11.755802 76.14044189 -11.095802 76.14044189 -10.415802 76.14044189 C-10.415802 76.80044189 -10.415802 77.46044189 -10.415802 78.14044189 C-9.095802 78.80044189 -7.775802 79.46044189 -6.415802 80.14044189 C-6.415802 81.13044189 -6.415802 82.12044189 -6.415802 83.14044189 C-1.795802 83.80044189 2.824198 84.46044189 7.584198 85.14044189 C7.584198 85.80044189 7.584198 86.46044189 7.584198 87.14044189 C18.67637002 87.03277133 29.76847904 86.92010403 40.86053562 86.80110264 C46.01132193 86.74599836 51.16211403 86.69259876 56.31295776 86.64312744 C61.2861552 86.59529906 66.25928661 86.54295039 71.23240471 86.48750114 C73.12733243 86.46716104 75.0222782 86.44843461 76.91723824 86.43136787 C79.57655462 86.40713819 82.23574828 86.37711031 84.89498901 86.34576416 C86.06348389 86.33713097 86.06348389 86.33713097 87.25558472 86.32832336 C91.78913942 86.2678 96.10919188 85.87772043 100.584198 85.14044189 C101.079198 83.65544189 101.079198 83.65544189 101.584198 82.14044189 C102.574198 81.81044189 103.564198 81.48044189 104.584198 81.14044189 C106.02966314 78.81893727 107.32801456 76.55617928 108.584198 74.14044189 C108.976073 73.50106689 109.367948 72.86169189 109.771698 72.20294189 C111.05959334 68.93366909 111.23534083 65.62901357 111.584198 62.14044189 C111.914198 62.14044189 112.244198 62.14044189 112.584198 62.14044189 C112.69272723 65.01646644 112.7717495 67.88835021 112.834198 70.76544189 C112.86771362 71.57368408 112.90122925 72.38192627 112.9357605 73.21466064 C113.02513787 78.71136906 112.27684862 81.7980969 108.584198 86.14044189 C104.26817732 89.39947792 100.87037366 91.23002782 95.46188354 91.34576416 C94.2173365 91.37568199 94.2173365 91.37568199 92.94764709 91.40620422 C91.59791557 91.43127296 91.59791557 91.43127296 90.22091675 91.45684814 C89.27851639 91.47762924 88.33611603 91.49841034 87.36515808 91.51982117 C85.35691902 91.56313384 83.34862978 91.60416969 81.34030151 91.64312744 C78.34919719 91.70143125 75.35832491 91.7669386 72.36740112 91.83380127 C59.99086645 92.09916167 47.62080389 92.20093949 35.24163818 92.14956665 C32.61107991 92.1405342 29.98063845 92.14033684 27.35006714 92.1416626 C23.15149163 92.13999862 18.95444886 92.10252781 14.75631714 92.04278564 C13.07671466 92.02430127 11.39695576 92.01711396 9.71725464 92.02032471 C-7.1372559 92.03966621 -7.1372559 92.03966621 -13.71340942 87.20343018 C-20.04318561 79.53289973 -20.00641733 72.4760791 -19.947052 62.85919189 C-19.94975225 61.4773125 -19.95363908 60.09543497 -19.95864868 58.71356201 C-19.96451887 55.82881435 -19.95606219 52.94456485 -19.93728638 50.05987549 C-19.91449721 46.38135871 -19.92763384 42.70400963 -19.95157623 39.02553558 C-19.96610226 36.1754086 -19.96139744 33.32555374 -19.95106506 30.47541809 C-19.94713843 28.4659244 -19.95918368 26.45641969 -19.97158813 24.44696045 C-19.89041185 16.49661237 -19.41352034 10.26966413 -13.634552 4.30059814 C-12.78377075 3.7572583 -12.78377075 3.7572583 -11.915802 3.20294189 C-11.3486145 2.82266846 -10.781427 2.44239502 -10.197052 2.05059814 C-6.86973172 0.35045423 -3.69973311 0.01446855 0 0 Z " fill="#4A5023" transform="translate(38.415802001953125,3.85955810546875)"/>
<path d="M0 0 C4.18746983 1.62031078 7.03765894 3.91736631 10 7.25 C11.67178285 11.84740283 11.92522159 16.32888003 10.30859375 20.99609375 C7.56389554 26.33619697 3.59121164 29.13626279 -2 31 C-8.1592545 31.50485693 -11.05616952 31.04495221 -16 27 C-19.24817151 24.10298216 -20.76528683 22.20091691 -21.23828125 17.765625 C-21.42135504 11.56038711 -20.77166497 7.99490766 -17 3 C-11.60426077 -0.92669379 -6.45366231 -0.89448428 0 0 Z " fill="#E4E9EA" transform="translate(111,13)"/>
<path d="M0 0 C3.5 1.75 3.5 1.75 6 4 C6.78375 4.515625 7.5675 5.03125 8.375 5.5625 C11.12502708 9.68754063 10.58499916 14.20586056 10 19 C8.08608084 23.7344316 4.54631214 26.72684393 0 29 C-4.74886105 29.70353497 -9.14548726 30.02995411 -13.43359375 27.6484375 C-17.4245146 24.32389059 -20.22815551 21.29264792 -21 16 C-20.6760509 9.84496714 -18.95277036 6.33072591 -15.0625 1.6875 C-10.2095663 -0.98656551 -5.41259074 -0.73440851 0 0 Z " fill="#D6EA70" transform="translate(70,19)"/>
<path d="M0 0 C5.38056945 4.28971427 9.58672481 7.9972851 11 15 C11.06548492 16.58211573 11.08578381 18.16670081 11.0625 19.75 C11.05347656 20.54921875 11.04445312 21.3484375 11.03515625 22.171875 C11.02355469 22.77515625 11.01195312 23.3784375 11 24 C-0.86026617 31.41266635 -18.61155038 31.48302107 -32 29 C-28.25 22.125 -28.25 22.125 -26 21 C-26 21.66 -26 22.32 -26 23 C-23.99759451 22.68143549 -21.99788438 22.34578768 -20 22 C-19.06607422 21.85111328 -19.06607422 21.85111328 -18.11328125 21.69921875 C-15.2280862 20.74459784 -13.30251405 19.14771866 -10.9375 17.25 C-10.08027344 16.57453125 -9.22304687 15.8990625 -8.33984375 15.203125 C-5.96086237 12.96314921 -4.58059976 10.83746221 -3 8 C-2.443125 7.505 -1.88625 7.01 -1.3125 6.5 C0.27255217 4.99347548 0.27255217 4.99347548 0.1875 2.3125 C0.125625 1.549375 0.06375 0.78625 0 0 Z " fill="#69CF5C" transform="translate(84,56)"/>
<path d="M0 0 C1.01218094 -0.00525696 2.02436188 -0.01051392 3.06721497 -0.01593018 C6.39612477 -0.02908156 9.72455257 -0.02041243 13.0534668 -0.01025391 C15.37037752 -0.01227524 17.68728762 -0.01518718 20.00419617 -0.01895142 C24.85019004 -0.02336751 29.69601767 -0.01696361 34.54199219 -0.00292969 C40.76441489 0.01420944 46.98645074 0.00428643 53.20885944 -0.01364708 C57.98796022 -0.02446338 62.76696851 -0.0210493 67.54607201 -0.0132637 C69.8414839 -0.01125821 72.1369041 -0.01373315 74.43230629 -0.02070236 C77.63088034 -0.02828655 80.8288174 -0.01675722 84.02734375 0 C84.98163269 -0.00607269 85.93592163 -0.01214539 86.91912842 -0.0184021 C87.78683365 -0.00994263 88.65453888 -0.00148315 89.54853821 0.00723267 C90.68253288 0.00892928 90.68253288 0.00892928 91.83943653 0.01066017 C93.69018555 0.38818359 93.69018555 0.38818359 95.69018555 3.38818359 C94.37553314 3.37930115 93.06088074 3.3704187 91.70639038 3.36126709 C79.31731308 3.28018193 66.92828963 3.22021831 54.53900719 3.18093491 C48.16952836 3.16005996 41.80026375 3.13174329 35.4309082 3.08642578 C29.28416462 3.04296581 23.1376271 3.01904579 16.99074173 3.00867462 C14.64557273 3.00128361 12.300415 2.98685079 9.95533371 2.96526337 C6.67057673 2.9362283 3.38667129 2.93222776 0.10180664 2.93408203 C-1.3526033 2.91251038 -1.3526033 2.91251038 -2.83639526 2.89050293 C-9.64276421 2.9320804 -13.02265068 4.1947157 -17.9543457 8.98583984 C-21.45049959 13.37064823 -22.43179638 16.21473721 -22.47094727 21.74243164 C-22.48055481 22.83754562 -22.49016235 23.93265961 -22.50006104 25.06095886 C-22.50431091 26.24531021 -22.50856079 27.42966156 -22.51293945 28.64990234 C-22.51863953 29.86966263 -22.5243396 31.08942291 -22.5302124 32.34614563 C-22.53966697 34.93103161 -22.54619819 37.51592967 -22.55004883 40.10083008 C-22.55973301 44.04253404 -22.59074432 47.9837119 -22.62231445 51.92529297 C-22.62884672 54.43765967 -22.63409631 56.95003009 -22.63793945 59.46240234 C-22.65028625 60.63663254 -22.66263306 61.81086273 -22.675354 63.02067566 C-22.65391684 70.95577123 -22.28508375 77.27767479 -16.55981445 83.26318359 C-10.26598277 87.37838123 -4.10668317 87.68380662 3.17041016 87.6628418 C4.09492477 87.66795273 5.01943939 87.67306366 5.9719696 87.67832947 C9.01222297 87.6921703 12.05224827 87.69127294 15.0925293 87.68896484 C17.21570418 87.69285458 19.33887828 87.69718982 21.46205139 87.70195007 C25.90620449 87.70940028 30.35027812 87.70912952 34.79443359 87.70385742 C40.47817646 87.69806215 46.16159353 87.71500121 51.84528255 87.7382021 C56.22829578 87.7529614 60.61123092 87.75380817 64.9942646 87.75069237 C67.08934741 87.7512044 69.18443473 87.75641983 71.27949333 87.76650429 C74.21339748 87.7788949 77.1466717 87.77206131 80.08056641 87.76049805 C80.93847778 87.76814178 81.79638916 87.77578552 82.68029785 87.78366089 C89.54167212 87.72414389 95.16401627 86.5775303 100.50268555 81.95068359 C102.32651322 79.81419975 104.07394916 77.68494057 105.69018555 75.38818359 C105.33747453 79.38557511 103.8923661 81.81988427 101.43237305 84.95849609 C95.69829843 89.66403715 89.65495624 89.82671448 82.56738281 89.79223633 C81.5745932 89.79909958 80.58180359 89.80596283 79.55892944 89.81303406 C76.29133629 89.83127035 73.02422471 89.827469 69.7565918 89.82177734 C67.47647445 89.8263406 65.19635848 89.8316466 62.91624451 89.83766174 C58.14251103 89.8465866 53.36894491 89.84417666 48.59521484 89.83422852 C42.48764137 89.82273894 36.38064607 89.8429539 30.27314854 89.87214565 C25.56585541 89.89052006 20.85870053 89.89021268 16.15138054 89.88450813 C13.89999518 89.88435508 11.64860036 89.89038643 9.39724922 89.90279961 C6.24526148 89.917731 3.094338 89.907016 -0.05761719 89.88989258 C-1.44266701 89.90439453 -1.44266701 89.90439453 -2.85569763 89.91918945 C-9.44327883 89.8445148 -14.92856429 88.52251803 -19.87108517 83.94092464 C-24.02511177 79.25411287 -24.43275104 75.60498243 -24.45507812 69.53735352 C-24.46145798 68.35900436 -24.46783783 67.18065521 -24.47441101 65.96659851 C-24.47552383 64.69677628 -24.47663666 63.42695404 -24.4777832 62.11865234 C-24.4811116 60.80915115 -24.48444 59.49964996 -24.48786926 58.15046692 C-24.49385105 55.37903011 -24.4957102 52.60762444 -24.49511719 49.83618164 C-24.49501575 46.29901811 -24.50865284 42.76205615 -24.5258894 39.2249403 C-24.53973924 35.83534154 -24.5390997 32.445779 -24.5402832 29.05615234 C-24.54746872 27.7924028 -24.55465424 26.52865326 -24.5620575 25.22660828 C-24.52565824 11.17381579 -24.52565824 11.17381579 -20.12231445 5.63818359 C-13.64987167 0.46022937 -8.02173868 -0.05159417 0 0 Z " fill="#3B3A3E" transform="translate(44.309814453125,3.61181640625)"/>
<path d="M0 0 C1.01738356 3.3557377 1.10949215 6.38485371 1.08178711 9.88256836 C1.0752562 11.06737289 1.06872528 12.25217743 1.06199646 13.47288513 C1.05056107 14.74898148 1.03912567 16.02507782 1.02734375 17.33984375 C1.01793482 19.34780805 1.00853759 21.35577249 0.99983311 23.36373997 C0.97690857 28.31181071 0.94329644 33.25979768 0.90405273 38.20776367 C0.8824242 40.9858041 0.8661717 43.76378098 0.85560608 46.54188538 C0.84526198 49.1573605 0.82668623 51.77281869 0.79905701 54.38816833 C0.79567825 55.57612503 0.7922995 56.76408173 0.78881836 57.98803711 C0.78136093 59.03076279 0.7739035 60.07348846 0.76622009 61.14781189 C1.24740547 67.01842428 3.59805545 70.19832062 8 74 C11.16645474 75.79320824 11.16645474 75.79320824 14 77 C14 77.66 14 78.32 14 79 C48.32 79 82.64 79 118 79 C118 79.33 118 79.66 118 80 C111.99421615 80.14578275 105.98836065 80.28799168 99.98242188 80.42724609 C97.95017352 80.47482702 95.91794566 80.52329322 93.88574219 80.57275391 C80.47273767 80.89844133 67.07139149 81.07184294 53.65441895 81.01013184 C51.02510534 81.00009583 48.39593149 80.99962067 45.76660156 81.00097656 C41.56777702 80.99948653 37.3704997 80.96208946 33.17211914 80.90234375 C31.49251666 80.88385938 29.81275776 80.87667207 28.13305664 80.87988281 C11.2785461 80.89922432 11.2785461 80.89922432 4.70239258 76.06298828 C-1.66252877 68.34986834 -1.55684536 61.1727838 -1.42578125 51.54296875 C-1.4208493 50.14911874 -1.41755567 48.75526207 -1.41581726 47.36140442 C-1.40821542 44.45564247 -1.38776603 41.55037986 -1.35668945 38.64477539 C-1.31693215 34.92128451 -1.29904613 31.19811585 -1.28938007 27.47443676 C-1.27941422 23.913904 -1.25954831 20.35344934 -1.23828125 16.79296875 C-1.2348855 16.11549276 -1.23148975 15.43801678 -1.2279911 14.74001122 C-1.21641389 12.82557576 -1.19689361 10.91119329 -1.17700195 8.99682617 C-1.16715775 7.90842941 -1.15731354 6.82003265 -1.14717102 5.69865417 C-1 3 -1 3 0 0 Z " fill="#1B1B12" transform="translate(20,15)"/>
<path d="M0 0 C0.33 0 0.66 0 1 0 C1.03738281 0.9178125 1.07476563 1.835625 1.11328125 2.78125 C1.58057519 14.87756829 1.58057519 14.87756829 7.75 24.875 C14.04383168 28.99019764 20.20313129 29.29562302 27.48022461 29.2746582 C28.40473923 29.27976913 29.32925385 29.28488007 30.28178406 29.29014587 C33.32203743 29.3039867 36.36206272 29.30308935 39.40234375 29.30078125 C41.52551863 29.30467099 43.64869274 29.30900623 45.77186584 29.31376648 C50.21601894 29.32121669 54.66009257 29.32094593 59.10424805 29.31567383 C64.78799092 29.30987855 70.47140799 29.32681762 76.15509701 29.3500185 C80.53811024 29.36477781 84.92104538 29.36562458 89.30407906 29.36250877 C91.39916187 29.3630208 93.49424918 29.36823624 95.58930779 29.37832069 C98.52321194 29.3907113 101.45648615 29.38387772 104.39038086 29.37231445 C105.24829224 29.37995819 106.10620361 29.38760193 106.9901123 29.39547729 C113.85148657 29.3359603 119.47383072 28.18934671 124.8125 23.5625 C126.63632767 21.42601615 128.38376361 19.29675697 130 17 C129.64728898 20.99739152 128.20218055 23.43170068 125.7421875 26.5703125 C120.00811288 31.27585356 113.96477069 31.43853088 106.87719727 31.40405273 C105.88440765 31.41091599 104.89161804 31.41777924 103.8687439 31.42485046 C100.60115074 31.44308675 97.33403916 31.43928541 94.06640625 31.43359375 C91.78628891 31.43815701 89.50617294 31.44346301 87.22605896 31.44947815 C82.45232549 31.45840301 77.67875937 31.45599306 72.9050293 31.44604492 C66.79745583 31.43455535 60.69046053 31.45477031 54.58296299 31.48396206 C49.87566987 31.50233647 45.16851499 31.50202909 40.46119499 31.49632454 C38.20980964 31.49617148 35.95841482 31.50220283 33.70706367 31.51461601 C30.55507593 31.5295474 27.40415245 31.51883241 24.25219727 31.50170898 C23.32883072 31.51137695 22.40546417 31.52104492 21.45411682 31.53100586 C14.86653562 31.45633121 9.38125017 30.13433444 4.43872929 25.55274105 C0.83027188 21.48147183 -0.13780082 18.18970879 -0.09765625 12.890625 C-0.09443359 12.13652344 -0.09121094 11.38242188 -0.08789062 10.60546875 C-0.07951172 9.82816406 -0.07113281 9.05085938 -0.0625 8.25 C-0.05798828 7.45722656 -0.05347656 6.66445312 -0.04882812 5.84765625 C-0.03708565 3.89840492 -0.01915146 1.94919262 0 0 Z " fill="#B7BD52" transform="translate(20,62)"/>
<path d="M0 0 C2.66315194 2.66315194 2.94426493 4.65344068 3.09765625 8.359375 C3.08605469 9.14828125 3.07445312 9.9371875 3.0625 10.75 C3.05347656 11.54921875 3.04445312 12.3484375 3.03515625 13.171875 C3.02355469 13.77515625 3.01195312 14.3784375 3 15 C-7.80602144 21.7537634 -21.63278706 21.38118122 -34 21 C-34 20.67 -34 20.34 -34 20 C-32.90945312 19.99613281 -32.90945312 19.99613281 -31.796875 19.9921875 C-22.82574629 19.64714409 -14.59942459 17.45680678 -7.984375 11.046875 C-6.60828662 9.40358499 -5.29691539 7.70646762 -4 6 C-3.34 6 -2.68 6 -2 6 C-2 5.34 -2 4.68 -2 4 C-1.34 4 -0.68 4 0 4 C0 2.68 0 1.36 0 0 Z " fill="#39B95A" transform="translate(92,65)"/>
<path d="M0 0 C0.33 0 0.66 0 1 0 C1.56475645 11.94355301 1.56475645 11.94355301 -2 16 C-6.31948999 19.79272291 -8.72037141 21.15889038 -14.4375 21.25 C-15.88962891 21.28867187 -15.88962891 21.28867187 -17.37109375 21.328125 C-20 21 -20 21 -21.84765625 19.484375 C-22.22792969 18.99453125 -22.60820313 18.5046875 -23 18 C-21.989375 17.5875 -20.97875 17.175 -19.9375 16.75 C-13.22519899 13.83278266 -8.42802455 10.77972468 -3.48046875 5.390625 C-2 4 -2 4 0 4 C0 2.68 0 1.36 0 0 Z " fill="#A7DF5F" transform="translate(79,27)"/>
<path d="M0 0 C2.475 1.98 2.475 1.98 5 4 C1.9469626 10.86933415 -3.38479435 15.25536887 -9 20 C-9.81210938 20.71929687 -9.81210938 20.71929687 -10.640625 21.453125 C-13.87297726 24.27718013 -17.11768904 26.19427397 -21 28 C-21.33 28.33 -21.66 28.66 -22 29 C-23.68608966 29.07205511 -25.37500659 29.08386068 -27.0625 29.0625 C-27.98160156 29.05347656 -28.90070312 29.04445313 -29.84765625 29.03515625 C-30.55792969 29.02355469 -31.26820312 29.01195313 -32 29 C-28.25 22.125 -28.25 22.125 -26 21 C-26 21.66 -26 22.32 -26 23 C-23.99759451 22.68143549 -21.99788438 22.34578768 -20 22 C-19.06607422 21.85111328 -19.06607422 21.85111328 -18.11328125 21.69921875 C-15.2280862 20.74459784 -13.30251405 19.14771866 -10.9375 17.25 C-10.08027344 16.57453125 -9.22304687 15.8990625 -8.33984375 15.203125 C-5.96086237 12.96314921 -4.58059976 10.83746221 -3 8 C-2.443125 7.505 -1.88625 7.01 -1.3125 6.5 C0.27255217 4.99347548 0.27255217 4.99347548 0.1875 2.3125 C0.125625 1.549375 0.06375 0.78625 0 0 Z " fill="#80D55B" transform="translate(84,56)"/>
<path d="M0 0 C0.33 0 0.66 0 1 0 C0.6298852 6.16857998 -0.75775103 8.75775103 -5 13 C-7.94320789 14.80111141 -10.11307291 15.24856086 -13.54315186 15.24050903 C-14.448965 15.24325836 -15.35477814 15.24600769 -16.28804016 15.24884033 C-17.27418808 15.24164978 -18.260336 15.23445923 -19.27636719 15.22705078 C-20.84269142 15.22748886 -20.84269142 15.22748886 -22.44065857 15.22793579 C-25.89281518 15.22654224 -29.34475608 15.21097962 -32.796875 15.1953125 C-35.19012331 15.19158247 -37.58337315 15.18873545 -39.97662354 15.18673706 C-46.27638971 15.17909988 -52.57606371 15.15945055 -58.87579346 15.1373291 C-65.3039017 15.11687258 -71.73202484 15.10773575 -78.16015625 15.09765625 C-90.77347683 15.07620483 -103.38673351 15.04245207 -116 15 C-116 14.67 -116 14.34 -116 14 C-114.72737305 13.99635437 -113.45474609 13.99270874 -112.14355469 13.98895264 C-100.13751963 13.95197662 -88.13174044 13.89417503 -76.12590027 13.81609726 C-69.95387728 13.77662489 -63.78199692 13.74443501 -57.60986328 13.72900391 C-51.6509748 13.71383608 -45.69247843 13.6793874 -39.73376465 13.63169098 C-37.46288465 13.61687865 -35.19194866 13.60895907 -32.92102051 13.60811615 C-29.73468448 13.6057444 -26.54943024 13.57864634 -23.36328125 13.54589844 C-22.42891739 13.5509288 -21.49455353 13.55595917 -20.53187561 13.56114197 C-14.60864067 13.46724535 -9.89799678 12.48376586 -5 9 C-2.60421048 5.98990547 -1.21121254 3.63363762 0 0 Z " fill="#42451F" transform="translate(150,79)"/>
<path d="M0 0 C1.01738356 3.3557377 1.10949215 6.38485371 1.08178711 9.88256836 C1.0752562 11.06737289 1.06872528 12.25217743 1.06199646 13.47288513 C1.05056107 14.74898148 1.03912567 16.02507782 1.02734375 17.33984375 C1.01793482 19.34780805 1.00853759 21.35577249 0.99983311 23.36373997 C0.97690857 28.31181071 0.94329644 33.25979768 0.90405273 38.20776367 C0.8824242 40.9858041 0.8661717 43.76378098 0.85560608 46.54188538 C0.84526198 49.1573605 0.82668623 51.77281869 0.79905701 54.38816833 C0.79567825 55.57612503 0.7922995 56.76408173 0.78881836 57.98803711 C0.78136093 59.03076279 0.7739035 60.07348846 0.76622009 61.14781189 C1.24740547 67.01842428 3.59805545 70.19832062 8 74 C11.16645474 75.79320824 11.16645474 75.79320824 14 77 C14 77.33 14 77.66 14 78 C10.470224 78.32835126 8.48765353 78.27865916 5.375 76.5 C-1.7626958 68.986636 -1.55989359 61.39674924 -1.42578125 51.54296875 C-1.4208493 50.14911874 -1.41755567 48.75526207 -1.41581726 47.36140442 C-1.40821542 44.45564247 -1.38776603 41.55037986 -1.35668945 38.64477539 C-1.31693215 34.92128451 -1.29904613 31.19811585 -1.28938007 27.47443676 C-1.27941422 23.913904 -1.25954831 20.35344934 -1.23828125 16.79296875 C-1.2348855 16.11549276 -1.23148975 15.43801678 -1.2279911 14.74001122 C-1.21641389 12.82557576 -1.19689361 10.91119329 -1.17700195 8.99682617 C-1.16715775 7.90842941 -1.15731354 6.82003265 -1.14717102 5.69865417 C-1 3 -1 3 0 0 Z " fill="#262721" transform="translate(20,15)"/>
<path d="M0 0 C0 0.66 0 1.32 0 2 C-1.44069147 2.93812468 -2.8831045 3.87375925 -4.3359375 4.79296875 C-7.96608053 7.42610066 -10.57746437 10.73239311 -12 15 C-12.11294746 16.39579273 -12.17589187 17.79599909 -12.20532227 19.19604492 C-12.22526749 20.03668991 -12.24521271 20.8773349 -12.26576233 21.74345398 C-12.28247482 22.64666885 -12.29918732 23.54988373 -12.31640625 24.48046875 C-12.33718735 25.40845779 -12.35796844 26.33644684 -12.37937927 27.29255676 C-12.44477323 30.2574624 -12.50371262 33.22245672 -12.5625 36.1875 C-12.60569487 38.1972748 -12.64930947 40.20704063 -12.69335938 42.21679688 C-12.80044427 47.14444032 -12.90174045 52.07217299 -13 57 C-13.33 57 -13.66 57 -14 57 C-14.04960464 51.00432528 -14.08581647 45.00877125 -14.10986328 39.01293945 C-14.11989285 36.97515785 -14.13351978 34.93739054 -14.15087891 32.8996582 C-14.17526127 29.9630174 -14.18651377 27.02656765 -14.1953125 24.08984375 C-14.20563507 23.18540024 -14.21595764 22.28095673 -14.22659302 21.34910583 C-14.22774234 14.80321569 -14.01826974 9.32877277 -9.5625 4.1875 C-4.65714286 0 -4.65714286 0 0 0 Z " fill="#4F4F50" transform="translate(34,5)"/>
<path d="M0 0 C1.78409802 3.06246747 2.22880021 5.22079273 2.125 8.75 C2.10695313 9.54921875 2.08890625 10.3484375 2.0703125 11.171875 C2.03550781 12.07679687 2.03550781 12.07679687 2 13 C-2.77357872 15.71391278 -6.34388537 17.56561146 -12 17 C-11.62488281 16.56429687 -11.24976562 16.12859375 -10.86328125 15.6796875 C-9.79435829 14.43575196 -8.72810798 13.18951647 -7.6640625 11.94140625 C-6.62744406 10.73201808 -5.58202255 9.53005181 -4.5234375 8.33984375 C-2.1889476 5.67088015 -0.41480557 3.5949816 0 0 Z " fill="#12B359" transform="translate(93,67)"/>
<path d="M0 0 C0.33 0 0.66 0 1 0 C1.56475645 11.94355301 1.56475645 11.94355301 -2 16 C-6.45721623 19.91365327 -8.73520469 21.13098599 -14.625 21.0625 C-15.62789062 21.05347656 -16.63078125 21.04445313 -17.6640625 21.03515625 C-18.43492188 21.02355469 -19.20578125 21.01195313 -20 21 C-20 20.67 -20 20.34 -20 20 C-18.906875 19.896875 -17.81375 19.79375 -16.6875 19.6875 C-12.951119 18.99088659 -12.33322353 18.68320706 -10 16 C-9.01 16 -8.02 16 -7 16 C-6.67 15.01 -6.34 14.02 -6 13 C-5.175 12.278125 -4.35 11.55625 -3.5 10.8125 C-0.1861805 7.08445306 -0.24886714 4.89438716 0 0 Z " fill="#89CD59" transform="translate(79,27)"/>
<path d="M0 0 C0.33 0 0.66 0 1 0 C1.03738281 0.9178125 1.07476563 1.835625 1.11328125 2.78125 C1.58057519 14.87756829 1.58057519 14.87756829 7.75 24.875 C13.74176892 28.79269507 20.03021938 29.39942933 27 30 C27 30.33 27 30.66 27 31 C12.2411168 31.80993871 12.2411168 31.80993871 6 27 C2.23109025 23.46723748 0.17892319 20.17521331 -0.11352539 14.98535156 C-0.10828857 14.2940918 -0.10305176 13.60283203 -0.09765625 12.890625 C-0.09443359 12.13652344 -0.09121094 11.38242188 -0.08789062 10.60546875 C-0.07951172 9.82816406 -0.07113281 9.05085938 -0.0625 8.25 C-0.05798828 7.45722656 -0.05347656 6.66445312 -0.04882812 5.84765625 C-0.03708565 3.89840492 -0.01915146 1.94919262 0 0 Z " fill="#C4C763" transform="translate(20,62)"/>
<path d="M0 0 C0.33 0 0.66 0 1 0 C1 4.29 1 8.58 1 13 C0.34 13 -0.32 13 -1 13 C-1.226875 13.721875 -1.45375 14.44375 -1.6875 15.1875 C-3.92469918 19.98149825 -7.02484723 22.81040205 -11.875 24.8125 C-15.71288748 26.1112528 -18.97429967 26.25160627 -23 26 C-23 25.67 -23 25.34 -23 25 C-19.04 24.34 -15.08 23.68 -11 23 C-10.67 22.01 -10.34 21.02 -10 20 C-9.01 19.67 -8.02 19.34 -7 19 C-5.55453486 16.67849537 -4.25618344 14.41573738 -3 12 C-2.608125 11.360625 -2.21625 10.72125 -1.8125 10.0625 C-0.52460465 6.7932272 -0.34885717 3.48857167 0 0 Z " fill="#62652F" transform="translate(150,66)"/>
<path d="M0 0 C2.53605069 2.53605069 2.79250373 4.46876556 3.625 7.9375 C4.01558594 9.52884766 4.01558594 9.52884766 4.4140625 11.15234375 C5 14 5 14 5 17 C5.66 17 6.32 17 7 17 C7 17.66 7 18.32 7 19 C8.32 19.66 9.64 20.32 11 21 C11 21.66 11 22.32 11 23 C6.5969913 21.65463623 4.528436 19.83947688 2 16 C2 15.01 2 14.02 2 13 C1.34 13 0.68 13 0 13 C0 8.71 0 4.42 0 0 Z " fill="#43452E" transform="translate(21,63)"/>
<path d="M0 0 C0.66 0.33 1.32 0.66 2 1 C2 2.98 2 4.96 2 7 C1.34 7 0.68 7 0 7 C0 7.66 0 8.32 0 9 C-0.66 9 -1.32 9 -2 9 C-2.2578125 9.59296875 -2.515625 10.1859375 -2.78125 10.796875 C-4.09769895 13.17660965 -5.42580782 14.50978792 -7.5 16.25 C-8.1084375 16.77078125 -8.716875 17.2915625 -9.34375 17.828125 C-11 19 -11 19 -13 19 C-11.09318548 14.41949991 -7.68562031 11.7143849 -4.09375 8.4140625 C-1.74817115 5.7096451 -0.91030576 3.43343585 0 0 Z " fill="#52C75B" transform="translate(90,62)"/>
<path d="M0 0 C0 0.99 0 1.98 0 3 C-0.99 3.33 -1.98 3.66 -3 4 C-3.33 4.66 -3.66 5.32 -4 6 C-10.49280882 8.65614906 -17.08280638 8.18723231 -24 8 C-24 7.67 -24 7.34 -24 7 C-23.10539062 6.82984375 -22.21078125 6.6596875 -21.2890625 6.484375 C-13.8207868 4.98753509 -6.94141504 3.15082664 0 0 Z " fill="#32331E" transform="translate(143,83)"/>
<path d="M0 0 C2 3 2 3 2 5 C2.99 5.33 3.98 5.66 5 6 C5.4125 6.433125 5.825 6.86625 6.25 7.3125 C8.84523671 9.81504969 11.84099623 11.2714885 15 13 C15 13.66 15 14.32 15 15 C9.18564666 14.71637301 5.80098077 12.18303812 2 8 C0.09590455 4.91511809 0 3.83180364 0 0 Z " fill="#686A35" transform="translate(22,76)"/>
<path d="M0 0 C1.125 1.75 1.125 1.75 2 4 C0.77571565 7.24269908 -1.07111044 9.26364121 -3.5625 11.625 C-6.14015389 14.04521959 -6.14015389 14.04521959 -8 17 C-9.32 16.67 -10.64 16.34 -12 16 C-11.30132812 15.34773438 -10.60265625 14.69546875 -9.8828125 14.0234375 C-8.97273438 13.14945313 -8.06265625 12.27546875 -7.125 11.375 C-6.22007813 10.51648438 -5.31515625 9.65796875 -4.3828125 8.7734375 C-1.89501918 5.87780921 -0.93543305 3.66646748 0 0 Z " fill="#21BB5C" transform="translate(93,67)"/>
<path d="M0 0 C0.33 0 0.66 0 1 0 C1.47045386 7.84089769 1.29795543 13.30024595 -3 20 C-3.66 20.33 -4.32 20.66 -5 21 C-4.72285156 19.90300781 -4.44570312 18.80601563 -4.16015625 17.67578125 C-3.79420763 16.22137007 -3.42832573 14.7669421 -3.0625 13.3125 C-2.88009766 12.59126953 -2.69769531 11.87003906 -2.50976562 11.12695312 C-1.58174093 7.43172752 -0.70201539 3.74654531 0 0 Z " fill="#363724" transform="translate(149,62)"/>
<path d="M0 0 C1.06863281 0.01804687 2.13726562 0.03609375 3.23828125 0.0546875 C4.04652344 0.07789062 4.85476562 0.10109375 5.6875 0.125 C-0.48045162 4.23696775 -8.07815833 4.39293858 -15.3125 4.125 C-10.03750226 1.38981599 -6.03184561 -0.13256804 0 0 Z " fill="#ABC2C8" transform="translate(127.3125,77.875)"/>
<path d="M0 0 C1.77503906 0.03480469 1.77503906 0.03480469 3.5859375 0.0703125 C5.36871094 0.09738281 5.36871094 0.09738281 7.1875 0.125 C8.10273437 0.14820313 9.01796875 0.17140625 9.9609375 0.1953125 C9.6309375 1.1853125 9.3009375 2.1753125 8.9609375 3.1953125 C4.1275903 3.27864607 -0.27598813 3.14792737 -5.0390625 2.1953125 C-3.0390625 0.1953125 -3.0390625 0.1953125 0 0 Z " fill="#E5E983" transform="translate(60.0390625,51.8046875)"/>
<path d="M0 0 C1.65 1.65 3.3 3.3 5 5 C4.01 5 3.02 5 2 5 C1.773125 5.5775 1.54625 6.155 1.3125 6.75 C-0.33038023 9.5663661 -2.39533227 11.08077114 -5 13 C-4.58691466 10.10840265 -4.11509101 9.1081158 -1.9375 7.0625 C0.27240386 5.13426482 0.27240386 5.13426482 0.25 2.25 C0.1675 1.5075 0.085 0.765 0 0 Z " fill="#8ED45D" transform="translate(84,56)"/>
<path d="M0 0 C0.33 0 0.66 0 1 0 C1.04898437 0.92941406 1.09796875 1.85882813 1.1484375 2.81640625 C1.69677146 12.07660933 1.69677146 12.07660933 4 21 C3.01 21 2.02 21 1 21 C0.21311555 18.22276075 -0.11949924 15.77389923 -0.09765625 12.890625 C-0.09443359 12.13652344 -0.09121094 11.38242188 -0.08789062 10.60546875 C-0.07951172 9.82816406 -0.07113281 9.05085938 -0.0625 8.25 C-0.05798828 7.45722656 -0.05347656 6.66445312 -0.04882812 5.84765625 C-0.03708565 3.89840492 -0.01915146 1.94919262 0 0 Z " fill="#9A9F4A" transform="translate(20,62)"/>
<path d="M0 0 C0.33 0 0.66 0 1 0 C1.4375 2.625 1.4375 2.625 1 6 C-0.58826431 7.78039306 -2.27901597 9.16201844 -4.17578125 10.60546875 C-5.94227965 11.95587545 -7.4631904 13.39698937 -9 15 C-8.42676569 11.13066838 -6.61046448 8.84777943 -4 6 C-3.34 6 -2.68 6 -2 6 C-2 5.34 -2 4.68 -2 4 C-1.34 4 -0.68 4 0 4 C0 2.68 0 1.36 0 0 Z " fill="#3DC25C" transform="translate(92,65)"/>
<path d="M0 0 C0.44730469 0.40992187 0.89460938 0.81984375 1.35546875 1.2421875 C4.73744485 4.25640074 7.579668 6.66050545 12 8 C12 8.33 12 8.66 12 9 C8.28801837 9.34530062 6.42716122 9.25629673 3.1875 7.3125 C0.79660671 4.78498424 0.2846076 3.41529114 0 0 Z " fill="#484B24" transform="translate(22,84)"/>
<path d="M0 0 C0.99 0 1.98 0 3 0 C2.4375 1.875 2.4375 1.875 1 4 C-3.74599015 5.86117261 -7.93466333 6.20674844 -13 6 C-13 5.67 -13 5.34 -13 5 C-9.04 4.34 -5.08 3.68 -1 3 C-0.67 2.01 -0.34 1.02 0 0 Z " fill="#565926" transform="translate(140,86)"/>
<path d="M0 0 C2.25 0.125 2.25 0.125 5 1 C7.375 3.8125 7.375 3.8125 9 7 C8.75 9.375 8.75 9.375 8 11 C7.4225 9.9275 6.845 8.855 6.25 7.75 C4.51624176 4.6973471 2.6365092 2.35402607 0 0 Z " fill="#37363B" transform="translate(141,7)"/>
<path d="M0 0 C0.33 0.66 0.66 1.32 1 2 C2.32 1.67 3.64 1.34 5 1 C-0.14285714 6.57142857 -0.14285714 6.57142857 -4 7 C-2.92598892 4.08482708 -2.22189824 2.22189824 0 0 Z " fill="#97DB59" transform="translate(57,77)"/>
<path d="M0 0 C3.3 0.33 6.6 0.66 10 1 C10 1.66 10 2.32 10 3 C7.03 3 4.06 3 1 3 C0.67 2.01 0.34 1.02 0 0 Z " fill="#3D3F24" transform="translate(36,88)"/>
<path d="M0 0 C0.33 0.99 0.66 1.98 1 3 C1.66 3 2.32 3 3 3 C3 3.66 3 4.32 3 5 C4.32 5.66 5.64 6.32 7 7 C7 7.66 7 8.32 7 9 C3.34683329 7.75023244 2.21934164 7.32901247 0 4 C0 2.68 0 1.36 0 0 Z " fill="#3D3E29" transform="translate(25,77)"/>
<path d="M0 0 C2.9375 0.8125 2.9375 0.8125 6 2 C6.33 2.99 6.66 3.98 7 5 C3 5 3 5 1.25 3.625 C0 2 0 2 0 0 Z " fill="#55572D" transform="translate(30,86)"/>
</svg>
