<?xml version="1.0" encoding="UTF-8"?>
<svg version="1.1" xmlns="http://www.w3.org/2000/svg" width="127" height="111">
<path d="M0 0 C1.21523849 -0.00960754 2.43047699 -0.01921509 3.68254089 -0.02911377 C4.99813492 -0.03336365 6.31372894 -0.03761353 7.66918945 -0.04199219 C9.03579204 -0.04774819 10.40239462 -0.05350586 11.76899719 -0.05926514 C14.63636652 -0.06976874 17.50370789 -0.07561484 20.37109375 -0.07910156 C24.02821595 -0.08456948 27.68496267 -0.10856313 31.34196758 -0.13707352 C34.16715028 -0.15579239 36.99224446 -0.16091049 39.8174839 -0.16243744 C41.81592253 -0.16690113 43.8143136 -0.18550686 45.81266785 -0.20440674 C55.68010996 -0.18035054 62.92709955 0.99326166 70.0949707 8.16113281 C72.61499465 12.48294292 73.6781563 16.28167768 74.3449707 21.22363281 C74.51512695 22.41085938 74.6852832 23.59808594 74.8605957 24.82128906 C75.0949707 28.16113281 75.0949707 28.16113281 74.61132812 30.33740234 C73.9186113 34.12556444 74.01144052 37.84674998 74.06762695 41.68066406 C74.08027678 43.35969843 74.09263748 45.038735 74.10473633 46.71777344 C74.12948877 49.34422792 74.1574316 51.97056565 74.19091797 54.59692383 C74.22134298 57.1456776 74.23896381 59.6942853 74.25512695 62.24316406 C74.27531639 63.40450615 74.27531639 63.40450615 74.2959137 64.58930969 C74.33097596 72.31047897 73.12611759 79.01195329 68.0949707 85.16113281 C60.90681697 91.17912198 52.053147 91.46554549 43.0402832 91.68066406 C42.09925751 91.70714523 41.15823181 91.7336264 40.18869019 91.76091003 C38.20379244 91.81330828 36.21876387 91.86094706 34.23364258 91.90405273 C31.26206749 91.97266088 28.29226507 92.06900444 25.3215332 92.16699219 C15.99226137 92.42111237 6.89266434 92.31920566 -2.3503418 90.92285156 C-3.1003244 90.81286331 -3.85030701 90.70287506 -4.62301636 90.58955383 C-11.20004348 89.44652593 -17.05929037 87.43281149 -21.3425293 82.16113281 C-23.53462735 77.95230455 -24.03213928 74.59715501 -24.14208984 69.87695312 C-24.16849045 68.82195618 -24.19489105 67.76695923 -24.22209167 66.67999268 C-24.25657158 64.97682892 -24.25657158 64.97682892 -24.29174805 63.23925781 C-24.31727249 62.06530457 -24.34279694 60.89135132 -24.36909485 59.68182373 C-24.42109423 57.19711333 -24.47052222 54.71234799 -24.51757812 52.22753906 C-24.59197323 48.43944705 -24.68273045 44.65197165 -24.77416992 40.86425781 C-24.82270601 38.44761122 -24.87026376 36.03094474 -24.91674805 33.61425781 C-24.94580734 32.48691223 -24.97486664 31.35956665 -25.00480652 30.19805908 C-25.15379062 20.81095398 -24.47411511 13.96562588 -17.84643555 6.92285156 C-12.5449736 2.11206819 -7.1261064 0.04544706 0 0 Z " fill="#2C2C2D" transform="translate(39.905029296875,7.8388671875)"/>
<path d="M0 0 C0.33 0 0.66 0 1 0 C1.10957031 0.66386719 1.21914062 1.32773437 1.33203125 2.01171875 C2.4854282 8.99124341 2.4854282 8.99124341 6 15 C9.78319798 17.44795163 13.39045073 17.20343625 17.70703125 16.625 C21.515792 15.58683693 23.98299807 13.50346968 27 11 C26.67 12.32 26.34 13.64 26 15 C25.34 15 24.68 15 24 15 C24 15.66 24 16.32 24 17 C22.35 17.33 20.7 17.66 19 18 C18.505 19.485 18.505 19.485 18 21 C16.68 20.67 15.36 20.34 14 20 C14 21.32 14 22.64 14 24 C14.99 24.33 15.98 24.66 17 25 C17.6875 27.0625 17.6875 27.0625 18 29 C18.66 29 19.32 29 20 29 C19.34 33.29 18.68 37.58 18 42 C18.99 42.495 18.99 42.495 20 43 C20 45.62113708 19.68707555 47.50935112 19 50 C15.68929162 51.00109515 12.69915231 51.10356134 9.25 51.0625 C8.26515625 51.05347656 7.2803125 51.04445312 6.265625 51.03515625 C5.51796875 51.02355469 4.7703125 51.01195312 4 51 C3.67 50.34 3.34 49.68 3 49 C6.63 48.67 10.26 48.34 14 48 C14.33 40.74 14.66 33.48 15 26 C11.37 26.33 7.74 26.66 4 27 C3.67 33.93 3.34 40.86 3 48 C1.02 48.495 1.02 48.495 -1 49 C-1.33 49.66 -1.66 50.32 -2 51 C-3.7290774 51.02725341 -5.45828176 51.04650987 -7.1875 51.0625 C-8.15042969 51.07410156 -9.11335938 51.08570313 -10.10546875 51.09765625 C-13 51 -13 51 -15.73828125 50.43359375 C-18.02271578 49.75818329 -18.02271578 49.75818329 -20 51 C-21.82934565 51.14679934 -23.66500243 51.22102635 -25.5 51.25 C-26.96953125 51.28867188 -26.96953125 51.28867188 -28.46875 51.328125 C-29.3040625 51.21984375 -30.139375 51.1115625 -31 51 C-33.54383701 47.18424448 -33.25874245 44.10078204 -33.1875 39.6875 C-33.18685547 38.94048828 -33.18621094 38.19347656 -33.18554688 37.42382812 C-33.1520172 33.18046129 -32.83025786 29.17785757 -32 25 C-31.67 25 -31.34 25 -31 25 C-30.67 32.59 -30.34 40.18 -30 48 C-26.7 48 -23.4 48 -20 48 C-19.67 37.44 -19.34 26.88 -19 16 C-18.34 16.66 -17.68 17.32 -17 18 C-16.34 17.34 -15.68 16.68 -15 16 C-15 26.56 -15 37.12 -15 48 C-11.04 48 -7.08 48 -3 48 C-2.97530331 41.93107399 -2.95714158 35.86217717 -2.94506836 29.79321289 C-2.94003586 27.72810354 -2.93320931 25.66299776 -2.92456055 23.59790039 C-2.91244764 20.63166422 -2.90676089 17.66547511 -2.90234375 14.69921875 C-2.89718246 13.7741301 -2.89202118 12.84904144 -2.88670349 11.8959198 C-2.88662796 11.03525406 -2.88655243 10.17458832 -2.88647461 9.2878418 C-2.884254 8.53061325 -2.88203339 7.7733847 -2.87974548 6.99320984 C-2.92649769 4.78963753 -2.92649769 4.78963753 -4 2 C-3.34 1.67 -2.68 1.34 -2 1 C-1.67 1.66 -1.34 2.32 -1 3 C-0.67 2.01 -0.34 1.02 0 0 Z " fill="#1E360D" transform="translate(76,30)"/>
<path d="M0 0 C4.35600602 2.25762893 6.99821229 4.79933505 9.12890625 9.31640625 C9.9790522 13.3675365 10.03790724 16.72187959 7.953125 20.37890625 C5.19525435 23.79952101 2.55655493 26.49265766 -1.87109375 27.31640625 C-6.76162158 27.45051579 -9.90123611 27.0799112 -13.80859375 24.00390625 C-17.44208687 19.26935461 -18.42483305 15.80643027 -18.328125 9.86328125 C-17.57194567 5.64935881 -15.16768985 2.93924549 -11.87109375 0.31640625 C-7.81034845 -1.03717552 -4.11640423 -1.50390551 0 0 Z " fill="#FCBE15" transform="translate(94.87109375,20.68359375)"/>
<path d="M0 0 C1.28616569 4.92753448 1.14403337 9.80596485 1.1328125 14.859375 C1.13376923 15.80435852 1.13472595 16.74934204 1.13571167 17.72296143 C1.13639047 19.71325752 1.13455711 21.70355585 1.13037109 23.69384766 C1.12499476 26.75297957 1.13033841 29.81196625 1.13671875 32.87109375 C1.13605838 34.80468783 1.13477808 36.73828181 1.1328125 38.671875 C1.13483673 39.59160095 1.13686096 40.5113269 1.13894653 41.45892334 C1.11496565 47.88503435 1.11496565 47.88503435 0 49 C-1.66429051 49.09823937 -3.33281931 49.12973631 -5 49.125 C-6.36125 49.12886719 -6.36125 49.12886719 -7.75 49.1328125 C-10 49 -10 49 -11 48 C-11.11333764 46.66577682 -11.1594891 45.32573023 -11.17700195 43.98681641 C-11.18983719 43.13568268 -11.20267242 42.28454895 -11.21589661 41.40762329 C-11.22328354 40.48162323 -11.23067047 39.55562317 -11.23828125 38.6015625 C-11.246353 37.65566254 -11.25442474 36.70976257 -11.26274109 35.73519897 C-11.27659857 33.72940921 -11.28731324 31.7235957 -11.29516602 29.71777344 C-11.31238942 26.64472974 -11.35626163 23.5727586 -11.40039062 20.5 C-11.41051606 18.55469544 -11.41903263 16.60938171 -11.42578125 14.6640625 C-11.44328934 13.7421109 -11.46079742 12.8201593 -11.47883606 11.87026978 C-11.45709442 5.49813646 -11.45709442 5.49813646 -9.13745117 2.97021484 C-2.59386009 0 -2.59386009 0 0 0 Z " fill="#A9D826" transform="translate(73,30)"/>
<path d="M0 0 C0.70125 0.00515625 1.4025 0.0103125 2.125 0.015625 C2.82625 0.01046875 3.5275 0.0053125 4.25 0 C6.125 0.265625 6.125 0.265625 8.125 2.265625 C8.31213986 4.69129619 8.38085278 7.00060167 8.35546875 9.42578125 C8.35478142 10.48338905 8.35478142 10.48338905 8.3540802 11.56236267 C8.35105863 13.05274132 8.3431751 14.54311684 8.33081055 16.03344727 C8.31254456 18.32254133 8.31030091 20.61123127 8.31054688 22.90039062 C8.30563206 24.34635769 8.2998039 25.79232199 8.29296875 27.23828125 C8.29185593 27.92680679 8.2907431 28.61533234 8.28959656 29.32472229 C8.24105499 34.14957001 8.24105499 34.14957001 7.125 35.265625 C5.46070949 35.36386437 3.79218069 35.39536131 2.125 35.390625 C0.76375 35.39449219 0.76375 35.39449219 -0.625 35.3984375 C-2.875 35.265625 -2.875 35.265625 -3.875 34.265625 C-3.98817284 31.91334181 -4.03916537 29.59150552 -4.04296875 27.23828125 C-4.04629715 26.53416611 -4.04962555 25.83005096 -4.05305481 25.104599 C-4.05812655 23.61246394 -4.06046306 22.1203175 -4.06030273 20.62817383 C-4.06248759 18.34111893 -4.08063549 16.05454747 -4.09960938 13.76757812 C-4.10254354 12.32031416 -4.10452818 10.87304789 -4.10546875 9.42578125 C-4.11265427 8.73927994 -4.11983978 8.05277863 -4.12724304 7.34547424 C-4.0945816 0.58006573 -4.0945816 0.58006573 0 0 Z " fill="#FAB90B" transform="translate(48.875,43.734375)"/>
<path d="M0 0 C0.70125 0.00515625 1.4025 0.0103125 2.125 0.015625 C2.82625 0.01046875 3.5275 0.0053125 4.25 0 C6.125 0.265625 6.125 0.265625 8.125 2.265625 C8.36791992 4.40454102 8.36791992 4.40454102 8.35546875 7.01953125 C8.35353516 7.95603516 8.35160156 8.89253906 8.34960938 9.85742188 C8.33736328 10.83775391 8.32511719 11.81808594 8.3125 12.828125 C8.31185547 13.81232422 8.31121094 14.79652344 8.31054688 15.81054688 C8.26517532 23.12544968 8.26517532 23.12544968 7.125 24.265625 C5.27212498 24.33789002 3.41666122 24.3494372 1.5625 24.328125 C0.55058594 24.31910156 -0.46132813 24.31007813 -1.50390625 24.30078125 C-2.28636719 24.28917969 -3.06882812 24.27757813 -3.875 24.265625 C-3.93287784 20.64069166 -3.9685542 17.01587643 -4 13.390625 C-4.01675781 12.35808594 -4.03351562 11.32554688 -4.05078125 10.26171875 C-4.05722656 9.27558594 -4.06367188 8.28945313 -4.0703125 7.2734375 C-4.08078613 6.36223145 -4.09125977 5.45102539 -4.10205078 4.51220703 C-3.8071765 1.59453696 -2.9769118 0.42172917 0 0 Z " fill="#FCBB13" transform="translate(31.875,54.734375)"/>
<path d="M0 0 C1.82099552 7.97980964 2.63082945 17.05865884 -1.64453125 24.34375 C-4.0276817 27.25572634 -6.80621021 29.0345909 -10 31 C-10.93100452 25.39883458 -11.24672034 19.92459223 -11.3125 14.25 C-11.34150391 13.40050781 -11.37050781 12.55101562 -11.40039062 11.67578125 C-11.46379776 5.50090158 -11.46379776 5.50090158 -9.14453125 2.99609375 C-2.69411765 0 -2.69411765 0 0 0 Z " fill="#D6E422" transform="translate(73,30)"/>
<path d="M0 0 C1.51400391 0.01740234 1.51400391 0.01740234 3.05859375 0.03515625 C4.07050781 0.04417969 5.08242187 0.05320313 6.125 0.0625 C7.29869141 0.07990234 7.29869141 0.07990234 8.49609375 0.09765625 C8.52496887 3.74347312 8.5428496 7.38926088 8.55859375 11.03515625 C8.56697266 12.07607422 8.57535156 13.11699219 8.58398438 14.18945312 C8.58720703 15.17880859 8.59042969 16.16816406 8.59375 17.1875 C8.59898682 18.10394287 8.60422363 19.02038574 8.60961914 19.96459961 C8.49609375 22.09765625 8.49609375 22.09765625 7.49609375 23.09765625 C5.83180324 23.19589562 4.16327444 23.22739256 2.49609375 23.22265625 C1.13484375 23.22652344 1.13484375 23.22652344 -0.25390625 23.23046875 C-2.50390625 23.09765625 -2.50390625 23.09765625 -3.50390625 22.09765625 C-3.60290148 20.54810066 -3.63470149 18.99411952 -3.63671875 17.44140625 C-3.63800781 16.50167969 -3.63929687 15.56195313 -3.640625 14.59375 C-3.63675781 13.60503906 -3.63289063 12.61632812 -3.62890625 11.59765625 C-3.63277344 10.60894531 -3.63664062 9.62023437 -3.640625 8.6015625 C-3.63933594 7.66183594 -3.63804688 6.72210938 -3.63671875 5.75390625 C-3.63559082 4.88572266 -3.63446289 4.01753906 -3.63330078 3.12304688 C-3.43935457 0.08723973 -3.05776339 0.11925754 0 0 Z " fill="#8DC632" transform="translate(82.50390625,55.90234375)"/>
<path d="M0 0 C5.28 0 10.56 0 16 0 C14.82719862 8.20960968 14.82719862 8.20960968 10.09765625 11.83203125 C6.48307323 13.8446203 3.09730596 14.31231733 -1 14 C-4.5 12.9375 -4.5 12.9375 -7 11 C-7.875 7.8125 -7.875 7.8125 -8 5 C-3.25 3 -3.25 3 -1 3 C-0.67 2.01 -0.34 1.02 0 0 Z " fill="#FAAA10" transform="translate(88,34)"/>
<path d="M0 0 C0.33 0.66 0.66 1.32 1 2 C1.66 2 2.32 2 3 2 C3 2.66 3 3.32 3 4 C10.425 4.99 10.425 4.99 18 6 C17.67 6.66 17.34 7.32 17 8 C15.68 7.67 14.36 7.34 13 7 C13 8.32 13 9.64 13 11 C7.06 11.495 7.06 11.495 1 12 C1 17.94 1 23.88 1 30 C0.34 30.33 -0.32 30.66 -1 31 C-1.02465622 26.74585377 -1.04283899 22.49174502 -1.05493164 18.23754883 C-1.05997101 16.78929927 -1.06680253 15.34105483 -1.07543945 13.89282227 C-1.08752247 11.81525412 -1.09323211 9.73775303 -1.09765625 7.66015625 C-1.10289307 6.40855713 -1.10812988 5.15695801 -1.11352539 3.86743164 C-1 1 -1 1 0 0 Z " fill="#202220" transform="translate(77,43)"/>
<path d="M0 0 C2.31 0.33 4.62 0.66 7 1 C7.66 3.31 8.32 5.62 9 8 C8.34 8 7.68 8 7 8 C7 14.93 7 21.86 7 29 C6.67 29 6.34 29 6 29 C5.67 23.72 5.34 18.44 5 13 C3.2675 13.515625 1.535 14.03125 -0.25 14.5625 C-3.91973519 15.65468309 -6.34142468 16.31534494 -10 15 C-8.35 14.67 -6.7 14.34 -5 14 C-5 13.34 -5 12.68 -5 12 C-4.34 11.67 -3.68 11.34 -3 11 C-0.75781281 7.57077253 -0.46263302 4.00948613 0 0 Z " fill="#211F21" transform="translate(105,33)"/>
<path d="M0 0 C0.33 0 0.66 0 1 0 C1.02888146 3.31248187 1.04675799 6.62493167 1.0625 9.9375 C1.07087891 10.88302734 1.07925781 11.82855469 1.08789062 12.80273438 C1.09111328 13.70185547 1.09433594 14.60097656 1.09765625 15.52734375 C1.10289307 16.35999756 1.10812988 17.19265137 1.11352539 18.05053711 C1 20 1 20 0 21 C-1.68608966 21.07205511 -3.37500659 21.08386068 -5.0625 21.0625 C-5.98160156 21.05347656 -6.90070313 21.04445313 -7.84765625 21.03515625 C-8.55792969 21.02355469 -9.26820312 21.01195313 -10 21 C-10.6875 18.75 -10.6875 18.75 -11 16 C-9.26635169 12.87943304 -8.44004627 12.14668209 -5 11 C-1.59197613 7.49174013 -0.45157023 4.85437999 0 0 Z " fill="#79CB25" transform="translate(73,58)"/>
<path d="M0 0 C0.33 0 0.66 0 1 0 C1.02887814 3.47914941 1.04675687 6.95826831 1.0625 10.4375 C1.07087891 11.43072266 1.07925781 12.42394531 1.08789062 13.44726562 C1.09111328 14.39150391 1.09433594 15.33574219 1.09765625 16.30859375 C1.10289307 17.18314209 1.10812988 18.05769043 1.11352539 18.95874023 C1 21 1 21 0 22 C-3.6691577 22.14310287 -7.32715441 22.04221662 -11 22 C-11 16.72 -11 11.44 -11 6 C-10.67 6 -10.34 6 -10 6 C-10 9.3 -10 12.6 -10 16 C-9.01 15.01 -8.02 14.02 -7 13 C-3.3125 12.8125 -3.3125 12.8125 0 13 C0 8.71 0 4.42 0 0 Z " fill="#E38F24" transform="translate(39,57)"/>
<path d="M0 0 C0.33 0 0.66 0 1 0 C1 11.22 1 22.44 1 34 C-1.59458106 35.29729053 -3.60447598 35.2042812 -6.5 35.25 C-7.96953125 35.28867188 -7.96953125 35.28867188 -9.46875 35.328125 C-10.3040625 35.21984375 -11.139375 35.1115625 -12 35 C-14.54383701 31.18424448 -14.25874245 28.10078204 -14.1875 23.6875 C-14.18685547 22.94048828 -14.18621094 22.19347656 -14.18554688 21.42382812 C-14.1520172 17.18046129 -13.83025786 13.17785757 -13 9 C-12.67 9 -12.34 9 -12 9 C-11.67 16.59 -11.34 24.18 -11 32 C-7.7 32 -4.4 32 -1 32 C-0.67 21.44 -0.34 10.88 0 0 Z " fill="#3C2403" transform="translate(57,46)"/>
<path d="M0 0 C0.33 0 0.66 0 1 0 C1 10.56 1 21.12 1 32 C1.66 32.33 2.32 32.66 3 33 C1.35 33 -0.3 33 -2 33 C-2.04938149 28.62176083 -2.0857104 24.24366854 -2.10986328 19.86523438 C-2.11993043 18.3752968 -2.13358518 16.88537903 -2.15087891 15.39550781 C-2.17509653 13.25580972 -2.18647564 11.11637247 -2.1953125 8.9765625 C-2.21102295 7.04417725 -2.21102295 7.04417725 -2.22705078 5.07275391 C-2 2 -2 2 0 0 Z " fill="#201F13" transform="translate(60,46)"/>
<path d="M0 0 C0.66 1.32 1.32 2.64 2 4 C2.66 4 3.32 4 4 4 C3.34 8.29 2.68 12.58 2 17 C2.66 17.33 3.32 17.66 4 18 C4 20.62113708 3.68707555 22.50935112 3 25 C-0.31070838 26.00109515 -3.30084769 26.10356134 -6.75 26.0625 C-7.73484375 26.05347656 -8.7196875 26.04445313 -9.734375 26.03515625 C-10.48203125 26.02355469 -11.2296875 26.01195313 -12 26 C-12.33 25.34 -12.66 24.68 -13 24 C-12.21753906 23.93941406 -11.43507813 23.87882812 -10.62890625 23.81640625 C-9.61699219 23.73261719 -8.60507813 23.64882812 -7.5625 23.5625 C-6.55316406 23.48128906 -5.54382813 23.40007812 -4.50390625 23.31640625 C-2.06359221 23.26788532 -2.06359221 23.26788532 -1 22 C-0.84285346 20.36743242 -0.74914586 18.72864662 -0.68359375 17.08984375 C-0.64169922 16.10048828 -0.59980469 15.11113281 -0.55664062 14.09179688 C-0.49766602 12.53041992 -0.49766602 12.53041992 -0.4375 10.9375 C-0.39431641 9.89271484 -0.35113281 8.84792969 -0.30664062 7.77148438 C-0.20018775 5.18113116 -0.0981724 2.59067814 0 0 Z " fill="#0B2509" transform="translate(92,55)"/>
<path d="M0 0 C3.33333333 0 6.66666667 0 10 0 C9.63370166 6.34917127 9.63370166 6.34917127 6.6875 9.375 C4 11 4 11 0 12 C0 8.04 0 4.08 0 0 Z " fill="#9FD621" transform="translate(80,57)"/>
<path d="M0 0 C1.69867523 0.9751016 3.34835906 2.03449916 4.98828125 3.10546875 C2.44125509 4.37898183 1.55998675 3.907388 -1.13671875 3.16796875 C-1.86117187 2.97332031 -2.585625 2.77867188 -3.33203125 2.578125 C-3.88632813 2.42214844 -4.440625 2.26617188 -5.01171875 2.10546875 C-5.34171875 3.09546875 -5.67171875 4.08546875 -6.01171875 5.10546875 C-6.75421875 5.20859375 -7.49671875 5.31171875 -8.26171875 5.41796875 C-11.18185893 6.14800379 -12.74359429 7.17336273 -15.01171875 9.10546875 C-15.67171875 8.77546875 -16.33171875 8.44546875 -17.01171875 8.10546875 C-17.34171875 8.76546875 -17.67171875 9.42546875 -18.01171875 10.10546875 C-17.59736968 5.27139623 -15.63377921 3.21009201 -12.01171875 0.10546875 C-7.88748843 -1.26927469 -4.09008845 -1.81869952 0 0 Z " fill="#E7C934" transform="translate(95.01171875,20.89453125)"/>
<path d="M0 0 C3.3 0 6.6 0 10 0 C9.93279693 3.36015365 9.7373527 6.00512412 7.69140625 8.765625 C3.77148364 12.49543589 0.36386135 13.73869695 -4.984375 14.1875 C-7 14 -7 14 -10 12 C-8.02 11.34 -6.04 10.68 -4 10 C-4 9.34 -4 8.68 -4 8 C-3.01 7.67 -2.02 7.34 -1 7 C-0.67 7.99 -0.34 8.98 0 10 C0.66 10.33 1.32 10.66 2 11 C2.33 10.01 2.66 9.02 3 8 C3.99 8 4.98 8 6 8 C6 5.69 6 3.38 6 1 C4.02 1 2.04 1 0 1 C0 0.67 0 0.34 0 0 Z " fill="#E58C1B" transform="translate(94,34)"/>
<path d="M0 0 C0.33 0 0.66 0 1 0 C1.02465392 4.53897705 1.04283789 9.07791543 1.05493164 13.61694336 C1.0599714 15.16219766 1.0668032 16.70744716 1.07543945 18.25268555 C1.08752076 20.46925029 1.09323173 22.68575218 1.09765625 24.90234375 C1.10281754 25.5971434 1.10797882 26.29194305 1.11329651 27.00779724 C1.11349277 28.6722933 1.06189129 30.33665499 1 32 C0 33 0 33 -2.25 33.1328125 C-3.1575 33.13023438 -4.065 33.12765625 -5 33.125 C-6.36125 33.12886719 -6.36125 33.12886719 -7.75 33.1328125 C-10 33 -10 33 -11 32 C-11.08700342 30.36527118 -11.10701063 28.72685945 -11.09765625 27.08984375 C-11.09443359 26.10048828 -11.09121094 25.11113281 -11.08789062 24.09179688 C-11.07951172 23.05087891 -11.07113281 22.00996094 -11.0625 20.9375 C-11.05798828 19.89271484 -11.05347656 18.84792969 -11.04882812 17.77148438 C-11.03699913 15.1809334 -11.02051689 12.59049441 -11 10 C-10.67 10 -10.34 10 -10 10 C-9.67 16.93 -9.34 23.86 -9 31 C-6.03 31 -3.06 31 0 31 C0 20.77 0 10.54 0 0 Z " fill="#D39B35" transform="translate(56,46)"/>
<path d="M0 0 C0.33 0 0.66 0 1 0 C1.02686553 1.97909398 1.04633375 3.95828971 1.0625 5.9375 C1.07410156 7.03964844 1.08570312 8.14179687 1.09765625 9.27734375 C1 12 1 12 0 13 C-1.68608966 13.07205511 -3.37500659 13.08386068 -5.0625 13.0625 C-5.98160156 13.05347656 -6.90070313 13.04445313 -7.84765625 13.03515625 C-8.55792969 13.02355469 -9.26820312 13.01195313 -10 13 C-10.33 12.34 -10.66 11.68 -11 11 C-10.34 11 -9.68 11 -9 11 C-9 10.01 -9 9.02 -9 8 C-8.360625 7.71125 -7.72125 7.4225 -7.0625 7.125 C-4.84793921 6.17176549 -4.84793921 6.17176549 -4 4 C-2.68 4 -1.36 4 0 4 C0 2.68 0 1.36 0 0 Z " fill="#61C525" transform="translate(90,66)"/>
<path d="M0 0 C-0.33 0.99 -0.66 1.98 -1 3 C-1.9590625 3.2165625 -1.9590625 3.2165625 -2.9375 3.4375 C-5.11704124 3.7873476 -5.11704124 3.7873476 -6.06640625 5.625 C-7.63206158 9.60792234 -7.90056806 13.78036122 -8.4375 18.00390625 C-9 21 -9 21 -11 24 C-11.11613204 20.89614789 -11.18722029 17.79285338 -11.25 14.6875 C-11.28351562 13.80642578 -11.31703125 12.92535156 -11.3515625 12.01757812 C-11.45077253 5.49451839 -11.45077253 5.49451839 -9.1484375 2.96875 C-8.43945312 2.6490625 -7.73046875 2.329375 -7 2 C-6.13375 1.608125 -5.2675 1.21625 -4.375 0.8125 C-2 0 -2 0 0 0 Z " fill="#F3F066" transform="translate(73,30)"/>
<path d="M0 0 C2.01822917 0.06510417 4.03645833 0.13020833 6.0546875 0.1953125 C6.3846875 1.1853125 6.7146875 2.1753125 7.0546875 3.1953125 C6.2709375 3.4428125 5.4871875 3.6903125 4.6796875 3.9453125 C1.62370443 5.40054253 1.20443217 6.09984608 0.0546875 9.1953125 C-0.3165625 10.1028125 -0.6878125 11.0103125 -1.0703125 11.9453125 C-1.3590625 12.6878125 -1.6478125 13.4303125 -1.9453125 14.1953125 C-3.9453125 12.1953125 -3.9453125 12.1953125 -4.2109375 9.8828125 C-4.20578125 8.9959375 -4.200625 8.1090625 -4.1953125 7.1953125 C-4.20046875 6.3084375 -4.205625 5.4215625 -4.2109375 4.5078125 C-3.86856015 1.52711553 -3.08114197 0.3093516 0 0 Z " fill="#F9DB2B" transform="translate(48.9453125,43.8046875)"/>
<path d="M0 0 C6.84162756 -0.56594346 11.6661411 -0.3745744 17.44140625 3.515625 C20.21129277 6.15361216 20.94789051 8.19542948 21.1953125 12.015625 C21.17210938 13.08296875 21.14890625 14.1503125 21.125 15.25 C21.10695313 16.32765625 21.08890625 17.4053125 21.0703125 18.515625 C21.04710938 19.33546875 21.02390625 20.1553125 21 21 C20.34 21.33 19.68 21.66 19 22 C19.33 19.69 19.66 17.38 20 15 C15.38 15 10.76 15 6 15 C6 14.67 6 14.34 6 14 C10.62 14 15.24 14 20 14 C17.82501613 8.78003871 16.18972485 5.17392884 11.015625 2.609375 C7.37155128 1.50767829 3.76057291 1.69301446 0 2 C0 1.34 0 0.68 0 0 Z " fill="#4D320C" transform="translate(84,19)"/>
<path d="M0 0 C0.33 0 0.66 0 1 0 C1.04241723 2.33294775 1.04092937 4.66702567 1 7 C0.67 7.33 0.34 7.66 0 8 C-0.16023562 10.88252645 -0.25954029 13.74378527 -0.31640625 16.62890625 C-0.33718735 17.49313705 -0.35796844 18.35736786 -0.37937927 19.24778748 C-0.44497114 22.01927445 -0.50380418 24.79085921 -0.5625 27.5625 C-0.60567608 29.43685923 -0.64929006 31.31120843 -0.69335938 33.18554688 C-0.80066227 37.79026336 -0.90190215 42.39507858 -1 47 C-1.33 47 -1.66 47 -2 47 C-2.03758423 45.11510864 -2.03758423 45.11510864 -2.07592773 43.19213867 C-2.17002295 38.53480643 -2.27023859 33.87762259 -2.37231445 29.22045898 C-2.41565529 27.20389271 -2.45733098 25.18728993 -2.49731445 23.1706543 C-2.55503747 20.27381383 -2.61872622 17.37715694 -2.68359375 14.48046875 C-2.70030624 13.57725388 -2.71701874 12.674039 -2.73423767 11.74345398 C-2.75418289 10.90280899 -2.77412811 10.062164 -2.79467773 9.19604492 C-2.81022202 8.45658127 -2.8257663 7.71711761 -2.84178162 6.95524597 C-2.93912225 4.7848329 -2.93912225 4.7848329 -4 2 C-3.34 1.67 -2.68 1.34 -2 1 C-1.67 1.66 -1.34 2.32 -1 3 C-0.67 2.01 -0.34 1.02 0 0 Z " fill="#435112" transform="translate(76,30)"/>
<path d="M0 0 C3.21746321 2.65790439 3.08233008 3.41165038 4 8 C-0.62 8 -5.24 8 -10 8 C-8.68 7.67 -7.36 7.34 -6 7 C-5.67 5.68 -5.34 4.36 -5 3 C-4.34 3 -3.68 3 -3 3 C-3 2.34 -3 1.68 -3 1 C-2.01 0.67 -1.02 0.34 0 0 Z " fill="#FBA610" transform="translate(100,25)"/>
<path d="M0 0 C1.32 0 2.64 0 4 0 C4.33 0.99 4.66 1.98 5 3 C5.99 3 6.98 3 8 3 C8.66 3 9.32 3 10 3 C9.67 4.65 9.34 6.3 9 8 C8.34 7.67 7.68 7.34 7 7 C4.30986661 6.81295596 1.70313823 6.91418609 -1 7 C-2.58272601 8.58272601 -2.34735747 10.38034003 -2.5625 12.5625 C-2.64628906 13.38878906 -2.73007812 14.21507812 -2.81640625 15.06640625 C-2.87699219 15.70449219 -2.93757813 16.34257813 -3 17 C-3.33 17 -3.66 17 -4 17 C-4 13.37 -4 9.74 -4 6 C-3.34 6 -2.68 6 -2 6 C-2 5.34 -2 4.68 -2 4 C-0.68 4 0.64 4 2 4 C2 3.34 2 2.68 2 2 C1.34 2 0.68 2 0 2 C0 1.34 0 0.68 0 0 Z " fill="#383323" transform="translate(48,38)"/>
<path d="M0 0 C0.763125 0.103125 1.52625 0.20625 2.3125 0.3125 C2.3125 1.9625 2.3125 3.6125 2.3125 5.3125 C1.3225 5.8075 1.3225 5.8075 0.3125 6.3125 C-1.35817133 8.30915598 -3.02502986 10.30901034 -4.6875 12.3125 C-5.0175 12.3125 -5.3475 12.3125 -5.6875 12.3125 C-6.36820652 0.74048913 -6.36820652 0.74048913 0 0 Z " fill="#F7EC37" transform="translate(70.6875,32.6875)"/>
<path d="M0 0 C0.99 0.33 1.98 0.66 3 1 C1.46566027 4.13629444 0.51449954 5.73319415 -2.62890625 7.36328125 C-3.59699219 7.67652344 -4.56507812 7.98976563 -5.5625 8.3125 C-6.53316406 8.63863281 -7.50382812 8.96476562 -8.50390625 9.30078125 C-11 10 -11 10 -13 10 C-12.67 8.68 -12.34 7.36 -12 6 C-11.4225 5.896875 -10.845 5.79375 -10.25 5.6875 C-7.90012053 5.11076107 -7.90012053 5.11076107 -5.9375 3.4375 C-4 2 -4 2 -1 2 C-0.67 1.34 -0.34 0.68 0 0 Z " fill="#FBD123" transform="translate(90,23)"/>
<path d="M0 0 C2.01822917 0.06510417 4.03645833 0.13020833 6.0546875 0.1953125 C6.3846875 1.5153125 6.7146875 2.8353125 7.0546875 4.1953125 C4.7446875 4.1953125 2.4346875 4.1953125 0.0546875 4.1953125 C-0.6053125 6.5053125 -1.2653125 8.8153125 -1.9453125 11.1953125 C-4.24695132 7.74285426 -4.29021572 6.24792537 -3.9453125 2.1953125 C-1.9453125 0.1953125 -1.9453125 0.1953125 0 0 Z " fill="#F1CD3C" transform="translate(31.9453125,54.8046875)"/>
<path d="M0 0 C0.33 0 0.66 0 1 0 C1.375 2.75 1.375 2.75 1 6 C-1.875 8.125 -1.875 8.125 -5 10 C-6.38868516 12.10039331 -6.38868516 12.10039331 -7 14 C-7.66 14 -8.32 14 -9 14 C-9 17.3 -9 20.6 -9 24 C-9.33 24 -9.66 24 -10 24 C-10 17.4 -10 10.8 -10 4 C-9.67 4 -9.34 4 -9 4 C-8.67 5.98 -8.34 7.96 -8 10 C-2.70810451 5.97791392 -2.70810451 5.97791392 0 0 Z " fill="#B5DB2E" transform="translate(72,50)"/>
<path d="M0 0 C0.66 0 1.32 0 2 0 C0.43358249 4.30764815 -1.68336156 8.06171464 -4 12 C-4.99 11.67 -5.98 11.34 -7 11 C-7.33 9.02 -7.66 7.04 -8 5 C-3.25 3 -3.25 3 -1 3 C-0.67 2.01 -0.34 1.02 0 0 Z " fill="#E38D10" transform="translate(88,34)"/>
<path d="M0 0 C0.598125 0.309375 1.19625 0.61875 1.8125 0.9375 C4.08956772 2.10209704 4.08956772 2.10209704 7 3 C7.66 3.33 8.32 3.66 9 4 C7.52436775 6.9512645 5.49920648 7.06923915 2.4375 8.125 C1.42558594 8.47820313 0.41367188 8.83140625 -0.62890625 9.1953125 C-1.41136719 9.46085937 -2.19382813 9.72640625 -3 10 C-2.52433594 8.84951172 -2.52433594 8.84951172 -2.0390625 7.67578125 C-1.04302156 5.11078861 -0.46379524 2.70547223 0 0 Z " fill="#36372C" transform="translate(66,24)"/>
<path d="M0 0 C0.66 0.33 1.32 0.66 2 1 C2.042721 2.66611905 2.04063832 4.33382885 2 6 C1 7 1 7 -1.28515625 7.09765625 C-2.65994141 7.08025391 -2.65994141 7.08025391 -4.0625 7.0625 C-4.98160156 7.05347656 -5.90070313 7.04445313 -6.84765625 7.03515625 C-7.55792969 7.02355469 -8.26820312 7.01195313 -9 7 C-9 6.01 -9 5.02 -9 4 C-6.03 3.34 -3.06 2.68 0 2 C0 1.34 0 0.68 0 0 Z " fill="#55B72C" transform="translate(72,72)"/>
<path d="M0 0 C0.33 0.99 0.66 1.98 1 3 C0.01 3.33 -0.98 3.66 -2 4 C-2 4.66 -2 5.32 -2 6 C-5.66134614 7.67451765 -8.5423471 8.27236525 -12.5625 8.25 C-13.49191406 8.25515625 -14.42132813 8.2603125 -15.37890625 8.265625 C-18.09934194 7.98993256 -19.73777594 7.52195394 -22 6 C-22.75 3.375 -22.75 3.375 -23 1 C-22.360625 1.639375 -21.72125 2.27875 -21.0625 2.9375 C-17.08150463 5.61857851 -13.76719937 6.22700949 -9 6 C-5.26753247 4.61760462 -2.59385209 3.02616077 0 0 Z " fill="#371905" transform="translate(102,41)"/>
<path d="M0 0 C0.33 0.66 0.66 1.32 1 2 C1.66 2 2.32 2 3 2 C2.34 6.29 1.68 10.58 1 15 C1.66 15.33 2.32 15.66 3 16 C3 18.62113708 2.68707555 20.50935112 2 23 C1.01 23 0.02 23 -1 23 C-0.67 15.41 -0.34 7.82 0 0 Z " fill="#1B1B1D" transform="translate(93,57)"/>
<path d="M0 0 C0.66 0.66 1.32 1.32 2 2 C2.99 1.67 3.98 1.34 5 1 C5.99 1.33 6.98 1.66 8 2 C8.99 1.67 9.98 1.34 11 1 C10.67 2.32 10.34 3.64 10 5 C7.92446352 5.5534764 6.15634036 6 4 6 C3.01 7.485 3.01 7.485 2 9 C0.14223235 5.86501708 -0.20140476 3.62528568 0 0 Z " fill="#F3AC1A" transform="translate(77,33)"/>
<path d="M0 0 C1.32 0 2.64 0 4 0 C4 1.98 4 3.96 4 6 C3.01 6.33 2.02 6.66 1 7 C0.67 7.66 0.34 8.32 0 9 C-0.99 8.67 -1.98 8.34 -3 8 C-1.125 1.125 -1.125 1.125 0 0 Z " fill="#FDA308" transform="translate(96,36)"/>
<path d="M0 0 C0.33 0 0.66 0 1 0 C1 5.28 1 10.56 1 16 C-1.97 16 -4.94 16 -8 16 C-8 14.35 -8 12.7 -8 11 C-7.401875 11.474375 -6.80375 11.94875 -6.1875 12.4375 C-3.99617076 14.16465744 -3.99617076 14.16465744 -1 15 C-1 14.34 -1 13.68 -1 13 C-1.66 12.67 -2.32 12.34 -3 12 C-2.34 11.67 -1.68 11.34 -1 11 C-0.5316735 8.41394668 -0.5316735 8.41394668 -0.375 5.4375 C-0.30023438 4.42558594 -0.22546875 3.41367188 -0.1484375 2.37109375 C-0.09945312 1.58863281 -0.05046875 0.80617187 0 0 Z " fill="#F5990D" transform="translate(55,61)"/>
<path d="M0 0 C0 1.32 0 2.64 0 4 C-2.31 4 -4.62 4 -7 4 C-7.33 4.99 -7.66 5.98 -8 7 C-8.66 7 -9.32 7 -10 7 C-9.8125 4.625 -9.8125 4.625 -9 2 C-5.72271751 0.13992075 -3.8340246 0 0 0 Z " fill="#FCA814" transform="translate(39,66)"/>
<path d="M0 0 C1.32 0.66 2.64 1.32 4 2 C3.67 2.99 3.34 3.98 3 5 C1.35 5 -0.3 5 -2 5 C-2.33 6.98 -2.66 8.96 -3 11 C-3.99 11 -4.98 11 -6 11 C-4.74194623 6.49197399 -3.09592835 3.5087188 0 0 Z " fill="#FBAF24" transform="translate(90,35)"/>
<path d="M0 0 C0.33 0.99 0.66 1.98 1 3 C-1.89380576 7.17048478 -3.98990293 9.56854369 -9 11 C-8.625 8.0625 -8.625 8.0625 -8 5 C-7.34 4.67 -6.68 4.34 -6 4 C-6 4.66 -6 5.32 -6 6 C-2.47618313 3.45395403 -2.47618313 3.45395403 0 0 Z " fill="#92D324" transform="translate(72,61)"/>
<path d="M0 0 C0.66 0 1.32 0 2 0 C0.8141763 3.37503669 -0.27573689 5.64722731 -3 8 C-3.99 7.67 -4.98 7.34 -6 7 C-6.66 7.66 -7.32 8.32 -8 9 C-8 7.68 -8 6.36 -8 5 C-7.236875 4.731875 -6.47375 4.46375 -5.6875 4.1875 C-3.09503074 3.04199033 -1.91184456 2.00288478 0 0 Z " fill="#9ED721" transform="translate(71,59)"/>
<path d="M0 0 C0.66 0 1.32 0 2 0 C2.33 1.98 2.66 3.96 3 6 C2.06027344 6.19916016 2.06027344 6.19916016 1.1015625 6.40234375 C-0.12433594 6.66724609 -0.12433594 6.66724609 -1.375 6.9375 C-2.18710937 7.11152344 -2.99921875 7.28554688 -3.8359375 7.46484375 C-6.029463 7.92330693 -6.029463 7.92330693 -8 9 C-8 8.01 -8 7.02 -8 6 C-4.91190305 4.23537317 -3.76687864 4 0 4 C0 2.68 0 1.36 0 0 Z " fill="#353024" transform="translate(36,48)"/>
<path d="M0 0 C2.89932357 2.39509338 3.50168276 4.31245243 4 8 C3.01 7.67 2.02 7.34 1 7 C0.67 9.64 0.34 12.28 0 15 C-0.33 15 -0.66 15 -1 15 C-1.02685412 12.68756208 -1.04632841 10.3750373 -1.0625 8.0625 C-1.07410156 6.77472656 -1.08570312 5.48695312 -1.09765625 4.16015625 C-1 1 -1 1 0 0 Z " fill="#2F270D" transform="translate(76,37)"/>
<path d="M0 0 C2.01822917 0.06510417 4.03645833 0.13020833 6.0546875 0.1953125 C6.0546875 1.1853125 6.0546875 2.1753125 6.0546875 3.1953125 C4.9203125 3.1746875 3.7859375 3.1540625 2.6171875 3.1328125 C-0.76106924 2.77953773 -0.76106924 2.77953773 -1.9453125 4.1953125 C-2.17606332 5.54278334 -2.35684313 6.89908815 -2.5078125 8.2578125 C-2.6521875 9.5571875 -2.7965625 10.8565625 -2.9453125 12.1953125 C-3.2753125 12.1953125 -3.6053125 12.1953125 -3.9453125 12.1953125 C-3.99926728 10.57067408 -4.03808445 8.94552709 -4.0703125 7.3203125 C-4.09351563 6.41539063 -4.11671875 5.51046875 -4.140625 4.578125 C-3.89173602 1.54167938 -3.13506836 0.3147659 0 0 Z " fill="#E4D578" transform="translate(48.9453125,43.8046875)"/>
<path d="M0 0 C1.09570312 0.00902344 2.19140625 0.01804687 3.3203125 0.02734375 C4.16335937 0.03894531 5.00640625 0.05054687 5.875 0.0625 C5.875 0.7225 5.875 1.3825 5.875 2.0625 C4.29370971 2.28581199 2.70978911 2.49054644 1.125 2.6875 C-0.19757812 2.86152344 -0.19757812 2.86152344 -1.546875 3.0390625 C-4.35359878 3.06457817 -5.75884866 2.51093844 -8.125 1.0625 C-5.36047967 -0.31976016 -3.0788637 -0.03275387 0 0 Z " fill="#576243" transform="translate(52.125,96.9375)"/>
<path d="M0 0 C3.21746321 2.65790439 3.08233008 3.41165038 4 8 C-0.62 8 -5.24 8 -10 8 C-10 7.67 -10 7.34 -10 7 C-6.37 7 -2.74 7 1 7 C0.67 4.69 0.34 2.38 0 0 Z " fill="#D6952F" transform="translate(100,25)"/>
<path d="M0 0 C0.66 0 1.32 0 2 0 C1.67 0.99 1.34 1.98 1 3 C0.34 3 -0.32 3 -1 3 C-0.67 2.01 -0.34 1.02 0 0 Z M-4 3 C-2.68 3.33 -1.36 3.66 0 4 C-1.65 5.98 -3.3 7.96 -5 10 C-5.33 9.34 -5.66 8.68 -6 8 C-5.0625 5.375 -5.0625 5.375 -4 3 Z " fill="#F3EE22" transform="translate(71,35)"/>
<path d="M0 0 C1.4540625 0.0309375 1.4540625 0.0309375 2.9375 0.0625 C2.6075 0.7225 2.2775 1.3825 1.9375 2.0625 C1.2775 2.0625 0.6175 2.0625 -0.0625 2.0625 C-0.0625 3.0525 -0.0625 4.0425 -0.0625 5.0625 C-1.3825 5.3925 -2.7025 5.7225 -4.0625 6.0625 C-4.105221 4.39638095 -4.10313832 2.72867115 -4.0625 1.0625 C-3.0625 0.0625 -3.0625 0.0625 0 0 Z " fill="#FDC918" transform="translate(35.0625,57.9375)"/>
<path d="M0 0 C0 0.99 0 1.98 0 3 C-4.625 5.125 -4.625 5.125 -8 4 C-8 3.01 -8 2.02 -8 1 C-2.25 -1.125 -2.25 -1.125 0 0 Z " fill="#322F36" transform="translate(36,49)"/>
<path d="M0 0 C-0.33 0.99 -0.66 1.98 -1 3 C-3.25 4.0625 -3.25 4.0625 -6 5 C-6.928125 5.37125 -7.85625 5.7425 -8.8125 6.125 C-9.534375 6.41375 -10.25625 6.7025 -11 7 C-10.4375 5.1875 -10.4375 5.1875 -9 3 C-3 0 -3 0 0 0 Z " fill="#D5D584" transform="translate(73,30)"/>
<path d="M0 0 C0.66 0 1.32 0 2 0 C1.67 1.65 1.34 3.3 1 5 C-2.3 5 -5.6 5 -9 5 C-9.33 4.34 -9.66 3.68 -10 3 C-8.3603125 3.0928125 -8.3603125 3.0928125 -6.6875 3.1875 C-3.08247389 3.37243237 -3.08247389 3.37243237 -1.1875 1.5 C-0.795625 1.005 -0.40375 0.51 0 0 Z " fill="#4DA438" transform="translate(89,74)"/>
<path d="M0 0 C-0.25 1.875 -0.25 1.875 -1 4 C-2.8125 5.3125 -2.8125 5.3125 -5 6 C-7.25 5.625 -7.25 5.625 -9 5 C-3.375 0 -3.375 0 0 0 Z " fill="#65CD1C" transform="translate(73,70)"/>
<path d="M0 0 C0.33 0 0.66 0 1 0 C1.05416188 1.60379341 1.09286638 3.20811406 1.125 4.8125 C1.14820313 5.70582031 1.17140625 6.59914063 1.1953125 7.51953125 C1 10 1 10 -1 13 C-1.33 10.36 -1.66 7.72 -2 5 C-1.34 5 -0.68 5 0 5 C0 3.35 0 1.7 0 0 Z " fill="#2D2720" transform="translate(43,51)"/>
<path d="M0 0 C0.66 0.33 1.32 0.66 2 1 C1.38125 1.2475 0.7625 1.495 0.125 1.75 C-2.35068687 3.20628639 -2.95125002 4.37812506 -4 7 C-4.66 7 -5.32 7 -6 7 C-6.33 7.66 -6.66 8.32 -7 9 C-6.875 6.75 -6.875 6.75 -6 4 C-2.9375 1.6875 -2.9375 1.6875 0 0 Z " fill="#F3DA5C" transform="translate(84,22)"/>
<path d="M0 0 C1.66666667 0 3.33333333 0 5 0 C4.649375 0.61875 4.29875 1.2375 3.9375 1.875 C3.628125 2.57625 3.31875 3.2775 3 4 C3.33 4.66 3.66 5.32 4 6 C3.01 6.33 2.02 6.66 1 7 C0 6 0 6 -0.0625 2.9375 C-0.041875 1.968125 -0.02125 0.99875 0 0 Z " fill="#BDDC29" transform="translate(80,57)"/>
<path d="M0 0 C0.66 0 1.32 0 2 0 C1.44271087 3.34373475 0.64826111 6.03312999 -1 9 C-2.1875 7.3125 -2.1875 7.3125 -3 5 C-1.75 2.25 -1.75 2.25 0 0 Z " fill="#332A1A" transform="translate(76,25)"/>
<path d="M0 0 C1.670625 0.061875 1.670625 0.061875 3.375 0.125 C3.375 0.455 3.375 0.785 3.375 1.125 C2.42625 1.351875 1.4775 1.57875 0.5 1.8125 C-2.81823388 2.81583714 -2.81823388 2.81583714 -4 5.75 C-4.20625 6.53375 -4.4125 7.3175 -4.625 8.125 C-4.955 8.125 -5.285 8.125 -5.625 8.125 C-5.75 5.25 -5.75 5.25 -5.625 2.125 C-3.625 0.125 -3.625 0.125 0 0 Z " fill="#DFC983" transform="translate(33.625,54.875)"/>
<path d="M0 0 C2.64 0 5.28 0 8 0 C7.67 0.66 7.34 1.32 7 2 C5.68 1.67 4.36 1.34 3 1 C3 1.66 3 2.32 3 3 C2.01 3.33 1.02 3.66 0 4 C0 2.68 0 1.36 0 0 Z " fill="#1B181A" transform="translate(87,49)"/>
<path d="M0 0 C0.33 0.99 0.66 1.98 1 3 C0.01 3.33 -0.98 3.66 -2 4 C-2 4.66 -2 5.32 -2 6 C-4.31 6.33 -6.62 6.66 -9 7 C-8.01 6.34 -7.02 5.68 -6 5 C-3.96864317 3.36898357 -1.99068127 1.68101974 0 0 Z " fill="#4D2005" transform="translate(102,41)"/>
<path d="M0 0 C0 1.65 0 3.3 0 5 C-1.65 5 -3.3 5 -5 5 C-2.74193548 0 -2.74193548 0 0 0 Z " fill="#FC8311" transform="translate(39,72)"/>
<path d="M0 0 C1.98 0 3.96 0 6 0 C5.01 1.485 5.01 1.485 4 3 C3.01 3 2.02 3 1 3 C0.67 3.99 0.34 4.98 0 6 C0 4.02 0 2.04 0 0 Z " fill="#A8D52A" transform="translate(80,63)"/>
<path d="M0 0 C1.32 0.66 2.64 1.32 4 2 C3.01 2.33 2.02 2.66 1 3 C0.67 3.99 0.34 4.98 0 6 C-0.99 5.34 -1.98 4.68 -3 4 C-2.01 2.68 -1.02 1.36 0 0 Z " fill="#B0DA1A" transform="translate(85,57)"/>
<path d="" fill="#000000" transform="translate(0,0)"/>
<path d="" fill="#000000" transform="translate(0,0)"/>
<path d="" fill="#000000" transform="translate(0,0)"/>
<path d="" fill="#000000" transform="translate(0,0)"/>
<path d="" fill="#000000" transform="translate(0,0)"/>
<path d="" fill="#000000" transform="translate(0,0)"/>
<path d="" fill="#000000" transform="translate(0,0)"/>
<path d="" fill="#000000" transform="translate(0,0)"/>
<path d="" fill="#000000" transform="translate(0,0)"/>
<path d="" fill="#000000" transform="translate(0,0)"/>
<path d="" fill="#000000" transform="translate(0,0)"/>
<path d="" fill="#000000" transform="translate(0,0)"/>
<path d="" fill="#000000" transform="translate(0,0)"/>
<path d="" fill="#000000" transform="translate(0,0)"/>
<path d="" fill="#000000" transform="translate(0,0)"/>
<path d="" fill="#000000" transform="translate(0,0)"/>
<path d="" fill="#000000" transform="translate(0,0)"/>
<path d="" fill="#000000" transform="translate(0,0)"/>
<path d="" fill="#000000" transform="translate(0,0)"/>
<path d="" fill="#000000" transform="translate(0,0)"/>
<path d="" fill="#000000" transform="translate(0,0)"/>
<path d="" fill="#000000" transform="translate(0,0)"/>
<path d="" fill="#000000" transform="translate(0,0)"/>
<path d="" fill="#000000" transform="translate(0,0)"/>
<path d="" fill="#000000" transform="translate(0,0)"/>
<path d="" fill="#000000" transform="translate(0,0)"/>
<path d="" fill="#000000" transform="translate(0,0)"/>
<path d="" fill="#000000" transform="translate(0,0)"/>
<path d="" fill="#000000" transform="translate(0,0)"/>
<path d="" fill="#000000" transform="translate(0,0)"/>
<path d="" fill="#000000" transform="translate(0,0)"/>
<path d="" fill="#000000" transform="translate(0,0)"/>
<path d="" fill="#000000" transform="translate(0,0)"/>
<path d="" fill="#000000" transform="translate(0,0)"/>
<path d="" fill="#000000" transform="translate(0,0)"/>
<path d="" fill="#000000" transform="translate(0,0)"/>
<path d="" fill="#000000" transform="translate(0,0)"/>
<path d="" fill="#000000" transform="translate(0,0)"/>
</svg>
