<?xml version="1.0" encoding="UTF-8"?>
<svg version="1.1" xmlns="http://www.w3.org/2000/svg" width="141" height="125">
<path d="M0 0 C1.60163498 0.02474396 1.60163498 0.02474396 3.23562622 0.04998779 C5.4761499 0.08726458 7.71662183 0.12778013 9.95703125 0.17138672 C13.39316992 0.23456544 16.82915533 0.27574087 20.265625 0.31640625 C22.44794121 0.35542156 24.63023459 0.3957399 26.8125 0.4375 C27.84059784 0.44702698 28.86869568 0.45655396 29.927948 0.46636963 C30.87968903 0.48939148 31.83143005 0.51241333 32.81201172 0.53613281 C34.06701981 0.55731171 34.06701981 0.55731171 35.34738159 0.57891846 C37.99057419 1.07497678 38.85539211 1.90489158 40.5078125 3.984375 C42.22583632 7.42042265 41.6274743 11.36876396 41.60546875 15.1484375 C41.6040538 16.05564545 41.60263885 16.96285339 41.60118103 17.89755249 C41.59557346 20.80152655 41.58301968 23.70542415 41.5703125 26.609375 C41.56529848 28.57551972 41.5607354 30.54166565 41.55664062 32.5078125 C41.54560156 37.3333629 41.52833185 42.15885597 41.5078125 46.984375 C42.43972412 46.49759277 43.37163574 46.01081055 44.33178711 45.50927734 C49.07113991 43.23377595 53.3512757 43.40180443 58.5078125 43.984375 C62.23849806 45.53882732 64.61929929 47.39619989 66.5078125 50.984375 C68.68863603 57.90996325 66.72413746 62.89641804 63.734375 69.28515625 C62.24707372 72.53325804 62.24707372 72.53325804 61.5078125 75.984375 C63.35945286 78.73694294 63.35945286 78.73694294 65.5078125 80.984375 C67.1578125 80.654375 68.8078125 80.324375 70.5078125 79.984375 C71.9928125 81.964375 71.9928125 81.964375 73.5078125 83.984375 C74.1265625 83.489375 74.7453125 82.994375 75.3828125 82.484375 C77.5078125 80.984375 77.5078125 80.984375 79.5078125 80.984375 C80.1328125 82.796875 80.1328125 82.796875 80.5078125 84.984375 C79.8478125 85.974375 79.1878125 86.964375 78.5078125 87.984375 C77.8684375 88.0875 77.2290625 88.190625 76.5703125 88.296875 C75.8896875 88.52375 75.2090625 88.750625 74.5078125 88.984375 C74.0540625 89.933125 73.6003125 90.881875 73.1328125 91.859375 C71.12784406 95.71508354 69.42661992 96.30488611 65.5078125 97.984375 C64.8478125 98.54125 64.1878125 99.098125 63.5078125 99.671875 C60.7243451 101.49852548 58.78360539 101.25178666 55.5078125 100.984375 C54.2084375 100.675 54.2084375 100.675 52.8828125 100.359375 C50.52198224 99.75025124 50.52198224 99.75025124 48.640625 100.921875 C46.32545635 102.07521909 44.57097789 102.37236998 42.0078125 102.609375 C41.255 102.68414062 40.5021875 102.75890625 39.7265625 102.8359375 C37.65768018 102.97434864 35.5813196 102.984375 33.5078125 102.984375 C32.5078125 101.984375 32.5078125 101.984375 32.3828125 98.734375 C32.48568043 95.64833711 32.78399217 92.97013386 33.5078125 89.984375 C32.8478125 89.984375 32.1878125 89.984375 31.5078125 89.984375 C31.5078125 93.614375 31.5078125 97.244375 31.5078125 100.984375 C27.77711967 100.23823643 24.93376643 99.45264097 21.5078125 97.984375 C21.0128125 99.469375 21.0128125 99.469375 20.5078125 100.984375 C13.23186437 102.69312039 7.42659986 100.25998945 0.5078125 97.984375 C-0.39839844 97.69433594 -1.30460937 97.40429688 -2.23828125 97.10546875 C-16.22075113 92.1165235 -27.94897833 80.91493497 -34.85546875 67.94921875 C-35.62356498 65.5789586 -35.29380793 64.30648838 -34.4921875 61.984375 C-34.07066406 62.69464844 -33.64914063 63.40492187 -33.21484375 64.13671875 C-32.39306641 65.51537109 -32.39306641 65.51537109 -31.5546875 66.921875 C-31.00941406 67.83839844 -30.46414062 68.75492187 -29.90234375 69.69921875 C-28.68486577 71.86850177 -28.68486577 71.86850177 -27.4921875 72.984375 C-26.43042175 69.53512807 -26.39534447 66.40800957 -26.44213867 62.81054688 C-26.45512497 61.56245239 -26.46811127 60.31435791 -26.48149109 59.02844238 C-26.49047613 58.36445938 -26.49946117 57.70047638 -26.50871849 57.01637268 C-26.53543398 54.93145023 -26.55325433 52.84663501 -26.56819153 50.76159668 C-26.61087294 44.83517153 -26.65870355 38.90895994 -26.73901367 32.98291016 C-26.78754949 29.35380191 -26.81653318 25.72498681 -26.83275795 22.09559631 C-26.84265074 20.71445088 -26.85985401 19.33333752 -26.88454247 17.95237732 C-26.91830875 16.02122056 -26.92495748 14.08964734 -26.93041992 12.15820312 C-26.94231857 11.05996216 -26.95421722 9.96172119 -26.96647644 8.8302002 C-26.37988213 5.31052113 -25.24005324 4.18076464 -22.4921875 1.984375 C-16.08532485 -1.21905632 -6.99407241 -0.12132737 0 0 Z M42.5078125 71.984375 C42.1778125 74.294375 41.8478125 76.604375 41.5078125 78.984375 C42.8278125 78.324375 44.1478125 77.664375 45.5078125 76.984375 C44.8478125 75.334375 44.1878125 73.684375 43.5078125 71.984375 C43.1778125 71.984375 42.8478125 71.984375 42.5078125 71.984375 Z M-18.4921875 81.984375 C-18.4921875 82.644375 -18.4921875 83.304375 -18.4921875 83.984375 C-10.32945008 91.00571269 1.14519242 95.42381066 11.9765625 94.77734375 C14.55488059 94.31550584 17.01023904 93.76751244 19.5078125 92.984375 C19.8378125 90.344375 20.1678125 87.704375 20.5078125 84.984375 C15.33949236 81.53882824 9.54417386 81.85976895 3.48046875 81.88671875 C1.55170898 81.89155273 1.55170898 81.89155273 -0.41601562 81.89648438 C-1.75390695 81.90483698 -3.09179757 81.91330189 -4.4296875 81.921875 C-5.79492024 81.92689841 -7.16015476 81.93145983 -8.52539062 81.93554688 C-11.84770207 81.94728649 -15.16992158 81.96370821 -18.4921875 81.984375 Z M39.5078125 81.984375 C39.5078125 83.634375 39.5078125 85.284375 39.5078125 86.984375 C39.8378125 86.984375 40.1678125 86.984375 40.5078125 86.984375 C40.5078125 85.334375 40.5078125 83.684375 40.5078125 81.984375 C40.1778125 81.984375 39.8478125 81.984375 39.5078125 81.984375 Z " fill="#242423" transform="translate(44.4921875,15.015625)"/>
<path d="M0 0 C1.60163498 0.02474396 1.60163498 0.02474396 3.23562622 0.04998779 C5.4761499 0.08726458 7.71662183 0.12778013 9.95703125 0.17138672 C13.39316992 0.23456544 16.82915533 0.27574087 20.265625 0.31640625 C22.44794121 0.35542156 24.63023459 0.3957399 26.8125 0.4375 C27.84059784 0.44702698 28.86869568 0.45655396 29.927948 0.46636963 C30.87968903 0.48939148 31.83143005 0.51241333 32.81201172 0.53613281 C33.64868378 0.55025208 34.48535583 0.56437134 35.34738159 0.57891846 C37.99057419 1.07497678 38.85539211 1.90489158 40.5078125 3.984375 C42.22583632 7.42042265 41.6274743 11.36876396 41.60546875 15.1484375 C41.6040538 16.05564545 41.60263885 16.96285339 41.60118103 17.89755249 C41.59557346 20.80152655 41.58301968 23.70542415 41.5703125 26.609375 C41.56529848 28.57551972 41.5607354 30.54166565 41.55664062 32.5078125 C41.54560156 37.3333629 41.52833185 42.15885597 41.5078125 46.984375 C42.43972412 46.49759277 43.37163574 46.01081055 44.33178711 45.50927734 C49.07113991 43.23377595 53.3512757 43.40180443 58.5078125 43.984375 C62.21037664 45.52711006 64.66387774 47.39355467 66.5078125 50.984375 C66.80403671 53.7419531 66.69099905 56.19078007 66.5078125 58.984375 C65.5078125 59.984375 65.5078125 59.984375 62.73217773 60.09790039 C61.52247314 60.09266357 60.31276855 60.08742676 59.06640625 60.08203125 C57.76123047 60.07880859 56.45605469 60.07558594 55.11132812 60.07226562 C53.7226556 60.06390901 52.33398373 60.05544405 50.9453125 60.046875 C49.55273594 60.04186166 48.16015769 60.03729847 46.76757812 60.03320312 C43.3476138 60.02136934 39.92773406 60.0048838 36.5078125 59.984375 C35.61596023 55.24917233 35.79308902 51.75084122 36.5078125 46.984375 C36.63162883 43.50422685 36.6028995 40.0286702 36.5703125 36.546875 C36.56580078 35.62455078 36.56128906 34.70222656 36.55664062 33.75195312 C36.54495188 31.49602452 36.52856705 29.24023533 36.5078125 26.984375 C35.5178125 26.984375 34.5278125 26.984375 33.5078125 26.984375 C34.1678125 23.684375 34.8278125 20.384375 35.5078125 16.984375 C34.5178125 17.314375 33.5278125 17.644375 32.5078125 17.984375 C32.1778125 19.304375 31.8478125 20.624375 31.5078125 21.984375 C22.2678125 21.984375 13.0278125 21.984375 3.5078125 21.984375 C3.5078125 22.644375 3.5078125 23.304375 3.5078125 23.984375 C12.7478125 23.984375 21.9878125 23.984375 31.5078125 23.984375 C31.5078125 24.974375 31.5078125 25.964375 31.5078125 26.984375 C22.9278125 27.314375 14.3478125 27.644375 5.5078125 27.984375 C12.4378125 28.479375 12.4378125 28.479375 19.5078125 28.984375 C19.5078125 29.644375 19.5078125 30.304375 19.5078125 30.984375 C20.4978125 31.314375 21.4878125 31.644375 22.5078125 31.984375 C22.0128125 32.974375 22.0128125 32.974375 21.5078125 33.984375 C22.43013672 33.93216797 22.43013672 33.93216797 23.37109375 33.87890625 C24.17933594 33.85183594 24.98757812 33.82476562 25.8203125 33.796875 C27.02107422 33.74466797 27.02107422 33.74466797 28.24609375 33.69140625 C30.5078125 33.984375 30.5078125 33.984375 32.31640625 35.23828125 C33.83868449 37.4692923 33.70410447 38.48013319 33.2578125 41.109375 C32.5078125 44.984375 32.5078125 44.984375 31.5078125 45.984375 C29.80217472 46.14178105 28.09054006 46.23530892 26.37890625 46.30078125 C25.34443359 46.34267578 24.30996094 46.38457031 23.24414062 46.42773438 C22.15552734 46.46705078 21.06691406 46.50636719 19.9453125 46.546875 C18.3065918 46.61165039 18.3065918 46.61165039 16.63476562 46.67773438 C13.92591686 46.78419568 11.21697258 46.88621016 8.5078125 46.984375 C8.1778125 47.974375 7.8478125 48.964375 7.5078125 49.984375 C6.5178125 50.479375 6.5178125 50.479375 5.5078125 50.984375 C18.3778125 51.479375 18.3778125 51.479375 31.5078125 51.984375 C31.5078125 54.954375 31.5078125 57.924375 31.5078125 60.984375 C21.9378125 60.984375 12.3678125 60.984375 2.5078125 60.984375 C2.5078125 58.674375 2.5078125 56.364375 2.5078125 53.984375 C1.8478125 53.984375 1.1878125 53.984375 0.5078125 53.984375 C0.5078125 54.644375 0.5078125 55.304375 0.5078125 55.984375 C-1.45940758 57.36561463 -3.46087078 58.69925626 -5.4921875 59.984375 C-5.8221875 60.314375 -6.1521875 60.644375 -6.4921875 60.984375 C-8.01146788 61.05617464 -9.53386232 61.06829507 -11.0546875 61.046875 C-11.88097656 61.03785156 -12.70726562 61.02882812 -13.55859375 61.01953125 C-14.19667969 61.00792969 -14.83476562 60.99632812 -15.4921875 60.984375 C-16.4821875 57.519375 -16.4821875 57.519375 -17.4921875 53.984375 C-15.4921875 52.984375 -13.4921875 51.984375 -11.4921875 50.984375 C-10.35868216 48.96767673 -10.35868216 48.96767673 -9.4921875 46.984375 C-7.1821875 46.984375 -4.8721875 46.984375 -2.4921875 46.984375 C-1.8321875 45.664375 -1.1721875 44.344375 -0.4921875 42.984375 C0.1678125 42.984375 0.8278125 42.984375 1.5078125 42.984375 C0.8478125 41.664375 0.1878125 40.344375 -0.4921875 38.984375 C-3.86307017 41.25852787 -3.86307017 41.25852787 -5.4921875 44.984375 C-8.9571875 45.479375 -8.9571875 45.479375 -12.4921875 45.984375 C-12.8221875 44.664375 -13.1521875 43.344375 -13.4921875 41.984375 C-14.8121875 41.984375 -16.1321875 41.984375 -17.4921875 41.984375 C-17.4921875 40.334375 -17.4921875 38.684375 -17.4921875 36.984375 C-14.72954461 36.38704681 -12.33185981 35.984375 -9.4921875 35.984375 C-9.95238281 35.58605469 -10.41257812 35.18773437 -10.88671875 34.77734375 C-12.7596197 32.68570984 -13.36608052 30.97015508 -14.1796875 28.296875 C-14.55673828 27.08451172 -14.55673828 27.08451172 -14.94140625 25.84765625 C-15.12316406 25.23277344 -15.30492187 24.61789063 -15.4921875 23.984375 C-15.4921875 24.644375 -15.4921875 25.304375 -15.4921875 25.984375 C-16.8121875 26.314375 -18.1321875 26.644375 -19.4921875 26.984375 C-19.61335938 28.10457031 -19.73453125 29.22476563 -19.859375 30.37890625 C-20.02822017 31.85161136 -20.19751447 33.32426504 -20.3671875 34.796875 C-20.44582031 35.53486328 -20.52445313 36.27285156 -20.60546875 37.03320312 C-21.03679036 40.69943681 -21.4118658 42.86389245 -23.4921875 45.984375 C-23.94358209 48.0335844 -23.94358209 48.0335844 -24.1171875 50.171875 C-24.2409375 51.43 -24.3646875 52.688125 -24.4921875 53.984375 C-24.8221875 53.984375 -25.1521875 53.984375 -25.4921875 53.984375 C-26.29650434 43.38462814 -26.66738726 32.77216776 -26.77929688 22.14361572 C-26.79619075 20.79011613 -26.82008967 19.43668541 -26.85107422 18.08343506 C-26.89312821 16.1575159 -26.9060517 14.23102888 -26.91796875 12.3046875 C-26.93255127 11.18336426 -26.94713379 10.06204102 -26.9621582 8.90673828 C-26.38664342 5.32808273 -25.28935414 4.20713802 -22.4921875 1.984375 C-16.08532485 -1.21905632 -6.99407241 -0.12132737 0 0 Z " fill="#3A3838" transform="translate(44.4921875,15.015625)"/>
<path d="M0 0 C0.33 1.32 0.66 2.64 1 4 C1.99 4 2.98 4 4 4 C4.33 2.68 4.66 1.36 5 0 C5 1.65 5 3.3 5 5 C14.24 5 23.48 5 33 5 C33 5.99 33 6.98 33 8 C24.42 8.33 15.84 8.66 7 9 C13.93 9.495 13.93 9.495 21 10 C21 10.66 21 11.32 21 12 C21.99 12.33 22.98 12.66 24 13 C23.67 13.66 23.34 14.32 23 15 C23.61488281 14.96519531 24.22976562 14.93039063 24.86328125 14.89453125 C26.07564453 14.85392578 26.07564453 14.85392578 27.3125 14.8125 C28.51326172 14.76029297 28.51326172 14.76029297 29.73828125 14.70703125 C32 15 32 15 33.80859375 16.25390625 C35.33087199 18.4849173 35.19629197 19.49575819 34.75 22.125 C34 26 34 26 33 27 C31.29436222 27.15740605 29.58272756 27.25093392 27.87109375 27.31640625 C26.83662109 27.35830078 25.80214844 27.40019531 24.73632812 27.44335938 C23.64771484 27.48267578 22.55910156 27.52199219 21.4375 27.5625 C19.7987793 27.62727539 19.7987793 27.62727539 18.12695312 27.69335938 C15.41810436 27.79982068 12.70916008 27.90183516 10 28 C9.67 28.99 9.34 29.98 9 31 C8.34 31.33 7.68 31.66 7 32 C19.87 32.495 19.87 32.495 33 33 C33 35.97 33 38.94 33 42 C23.43 42 13.86 42 4 42 C4 39.69 4 37.38 4 35 C3.34 35 2.68 35 2 35 C2 35.66 2 36.32 2 37 C0.03277992 38.38123963 -1.96868328 39.71488126 -4 41 C-4.495 41.495 -4.495 41.495 -5 42 C-6.51928038 42.07179964 -8.04167482 42.08392007 -9.5625 42.0625 C-10.38878906 42.05347656 -11.21507812 42.04445312 -12.06640625 42.03515625 C-12.70449219 42.02355469 -13.34257812 42.01195312 -14 42 C-14.99 38.535 -14.99 38.535 -16 35 C-14 34 -12 33 -10 32 C-8.86649466 29.98330173 -8.86649466 29.98330173 -8 28 C-5.69 28 -3.38 28 -1 28 C-0.34 26.68 0.32 25.36 1 24 C1.66 24 2.32 24 3 24 C2.34 22.68 1.68 21.36 1 20 C-2.37088267 22.27415287 -2.37088267 22.27415287 -4 26 C-6.31 26.33 -8.62 26.66 -11 27 C-11.33 25.68 -11.66 24.36 -12 23 C-13.32 23 -14.64 23 -16 23 C-16 21.35 -16 19.7 -16 18 C-13.23735711 17.40267181 -10.83967231 17 -8 17 C-8.7115625 16.4740625 -8.7115625 16.4740625 -9.4375 15.9375 C-11.67873825 13.15836457 -11.67117658 10.4855283 -12 7 C-11.278125 7.103125 -10.55625 7.20625 -9.8125 7.3125 C-5.88801947 6.87644661 -4.61343531 4.82533547 -2 2 C-1.34 2 -0.68 2 0 2 C0 1.34 0 0.68 0 0 Z " fill="#30322B" transform="translate(43,34)"/>
<path d="M0 0 C1.32 0 2.64 0 4 0 C4.17942163 3.94727588 4.09350689 6.5980513 2 10 C2.99 10 3.98 10 5 10 C5.94043777 12.82131331 6.12864329 14.57075934 6.1328125 17.4921875 C6.13474609 18.79736328 6.13474609 18.79736328 6.13671875 20.12890625 C6.13285156 21.03511719 6.12898438 21.94132812 6.125 22.875 C6.13080078 24.22271484 6.13080078 24.22271484 6.13671875 25.59765625 C6.13037926 29.88949084 5.95325119 33.79949475 5 38 C5.02780225 39.3345078 5.08820431 40.66890106 5.1875 42 C5.24364821 45.3002673 5.01627218 45.97450691 3.125 48.9375 C0.20774733 51.76895113 -1.33171167 52.12778802 -5.27856445 52.19287109 C-6.16320877 52.20893402 -7.04785309 52.22499695 -7.95930481 52.24154663 C-12.00696052 52.28599715 -16.05445222 52.32706141 -20.10229492 52.35009766 C-22.23717143 52.36665841 -24.37199246 52.39394988 -26.5065918 52.43212891 C-29.5841143 52.48689333 -32.66033711 52.50877113 -35.73828125 52.5234375 C-36.69052078 52.54610687 -37.64276031 52.56877625 -38.62385559 52.59213257 C-46.01524904 52.56857176 -46.01524904 52.56857176 -49.14135742 49.46728516 C-49.75470947 48.65308105 -50.36806152 47.83887695 -51 47 C-47.67465243 45.89155081 -45.37817425 46.15545644 -42 47 C-42.66 46.01 -43.32 45.02 -44 44 C-42.9275 43.731875 -41.855 43.46375 -40.75 43.1875 C-37.39059522 42.12368849 -35.65868412 41.16633521 -33 39 C-32.34 39 -31.68 39 -31 39 C-31 38.34 -31 37.68 -31 37 C-30.34 37 -29.68 37 -29 37 C-29 39.31 -29 41.62 -29 44 C-19.43 44 -9.86 44 0 44 C0 41.03 0 38.06 0 35 C-9.24 35 -18.48 35 -28 35 C-26.68 34.34 -25.36 33.68 -24 33 C-24 31.68 -24 30.36 -24 29 C-16.08 28.67 -8.16 28.34 0 28 C0.33 24.7 0.66 21.4 1 18 C-2.63 17.67 -6.26 17.34 -10 17 C-10 16.34 -10 15.68 -10 15 C-10.66 14.67 -11.32 14.34 -12 14 C-12 13.34 -12 12.68 -12 12 C-12.98742188 12.02320313 -13.97484375 12.04640625 -14.9921875 12.0703125 C-16.27351563 12.08835937 -17.55484375 12.10640625 -18.875 12.125 C-20.78925781 12.15980469 -20.78925781 12.15980469 -22.7421875 12.1953125 C-26 12 -26 12 -28 10 C-18.76 10 -9.52 10 0 10 C0 9.01 0 8.02 0 7 C-9.24 7 -18.48 7 -28 7 C-28 6.34 -28 5.68 -28 5 C-18.76 5 -9.52 5 0 5 C0 3.35 0 1.7 0 0 Z " fill="#232220" transform="translate(76,32)"/>
<path d="M0 0 C3.3125 0.25 3.3125 0.25 7 1 C7.474375 1.680625 7.94875 2.36125 8.4375 3.0625 C9.99735566 5.45380523 9.99735566 5.45380523 13.875 5.5 C17.95864855 5.31917423 20.09074812 3.90925188 23 1 C23.556875 1.350625 24.11375 1.70125 24.6875 2.0625 C27.53886783 3.21845993 29.08517222 2.80967438 32 2 C32.99 3.32 33.98 4.64 35 6 C35.61875 5.505 36.2375 5.01 36.875 4.5 C39 3 39 3 41 3 C41.625 4.8125 41.625 4.8125 42 7 C41.34 7.99 40.68 8.98 40 10 C39.360625 10.103125 38.72125 10.20625 38.0625 10.3125 C37.381875 10.539375 36.70125 10.76625 36 11 C35.54625 11.94875 35.0925 12.8975 34.625 13.875 C32.62003156 17.73070854 30.91880742 18.32051111 27 20 C26.34 20.556875 25.68 21.11375 25 21.6875 C22.2165326 23.51415048 20.27579289 23.26741166 17 23 C15.700625 22.690625 15.700625 22.690625 14.375 22.375 C12.01416974 21.76587624 12.01416974 21.76587624 10.1328125 22.9375 C7.81764385 24.09084409 6.06316539 24.38799498 3.5 24.625 C2.7471875 24.69976562 1.994375 24.77453125 1.21875 24.8515625 C-0.85013232 24.98997364 -2.9264929 25 -5 25 C-4.67 18.07 -4.34 11.14 -4 4 C-2.68 3.34 -1.36 2.68 0 2 C0 1.34 0 0.68 0 0 Z M1 4 C1 5.65 1 7.3 1 9 C1.33 9 1.66 9 2 9 C2 7.35 2 5.7 2 4 C1.67 4 1.34 4 1 4 Z " fill="#302C20" transform="translate(83,93)"/>
<path d="M0 0 C2.31 0.66 4.62 1.32 7 2 C6 5 6 5 4 6 C16.87 6.495 16.87 6.495 30 7 C30 9.97 30 12.94 30 16 C20.43 16 10.86 16 1 16 C1 13.69 1 11.38 1 9 C0.34 9 -0.32 9 -1 9 C-1 9.66 -1 10.32 -1 11 C-2.96722008 12.38123963 -4.96868328 13.71488126 -7 15 C-7.33 15.33 -7.66 15.66 -8 16 C-9.51928038 16.07179964 -11.04167482 16.08392007 -12.5625 16.0625 C-13.38878906 16.05347656 -14.21507812 16.04445313 -15.06640625 16.03515625 C-16.02353516 16.01775391 -16.02353516 16.01775391 -17 16 C-17.66 13.69 -18.32 11.38 -19 9 C-17 8 -15 7 -13 6 C-12.73316406 5.33355469 -12.46632813 4.66710937 -12.19140625 3.98046875 C-11.79824219 3.32691406 -11.40507813 2.67335937 -11 2 C-8.65234375 1.42578125 -8.65234375 1.42578125 -5.9375 1.3125 C-2.66194849 1.41903541 -2.66194849 1.41903541 0 0 Z " fill="#432C18" transform="translate(46,60)"/>
<path d="M0 0 C0.66 0 1.32 0 2 0 C3.60086627 3.20173254 3.49917089 6.52577059 3 10 C1.20636089 12.8100346 -0.01880935 14.50940468 -3 16 C-4.42304953 16.11435007 -5.85112204 16.16933276 -7.27856445 16.19287109 C-8.16320877 16.20893402 -9.04785309 16.22499695 -9.95930481 16.24154663 C-14.00696052 16.28599715 -18.05445222 16.32706141 -22.10229492 16.35009766 C-24.23717143 16.36665841 -26.37199246 16.39394988 -28.5065918 16.43212891 C-31.5841143 16.48689333 -34.66033711 16.50877113 -37.73828125 16.5234375 C-38.69052078 16.54610687 -39.64276031 16.56877625 -40.62385559 16.59213257 C-48.01524904 16.56857176 -48.01524904 16.56857176 -51.14135742 13.46728516 C-51.75470947 12.65308105 -52.36806152 11.83887695 -53 11 C-49.67465243 9.89155081 -47.37817425 10.15545644 -44 11 C-44.66 10.01 -45.32 9.02 -46 8 C-44.9275 7.731875 -43.855 7.46375 -42.75 7.1875 C-39.39059522 6.12368849 -37.65868412 5.16633521 -35 3 C-34.34 3 -33.68 3 -33 3 C-33 2.34 -33 1.68 -33 1 C-32.34 1 -31.68 1 -31 1 C-31 3.31 -31 5.62 -31 8 C-21.1 8 -11.2 8 -1 8 C-1 5.69 -1 3.38 -1 1 C-0.67 0.67 -0.34 0.34 0 0 Z " fill="#1C1B1D" transform="translate(78,68)"/>
<path d="M0 0 C3.06753711 3.98779825 5.9485135 8.08820637 8.375 12.5 C15.03737006 22.74980009 27.52683407 28.6662956 39.1875 31.25 C42.55823474 31.95068817 44.70849373 31.93758057 48 31 C50.33300933 30.96111651 52.66709801 30.9551365 55 31 C55 29.35 55 27.7 55 26 C55.66 26 56.32 26 57 26 C57.309375 25.360625 57.61875 24.72125 57.9375 24.0625 C59 22 59 22 60 21 C62.31 21 64.62 21 67 21 C67 26.94 67 32.88 67 39 C63.26930717 38.25386143 60.42595393 37.46826597 57 36 C56.67 36.99 56.34 37.98 56 39 C48.72405187 40.70874539 42.91878736 38.27561445 36 36 C35.09378906 35.70996094 34.18757813 35.41992188 33.25390625 35.12109375 C19.35165823 30.16077166 7.43670639 18.98283357 0.734375 5.96484375 C0 4 0 4 0 0 Z " fill="#21231C" transform="translate(9,77)"/>
<path d="M0 0 C4.43737712 -0.08690253 8.87453634 -0.14035926 13.3125 -0.1875 C14.57513672 -0.21263672 15.83777344 -0.23777344 17.13867188 -0.26367188 C18.34716797 -0.27333984 19.55566406 -0.28300781 20.80078125 -0.29296875 C21.91622314 -0.3086792 23.03166504 -0.32438965 24.1809082 -0.34057617 C27 0 27 0 28.88061523 1.39282227 C30.36430267 3.52305441 30.17888594 4.5983024 29.75 7.125 C29 11 29 11 28 12 C25.9394469 12.09993532 23.8754741 12.13080906 21.8125 12.1328125 C20.55695313 12.13410156 19.30140625 12.13539062 18.0078125 12.13671875 C17.35071289 12.13462402 16.69361328 12.1325293 16.01660156 12.13037109 C14.00838665 12.12502234 12.00039541 12.13031691 9.9921875 12.13671875 C8.73664062 12.13542969 7.48109375 12.13414063 6.1875 12.1328125 C5.02605469 12.13168457 3.86460938 12.13055664 2.66796875 12.12939453 C0 12 0 12 -1 11 C-1.14115161 8.32941149 -1.04247107 5.67567762 -1 3 C-0.67 3.66 -0.34 4.32 0 5 C9.24 5 18.48 5 28 5 C28 4.01 28 3.02 28 2 C18.76 2 9.52 2 0 2 C0 1.34 0 0.68 0 0 Z " fill="#363A0B" transform="translate(48,49)"/>
<path d="M0 0 C3 2 3 2 3.51171875 3.9453125 C3.67447917 5.96354167 3.83723958 7.98177083 4 10 C4.99 10.33 5.98 10.66 7 11 C7 11.66 7 12.32 7 13 C4.69 13.33 2.38 13.66 0 14 C-0.33 15.65 -0.66 17.3 -1 19 C0.32 18.67 1.64 18.34 3 18 C3.33 19.65 3.66 21.3 4 23 C7.465 22.505 7.465 22.505 11 22 C11.103125 21.360625 11.20625 20.72125 11.3125 20.0625 C11.539375 19.381875 11.76625 18.70125 12 18 C12.99 17.67 13.98 17.34 15 17 C15.33 16.34 15.66 15.68 16 15 C18 17 18 17 18 20 C16.4375 22.125 16.4375 22.125 14 24 C12.205625 24.2475 12.205625 24.2475 10.375 24.5 C8.704375 24.7475 8.704375 24.7475 7 25 C5.69934079 26.93383287 5.69934079 26.93383287 5 29 C1.37673261 30.2077558 0.35853631 29.54311128 -3 28 C-3 25.36 -3 22.72 -3 20 C-3.33 22.64 -3.66 25.28 -4 28 C-4.33 28 -4.66 28 -5 28 C-6.03286554 21.75946977 -5.83661455 16.26023069 -5.0625 10 C-4.96259766 9.12988281 -4.86269531 8.25976562 -4.75976562 7.36328125 C-4.51491026 5.24120143 -4.25864281 3.12044354 -4 1 C-3.67 1.99 -3.34 2.98 -3 4 C-2.01 3.34 -1.02 2.68 0 2 C0 1.34 0 0.68 0 0 Z " fill="#2E2E2F" transform="translate(28,38)"/>
<path d="M0 0 C0.66 0 1.32 0 2 0 C2.37125 0.66 2.7425 1.32 3.125 2 C4.99222001 4.41659403 4.99222001 4.41659403 8.875 4.5 C12.95864855 4.31917423 15.09074812 2.90925188 18 0 C20 2 20 2 20.5 5.8125 C20.38810426 9.42607428 20.00621878 9.99234611 17.5625 13 C14.2113669 15.34261674 11.1435664 15.6574413 7.12109375 15.43359375 C3.95589587 14.78656435 2.18255512 13.31896482 0 11 C-1.62651522 7.74696956 -1.11453156 4.60774398 -1 1 C-0.67 0.67 -0.34 0.34 0 0 Z " fill="#D3A11F" transform="translate(88,94)"/>
<path d="M0 0 C0.33 0 0.66 0 1 0 C1 1.65 1 3.3 1 5 C1.99 5 2.98 5 4 5 C4.33 4.34 4.66 3.68 5 3 C5.66 3.66 6.32 4.32 7 5 C6.81361922 6.6456576 6.61119559 8.29123759 6.32421875 9.92236328 C5.72949073 13.73345925 5.66511352 17.5879089 5.5 21.4375 C4.79447526 37.80828712 4.79447526 37.80828712 2 42 C1.54860541 44.0492094 1.54860541 44.0492094 1.375 46.1875 C1.25125 47.445625 1.1275 48.70375 1 50 C0.67 50 0.34 50 0 50 C-0.85981588 38.66885496 -1.11011391 27.35978085 -1.125 16 C-1.12749756 15.32289978 -1.12999512 14.64579956 -1.13256836 13.94818115 C-1.13844766 12.00712967 -1.13579913 10.06605809 -1.1328125 8.125 C-1.13168457 6.99320313 -1.13055664 5.86140625 -1.12939453 4.6953125 C-1 2 -1 2 0 0 Z " fill="#464449" transform="translate(19,19)"/>
<path d="M0 0 C1.68216214 0.00031737 3.36434441 0.01165683 5.04638672 0.03173828 C6.37390457 0.03598312 6.37390457 0.03598312 7.72824097 0.04031372 C10.56098834 0.05152838 13.39342206 0.07663508 16.22607422 0.10205078 C18.14403841 0.11207893 20.06200755 0.12120507 21.97998047 0.12939453 C26.68713298 0.15147189 31.39405038 0.18601033 36.10107422 0.22705078 C30.34706533 3.21014867 24.62348094 4.42314682 18.21435547 4.98095703 C16.1151797 5.17151886 16.1151797 5.17151886 14.19091797 5.75048828 C11.53663202 6.3557647 9.07030804 6.32192261 6.35107422 6.28955078 C5.36623047 6.28052734 4.38138672 6.27150391 3.36669922 6.26220703 C2.61904297 6.25060547 1.87138672 6.23900391 1.10107422 6.22705078 C0.77107422 7.21705078 0.44107422 8.20705078 0.10107422 9.22705078 C-0.55892578 8.23705078 -1.21892578 7.24705078 -1.89892578 6.22705078 C-3.21892578 6.55705078 -4.53892578 6.88705078 -5.89892578 7.22705078 C-6.02392578 4.85205078 -6.02392578 4.85205078 -5.89892578 2.22705078 C-3.89892578 0.22705078 -3.89892578 0.22705078 0 0 Z " fill="#6B6971" transform="translate(25.89892578125,16.77294921875)"/>
<path d="M0 0 C3.08073848 1.3831887 4.6384567 2.6384567 7 5 C7 5.99 7 6.98 7 8 C-1.25 8 -9.5 8 -18 8 C-13.77236863 -0.45526275 -8.97646868 -0.75236298 0 0 Z " fill="#C8BA73" transform="translate(103,59)"/>
<path d="M0 0 C8.91 0 17.82 0 27 0 C27 1.65 27 3.3 27 5 C26 6 26 6 23.49975586 6.11352539 C22.41573486 6.10828857 21.33171387 6.10305176 20.21484375 6.09765625 C19.04501953 6.09443359 17.87519531 6.09121094 16.66992188 6.08789062 C14.82237305 6.07532227 14.82237305 6.07532227 12.9375 6.0625 C11.08415039 6.05573242 11.08415039 6.05573242 9.19335938 6.04882812 C6.12885883 6.03699608 3.06445279 6.02051173 0 6 C0 4.02 0 2.04 0 0 Z " fill="#F4AC1E" transform="translate(84,69)"/>
<path d="M0 0 C5.75 -0.125 5.75 -0.125 8 1 C9.66619446 1.0396713 11.33391013 1.04384447 13 1 C13 5.66666667 13 10.33333333 13 15 C10.69 14.67 8.38 14.34 6 14 C6 13.34 6 12.68 6 12 C5.01 11.67 4.02 11.34 3 11 C0.97467883 7.02436956 0 4.4949298 0 0 Z " fill="#404040" transform="translate(85,77)"/>
<path d="M0 0 C1.65 0.33 3.3 0.66 5 1 C4.96519531 1.90492187 4.96519531 1.90492187 4.9296875 2.828125 C4.91164063 3.62734375 4.89359375 4.4265625 4.875 5.25 C4.84019531 6.43335937 4.84019531 6.43335937 4.8046875 7.640625 C5.0171622 10.20731941 5.71345895 11.7916067 7 14 C5.02 14 3.04 14 1 14 C0.690625 15.27875 0.38125 16.5575 0.0625 17.875 C-0.47605244 20.10101675 -0.9737 21.94739999 -2 24 C-2.99 24 -3.98 24 -5 24 C-4.67 17.4 -4.34 10.8 -4 4 C-2.68 3.34 -1.36 2.68 0 2 C0 1.34 0 0.68 0 0 Z M1 4 C1 5.65 1 7.3 1 9 C1.33 9 1.66 9 2 9 C2 7.35 2 5.7 2 4 C1.67 4 1.34 4 1 4 Z " fill="#4B4525" transform="translate(83,93)"/>
<path d="M0 0 C1.875 0.3125 1.875 0.3125 4 1 C4.66 1.99 5.32 2.98 6 4 C6.61875 3.505 7.2375 3.01 7.875 2.5 C10 1 10 1 12 1 C12.625 2.8125 12.625 2.8125 13 5 C12.01 6.485 12.01 6.485 11 8 C10.360625 8.103125 9.72125 8.20625 9.0625 8.3125 C8.381875 8.539375 7.70125 8.76625 7 9 C6.54625 9.94875 6.0925 10.8975 5.625 11.875 C3.62374924 15.72355915 1.98001187 16.45673009 -2 18 C-3.32948445 18.34836758 -4.66220397 18.6850545 -6 19 C-5.566875 18.55011719 -5.13375 18.10023437 -4.6875 17.63671875 C-0.21980028 12.4761119 0.59770894 8.90270906 0.2109375 2.125 C0.14132813 1.42375 0.07171875 0.7225 0 0 Z " fill="#574B1B" transform="translate(112,95)"/>
<path d="M0 0 C1.32 0 2.64 0 4 0 C4.21278058 4.46839215 3.59138085 7.82262526 2 12 C0.02 12.33 -1.96 12.66 -4 13 C-4 12.34 -4 11.68 -4 11 C-11.92 11 -19.84 11 -28 11 C-28 10.67 -28 10.34 -28 10 C-18.76 10 -9.52 10 0 10 C0 9.01 0 8.02 0 7 C-9.24 7 -18.48 7 -28 7 C-28 6.34 -28 5.68 -28 5 C-18.76 5 -9.52 5 0 5 C0 3.35 0 1.7 0 0 Z " fill="#294A0D" transform="translate(76,32)"/>
<path d="M0 0 C1.0725 0.103125 2.145 0.20625 3.25 0.3125 C3.29241723 2.64544775 3.29092937 4.97952567 3.25 7.3125 C2.92 7.6425 2.59 7.9725 2.25 8.3125 C2.01924918 9.65997084 1.83846937 11.01627565 1.6875 12.375 C1.543125 13.674375 1.39875 14.97375 1.25 16.3125 C-1.72 14.6625 -4.69 13.0125 -7.75 11.3125 C-8.08975517 7.66013197 -7.95830209 5.69577585 -6.1875 2.4375 C-3.75 0.3125 -3.75 0.3125 0 0 Z " fill="#F6C328" transform="translate(72.75,97.6875)"/>
<path d="M0 0 C2.39614575 0.14165893 4.79182897 0.28818841 7.1875 0.4375 C7.86103516 0.47681641 8.53457031 0.51613281 9.22851562 0.55664062 C16.55906668 1.02150484 16.55906668 1.02150484 20 2 C20.33 2.66 20.66 3.32 21 4 C21.66 2.68 22.32 1.36 23 0 C23.33 0 23.66 0 24 0 C24 1.98 24 3.96 24 6 C23.01 6 22.02 6 21 6 C21 6.66 21 7.32 21 8 C20.34 8 19.68 8 19 8 C19.12375 9.1446875 19.12375 9.1446875 19.25 10.3125 C19 13 19 13 17 14.8125 C16.34 15.204375 15.68 15.59625 15 16 C12.48916886 14.74458443 12.12874554 13.49936512 11 11 C11.33 10.67 11.66 10.34 12 10 C12.23075082 8.65252916 12.41153063 7.29622435 12.5625 5.9375 C12.706875 4.638125 12.85125 3.33875 13 2 C11.35 2 9.7 2 8 2 C7.67 2.66 7.34 3.32 7 4 C6.67 3.34 6.34 2.68 6 2 C2.97065509 1.34227572 2.97065509 1.34227572 0 1 C0 0.67 0 0.34 0 0 Z " fill="#30302E" transform="translate(85,76)"/>
<path d="M0 0 C8.91 0 17.82 0 27 0 C27 1.32 27 2.64 27 4 C17.76 4 8.52 4 -1 4 C-0.67 2.68 -0.34 1.36 0 0 Z " fill="#C69A38" transform="translate(49,67)"/>
<path d="M0 0 C3.06753711 3.98779825 5.9485135 8.08820637 8.375 12.5 C11.69637731 17.60981124 15.7560577 20.96403341 21 24 C22.35432675 25.31200404 23.68733482 26.64631404 25 28 C26.65191491 29.35156675 28.31522656 30.68962066 30 32 C19.62609898 30.41938811 12.45009531 21.94455034 5.75 14.5 C2.46801629 9.81145185 0 5.79868445 0 0 Z " fill="#989E6F" transform="translate(9,77)"/>
<path d="M0 0 C9.24 0 18.48 0 28 0 C28 0.99 28 1.98 28 3 C18.76 3 9.52 3 0 3 C0 2.01 0 1.02 0 0 Z " fill="#D58224" transform="translate(48,72)"/>
<path d="M0 0 C9.24 0 18.48 0 28 0 C28 0.99 28 1.98 28 3 C18.76 3 9.52 3 0 3 C0 2.01 0 1.02 0 0 Z " fill="#B7C131" transform="translate(48,56)"/>
<path d="M0 0 C9.24 0 18.48 0 28 0 C28 0.99 28 1.98 28 3 C18.76 3 9.52 3 0 3 C0 2.01 0 1.02 0 0 Z " fill="#D2D644" transform="translate(48,51)"/>
<path d="M0 0 C9.24 0 18.48 0 28 0 C28 0.99 28 1.98 28 3 C18.76 3 9.52 3 0 3 C0 2.01 0 1.02 0 0 Z " fill="#81BF49" transform="translate(48,39)"/>
<path d="M0 0 C9.24 0 18.48 0 28 0 C28 0.99 28 1.98 28 3 C18.76 3 9.52 3 0 3 C0 2.01 0 1.02 0 0 Z " fill="#98C952" transform="translate(48,34)"/>
<path d="M0 0 C0.66 0.33 1.32 0.66 2 1 C2.33 1.99 2.66 2.98 3 4 C3.66 4.33 4.32 4.66 5 5 C4.64766839 10.4611399 4.64766839 10.4611399 4 13 C1.9375 14.5 1.9375 14.5 0 15 C0 14.01 0 13.02 0 12 C0.99 11.67 1.98 11.34 3 11 C2.34 9.68 1.68 8.36 1 7 C-2.37088267 9.27415287 -2.37088267 9.27415287 -4 13 C-6.31 13.33 -8.62 13.66 -11 14 C-10.67 13.01 -10.34 12.02 -10 11 C-9.4225 10.87625 -8.845 10.7525 -8.25 10.625 C-4.81904882 9.67195801 -3.20834858 7.71311397 -1 5 C-1.04497842 2.72476911 -1.04497842 2.72476911 -2 1 C-1.34 0.67 -0.68 0.34 0 0 Z " fill="#2D2E24" transform="translate(43,47)"/>
<path d="M0 0 C2.31 0.33 4.62 0.66 7 1 C7 3.97 7 6.94 7 10 C4.69 10 2.38 10 0 10 C-1.231394 6.30581799 -0.64432764 3.7943739 0 0 Z " fill="#353231" transform="translate(83,106)"/>
<path d="M0 0 C0.33 0 0.66 0 1 0 C1.21278058 4.46839215 0.59138085 7.82262526 -1 12 C-1.66 10.68 -2.32 9.36 -3 8 C-3.66 9.32 -4.32 10.64 -5 12 C-5.66 11.67 -6.32 11.34 -7 11 C-6.67 10.34 -6.34 9.68 -6 9 C-6.86882812 8.93941406 -7.73765625 8.87882812 -8.6328125 8.81640625 C-9.78523438 8.73261719 -10.93765625 8.64882812 -12.125 8.5625 C-13.26195313 8.48128906 -14.39890625 8.40007812 -15.5703125 8.31640625 C-18.7540478 8.02269035 -21.85510907 7.56875687 -25 7 C-25 6.67 -25 6.34 -25 6 C-17.08 5.67 -9.16 5.34 -1 5 C-0.67 3.35 -0.34 1.7 0 0 Z " fill="#311906" transform="translate(111,69)"/>
<path d="M0 0 C0.66 0 1.32 0 2 0 C2.02895976 3.12498063 2.04678483 6.2499269 2.0625 9.375 C2.07087891 10.26445313 2.07925781 11.15390625 2.08789062 12.0703125 C2.09111328 12.92109375 2.09433594 13.771875 2.09765625 14.6484375 C2.10289307 15.43395996 2.10812988 16.21948242 2.11352539 17.02880859 C2 19 2 19 1 21 C0.01 21 -0.98 21 -2 21 C-1.86179731 17.6871348 -1.71316222 14.37482011 -1.5625 11.0625 C-1.52318359 10.11697266 -1.48386719 9.17144531 -1.44335938 8.19726562 C-1.40146484 7.29814453 -1.35957031 6.39902344 -1.31640625 5.47265625 C-1.27974854 4.64000244 -1.24309082 3.80734863 -1.20532227 2.94946289 C-1 1 -1 1 0 0 Z " fill="#D9D951" transform="translate(80,96)"/>
<path d="M0 0 C0.99 0.33 1.98 0.66 3 1 C1.4404735 4.82792868 -0.83631836 7.36359864 -4 10 C-6.6811465 10 -7.66363687 9.26428532 -9.75 7.625 C-11 6 -11 6 -11 3 C-9.68 3.33 -8.36 3.66 -7 4 C-7 4.66 -7 5.32 -7 6 C-6.52949219 5.55527344 -6.05898438 5.11054687 -5.57421875 4.65234375 C-4.95160156 4.08644531 -4.32898437 3.52054687 -3.6875 2.9375 C-2.76517578 2.08478516 -2.76517578 2.08478516 -1.82421875 1.21484375 C-1.22222656 0.81394531 -0.62023437 0.41304688 0 0 Z " fill="#D7C353" transform="translate(40,66)"/>
<path d="M0 0 C0.66 0 1.32 0 2 0 C2.598125 0.804375 3.19625 1.60875 3.8125 2.4375 C6.2536288 5.29710802 7.34382438 5.6953187 11 6 C11 6.33 11 6.66 11 7 C9.02 7.33 7.04 7.66 5 8 C5 8.66 5 9.32 5 10 C3.35 10.33 1.7 10.66 0 11 C-1.62651522 7.74696956 -1.11453156 4.60774398 -1 1 C-0.67 0.67 -0.34 0.34 0 0 Z " fill="#F1C72C" transform="translate(88,94)"/>
<path d="M0 0 C2.97 0 5.94 0 9 0 C9 1.98 9 3.96 9 6 C5.7 6 2.4 6 -1 6 C-1 2 -1 2 0 0 Z " fill="#F7B006" transform="translate(93,101)"/>
<path d="M0 0 C0.99 0.33 1.98 0.66 3 1 C2.04882866 2.1725131 1.08882991 3.33787015 0.125 4.5 C-0.67550781 5.47453125 -0.67550781 5.47453125 -1.4921875 6.46875 C-1.98976563 6.9740625 -2.48734375 7.479375 -3 8 C-3.66 8 -4.32 8 -5 8 C-5.33 7.34 -5.66 6.68 -6 6 C-6.99 5.67 -7.98 5.34 -9 5 C-8.525625 5.78375 -8.05125 6.5675 -7.5625 7.375 C-6.66101977 8.88948678 -5.78820515 10.4235897 -5 12 C-6.65 11.67 -8.3 11.34 -10 11 C-10.33 8.69 -10.66 6.38 -11 4 C-10.28972656 3.79503906 -9.57945313 3.59007813 -8.84765625 3.37890625 C-7.92855469 3.10949219 -7.00945313 2.84007813 -6.0625 2.5625 C-4.68771484 2.16224609 -4.68771484 2.16224609 -3.28515625 1.75390625 C-1.0597507 1.20973949 -1.0597507 1.20973949 0 0 Z " fill="#302C1D" transform="translate(38,64)"/>
<path d="M0 0 C12.5 3.75 12.5 3.75 16 9 C18.17897492 10.00805555 18.17897492 10.00805555 20.625 10.6875 C21.44226563 10.93886719 22.25953125 11.19023438 23.1015625 11.44921875 C23.72804688 11.63097656 24.35453125 11.81273438 25 12 C19.50015897 14.03111635 14.09444422 11.22226785 9 9 C6 6.5 6 6.5 4 4 C3.236875 3.236875 2.47375 2.47375 1.6875 1.6875 C1.130625 1.130625 0.57375 0.57375 0 0 Z " fill="#3A4325" transform="translate(30,102)"/>
<path d="M0 0 C1.0725 0.103125 2.145 0.20625 3.25 0.3125 C3.25 2.6225 3.25 4.9325 3.25 7.3125 C2.26 7.8075 2.26 7.8075 1.25 8.3125 C1.58 6.3325 1.91 4.3525 2.25 2.3125 C0.6 2.3125 -1.05 2.3125 -2.75 2.3125 C-3.08 5.6125 -3.41 8.9125 -3.75 12.3125 C-5.07 11.9825 -6.39 11.6525 -7.75 11.3125 C-8.08975517 7.66013197 -7.95830209 5.69577585 -6.1875 2.4375 C-3.75 0.3125 -3.75 0.3125 0 0 Z " fill="#DAC161" transform="translate(72.75,97.6875)"/>
<path d="M0 0 C2.46800047 1.15173355 4.04783565 2.04783565 6 4 C6 4.99 6 5.98 6 7 C4.04174127 7.02694851 2.08337774 7.04637218 0.125 7.0625 C-0.96554688 7.07410156 -2.05609375 7.08570312 -3.1796875 7.09765625 C-6 7 -6 7 -8 6 C-8 5.34 -8 4.68 -8 4 C-5.03 3.34 -2.06 2.68 1 2 C0.67 1.34 0.34 0.68 0 0 Z " fill="#D4AF2D" transform="translate(104,60)"/>
<path d="M0 0 C-1.5595265 3.82792868 -3.83631836 6.36359864 -7 9 C-9.71304545 9 -10.67343557 8.26824936 -12.75 6.5625 C-14 5 -14 5 -14 3 C-12.6696875 3.37125 -12.6696875 3.37125 -11.3125 3.75 C-7.89849491 4.3653333 -7.89849491 4.3653333 -5.3125 2.0625 C-3 0 -3 0 0 0 Z " fill="#CBDB43" transform="translate(43,50)"/>
<path d="M0 0 C0.66 0 1.32 0 2 0 C1.65657251 3.09084737 0.74044345 4.32444569 -1.25 6.8125 C-4 9 -4 9 -6.6875 8.9375 C-9 8 -9 8 -11 6 C-11 5.01 -11 4.02 -11 3 C-10.401875 3.165 -9.80375 3.33 -9.1875 3.5 C-6.88655664 4.1114124 -6.88655664 4.1114124 -4 4 C-2.64631404 2.68733482 -1.31200404 1.35432675 0 0 Z " fill="#C5DD51" transform="translate(40,33)"/>
<path d="M0 0 C0.66 0 1.32 0 2 0 C2 0.66 2 1.32 2 2 C3.32 2 4.64 2 6 2 C5.75 3.875 5.75 3.875 5 6 C2.19663732 7.73659635 -0.24082898 8.3236383 -3.5 8.625 C-4.2528125 8.69976562 -5.005625 8.77453125 -5.78125 8.8515625 C-7.85013232 8.98997364 -9.9264929 9 -12 9 C-11.01 8.67 -10.02 8.34 -9 8 C-9 7.34 -9 6.68 -9 6 C-6.03 6.33 -3.06 6.66 0 7 C-0.185625 6.030625 -0.37125 5.06125 -0.5625 4.0625 C-0.706875 3.051875 -0.85125 2.04125 -1 1 C-0.67 0.67 -0.34 0.34 0 0 Z " fill="#2D2C24" transform="translate(90,109)"/>
<path d="M0 0 C-0.11386459 2.77170395 -0.24060778 5.54178046 -0.375 8.3125 C-0.42140625 9.49102539 -0.42140625 9.49102539 -0.46875 10.69335938 C-0.52675781 11.8293457 -0.52675781 11.8293457 -0.5859375 12.98828125 C-0.6173584 13.68477783 -0.6487793 14.38127441 -0.68115234 15.09887695 C-1 17 -1 17 -3 20 C-3.08159574 15.83861737 -2.98248524 12.0527516 -2 8 C-2.66 8 -3.32 8 -4 8 C-4 5.69 -4 3.38 -4 1 C-5.65 1 -7.3 1 -9 1 C-9 0.67 -9 0.34 -9 0 C-5.5657338 -0.85856655 -3.38317487 -0.97591583 0 0 Z " fill="#464010" transform="translate(80,97)"/>
<path d="M0 0 C0.99 0.33 1.98 0.66 3 1 C4.8380113 5.04362487 5.25455926 7.73449853 4 12 C3.67 11.34 3.34 10.68 3 10 C0.97536745 9.34786708 0.97536745 9.34786708 -1 9 C-2.0326802 6.21176345 -2.04509293 5.1322726 -1.0625 2.25 C-0.711875 1.5075 -0.36125 0.765 0 0 Z " fill="#1C1F1E" transform="translate(83,80)"/>
<path d="M0 0 C1.32 0 2.64 0 4 0 C4 2.64 4 5.28 4 8 C3.34 7.67 2.68 7.34 2 7 C1.566875 7.969375 1.13375 8.93875 0.6875 9.9375 C-1 13 -1 13 -4 14 C-4.66 13.34 -5.32 12.68 -6 12 C-4.7934375 11.2575 -4.7934375 11.2575 -3.5625 10.5 C-0.01911662 7.04304061 -0.2426059 4.85211791 0 0 Z " fill="#40320F" transform="translate(108,96)"/>
<path d="M0 0 C0.33 0 0.66 0 1 0 C1.042721 1.66611905 1.04063832 3.33382885 1 5 C0 6 0 6 -2.50024414 6.11352539 C-3.58426514 6.10828857 -4.66828613 6.10305176 -5.78515625 6.09765625 C-6.95498047 6.09443359 -8.12480469 6.09121094 -9.33007812 6.08789062 C-11.17762695 6.07532227 -11.17762695 6.07532227 -13.0625 6.0625 C-14.91584961 6.05573242 -14.91584961 6.05573242 -16.80664062 6.04882812 C-19.87114117 6.03699608 -22.93554721 6.02051173 -26 6 C-26 5.67 -26 5.34 -26 5 C-13.625 4.505 -13.625 4.505 -1 4 C-0.67 2.68 -0.34 1.36 0 0 Z " fill="#B78631" transform="translate(110,69)"/>
<path d="M0 0 C0.33 0.66 0.66 1.32 1 2 C-1.31 2.33 -3.62 2.66 -6 3 C-6 3.66 -6 4.32 -6 5 C-8.31 5 -10.62 5 -13 5 C-8.7797731 -0.27528362 -6.38501231 -0.54110274 0 0 Z " fill="#FBDF4D" transform="translate(102,61)"/>
<path d="M0 0 C2 1 2 1 3 3 C5.01669827 4.13350534 5.01669827 4.13350534 7 5 C6.01 5.495 6.01 5.495 5 6 C4.67 6.99 4.34 7.98 4 9 C3.34 8.01 2.68 7.02 2 6 C0.68 6.33 -0.64 6.66 -2 7 C-2.125 4.625 -2.125 4.625 -2 2 C-1.34 1.34 -0.68 0.68 0 0 Z " fill="#615F66" transform="translate(22,17)"/>
<path d="M0 0 C1.20272819 2.40545638 1.10071472 3.94996953 1.0625 6.625 C1.05347656 7.44226563 1.04445313 8.25953125 1.03515625 9.1015625 C1.02355469 9.72804688 1.01195313 10.35453125 1 11 C-3.31392226 10.5206753 -5.16569547 9.2542015 -8 6 C-7.34 5.67 -6.68 5.34 -6 5 C-4.68 5.99 -3.36 6.98 -2 8 C-1.855625 6.865625 -1.71125 5.73125 -1.5625 4.5625 C-1 1 -1 1 0 0 Z " fill="#785417" transform="translate(75,105)"/>
<path d="M0 0 C0.99 0 1.98 0 3 0 C2.67 3.3 2.34 6.6 2 10 C1.01 10.33 0.02 10.66 -1 11 C-2.0257259 6.58937864 -2.03684712 4.07369424 0 0 Z " fill="#38312A" transform="translate(82,64)"/>
<path d="M0 0 C3.40117553 1.45764666 5.43833341 3.36070715 8 6 C9.65191491 7.35156675 11.31522656 8.68962066 13 10 C9.00987629 9.44010697 6.4744948 8.24330232 3.1875 5.9375 C2.39730469 5.38964844 1.60710938 4.84179688 0.79296875 4.27734375 C0.20128906 3.85582031 -0.39039062 3.43429688 -1 3 C-0.67 2.01 -0.34 1.02 0 0 Z " fill="#6F7946" transform="translate(26,99)"/>
<path d="M0 0 C0 1.65 0 3.3 0 5 C-3.3203797 6.73565302 -6.34566735 8.18174726 -10 9 C-9.06725891 7.87105124 -8.12859878 6.74699124 -7.1875 5.625 C-6.66542969 4.99851562 -6.14335938 4.37203125 -5.60546875 3.7265625 C-2.14027149 0 -2.14027149 0 0 0 Z " fill="#62643B" transform="translate(116,105)"/>
<path d="M0 0 C1.65 0.33 3.3 0.66 5 1 C3.515 2.485 3.515 2.485 2 4 C4.64 4.33 7.28 4.66 10 5 C10 5.33 10 5.66 10 6 C5.71 6 1.42 6 -3 6 C-2 4 -1 2 0 0 Z " fill="#E8D577" transform="translate(88,61)"/>
<path d="M0 0 C0 0.99 0 1.98 0 3 C-5.94 3 -11.88 3 -18 3 C-18 2.67 -18 2.34 -18 2 C-15.7505194 1.66317938 -13.50039296 1.33066999 -11.25 1 C-9.99703125 0.814375 -8.7440625 0.62875 -7.453125 0.4375 C-4 0 -4 0 0 0 Z " fill="#66B833" transform="translate(76,34)"/>
<path d="M0 0 C0.33 0 0.66 0 1 0 C1 1.65 1 3.3 1 5 C-3.52092968 6.45606519 -6.51648796 5.27032841 -11 4 C-11 3.67 -11 3.34 -11 3 C-5.555 2.505 -5.555 2.505 0 2 C0 1.34 0 0.68 0 0 Z " fill="#DE9512" transform="translate(105,96)"/>
<path d="M0 0 C5.28 0 10.56 0 16 0 C15.34 1.65 14.68 3.3 14 5 C13.34 4.67 12.68 4.34 12 4 C12.33 3.34 12.66 2.68 13 2 C8.71 1.67 4.42 1.34 0 1 C0 0.67 0 0.34 0 0 Z " fill="#262018" transform="translate(92,76)"/>
<path d="M0 0 C0.99 0 1.98 0 3 0 C3.66 1.65 4.32 3.3 5 5 C7.97 5 10.94 5 14 5 C12 7 12 7 8.0625 7.3125 C5.32994009 7.24802944 4.29117734 7.20018442 2 5.625 C1 4 1 4 1 2 C0.34 1.67 -0.32 1.34 -1 1 C-0.67 0.67 -0.34 0.34 0 0 Z " fill="#3D2F0D" transform="translate(89,92)"/>
<path d="M0 0 C2.79828356 0.38597015 3.8205884 0.80136573 5.75 2.9375 C7 5 7 5 7 7 C7.66 7 8.32 7 9 7 C9.33 8.32 9.66 9.64 10 11 C8.8944811 10.06409496 7.79064547 9.12620142 6.6875 8.1875 C6.07261719 7.66542969 5.45773438 7.14335938 4.82421875 6.60546875 C1.48047722 3.6626898 1.48047722 3.6626898 0 2 C0 1.34 0 0.68 0 0 Z " fill="#3E431D" transform="translate(16,88)"/>
<path d="M0 0 C2.76544722 3.45680903 4.84921278 7.14341602 7 11 C6.34 11.66 5.68 12.32 5 13 C4.15615325 11.58957044 3.32530504 10.17135868 2.5 8.75 C2.0359375 7.96109375 1.571875 7.1721875 1.09375 6.359375 C0 4 0 4 0 0 Z " fill="#5A6442" transform="translate(9,77)"/>
<path d="M0 0 C3.96 0 7.92 0 12 0 C12 0.33 12 0.66 12 1 C11.36191406 1.12117188 10.72382812 1.24234375 10.06640625 1.3671875 C8.82697266 1.61855469 8.82697266 1.61855469 7.5625 1.875 C6.73878906 2.03742188 5.91507812 2.19984375 5.06640625 2.3671875 C4.38449219 2.57601562 3.70257813 2.78484375 3 3 C2.67 3.66 2.34 4.32 2 5 C1.34 5 0.68 5 0 5 C0 3.35 0 1.7 0 0 Z " fill="#F5DA85" transform="translate(84,69)"/>
<path d="M0 0 C1.32 0.66 2.64 1.32 4 2 C3.67 3.32 3.34 4.64 3 6 C1.35 5.67 -0.3 5.34 -2 5 C-1.34 3.35 -0.68 1.7 0 0 Z " fill="#F7BD0F" transform="translate(93,101)"/>
<path d="M0 0 C-0.99 0.495 -0.99 0.495 -2 1 C-1.34 1.66 -0.68 2.32 0 3 C-2.97 3 -5.94 3 -9 3 C-8.67 2.01 -8.34 1.02 -8 0 C-5.04215769 -1.22393475 -3.00272755 -0.96516243 0 0 Z " fill="#F8CB39" transform="translate(95,71)"/>
<path d="M0 0 C0 3.21812786 -0.05758039 4.4664092 -2 7 C-5.625 7.75 -5.625 7.75 -9 8 C-8.67 7.01 -8.34 6.02 -8 5 C-7.401875 4.855625 -6.80375 4.71125 -6.1875 4.5625 C-3.2629977 3.81048512 -1.98969345 2.20287489 0 0 Z " fill="#35370B" transform="translate(41,53)"/>
<path d="M0 0 C0.99 0 1.98 0 3 0 C3.1875 3.375 3.1875 3.375 3 7 C2.01 7.66 1.02 8.32 0 9 C0 6.03 0 3.06 0 0 Z " fill="#DCDA47" transform="translate(112,97)"/>
<path d="M0 0 C0 3 0 3 -1.3125 4.60546875 C-1.869375 5.12753906 -2.42625 5.64960937 -3 6.1875 C-3.556875 6.71730469 -4.11375 7.24710937 -4.6875 7.79296875 C-5.120625 8.19128906 -5.55375 8.58960937 -6 9 C-6.99 8.67 -7.98 8.34 -9 8 C-8.01 7.67 -7.02 7.34 -6 7 C-4.79117904 4.99983534 -4.79117904 4.99983534 -4 3 C-3.34 3 -2.68 3 -2 3 C-2 2.34 -2 1.68 -2 1 C-1.34 0.67 -0.68 0.34 0 0 Z " fill="#C6992D" transform="translate(42,67)"/>
<path d="M0 0 C0.66 0 1.32 0 2 0 C1.67 3.63 1.34 7.26 1 11 C-1 9 -1 9 -1.23046875 7.08984375 C-1.11111111 1.11111111 -1.11111111 1.11111111 0 0 Z " fill="#E7D475" transform="translate(88,94)"/>
<path d="M0 0 C0.33 1.32 0.66 2.64 1 4 C-0.98 4.33 -2.96 4.66 -5 5 C-4.625 3.0625 -4.625 3.0625 -4 1 C-2 0 -2 0 0 0 Z " fill="#987847" transform="translate(124,96)"/>
<path d="M0 0 C0.66 0 1.32 0 2 0 C1.34 2.64 0.68 5.28 0 8 C-1.32 8.33 -2.64 8.66 -4 9 C-3.34 6.69 -2.68 4.38 -2 2 C-1.34 2 -0.68 2 0 2 C0 1.34 0 0.68 0 0 Z " fill="#232926" transform="translate(106,82)"/>
<path d="M0 0 C2.97 0 5.94 0 9 0 C5.61885051 1.69057475 3.3700175 2.45815467 -0.25 3.125 C-1.58804688 3.37636719 -1.58804688 3.37636719 -2.953125 3.6328125 C-3.62859375 3.75398438 -4.3040625 3.87515625 -5 4 C-4.34 3.34 -3.68 2.68 -3 2 C-2.01 2 -1.02 2 0 2 C0 1.34 0 0.68 0 0 Z " fill="#57565C" transform="translate(53,17)"/>
<path d="M0 0 C0.33 0 0.66 0 1 0 C1.125 6.75 1.125 6.75 0 9 C-0.99 9 -1.98 9 -3 9 C-2.44271087 5.65626525 -1.64826111 2.96687001 0 0 Z " fill="#B7C23F" transform="translate(81,108)"/>
<path d="M0 0 C0.66 0.66 1.32 1.32 2 2 C0.375 3.5625 0.375 3.5625 -2 5 C-5.25 4.6875 -5.25 4.6875 -8 4 C-5.42910583 1.88819408 -3.36939433 0.33693943 0 0 Z " fill="#1A1A1F" transform="translate(104,90)"/>
<path d="M0 0 C1.65 0 3.3 0 5 0 C4.01 0.33 3.02 0.66 2 1 C2.474375 1.78375 2.94875 2.5675 3.4375 3.375 C4.33898023 4.88948678 5.21179485 6.4235897 6 8 C4.35 7.67 2.7 7.34 1 7 C0.67 4.69 0.34 2.38 0 0 Z " fill="#39300E" transform="translate(27,68)"/>
<path d="M0 0 C-0.75 1.9375 -0.75 1.9375 -2 4 C-4 4.8125 -4 4.8125 -6 5 C-6.66 4.67 -7.32 4.34 -8 4 C-3.375 0 -3.375 0 0 0 Z " fill="#C5D158" transform="translate(43,50)"/>
<path d="M0 0 C2.00720923 0.28674418 4.0085944 0.61866701 6 1 C5.34 1.66 4.68 2.32 4 3 C3.01 2.67 2.02 2.34 1 2 C1.33 2.99 1.66 3.98 2 5 C1.01 5.33 0.02 5.66 -1 6 C-1.042721 4.33388095 -1.04063832 2.66617115 -1 1 C-0.67 0.67 -0.34 0.34 0 0 Z " fill="#494B25" transform="translate(28,51)"/>
<path d="M0 0 C0.66 0 1.32 0 2 0 C2 2.64 2 5.28 2 8 C1.01 7.67 0.02 7.34 -1 7 C-1.04254356 5.00045254 -1.04080783 2.99958364 -1 1 C-0.67 0.67 -0.34 0.34 0 0 Z " fill="#3D3B1B" transform="translate(110,96)"/>
<path d="M0 0 C0.66 0 1.32 0 2 0 C2.375 2.1875 2.375 2.1875 2 5 C0.16038352 6.99022836 -1.79186148 8.38989899 -4 10 C-4.66 9.67 -5.32 9.34 -6 9 C-5.566875 8.60167969 -5.13375 8.20335938 -4.6875 7.79296875 C-4.130625 7.26316406 -3.57375 6.73335938 -3 6.1875 C-2.443125 5.66542969 -1.88625 5.14335938 -1.3125 4.60546875 C0.316465 2.95851033 0.316465 2.95851033 0 0 Z " fill="#302407" transform="translate(42,66)"/>
<path d="M0 0 C-0.33 1.32 -0.66 2.64 -1 4 C-2.65 4 -4.3 4 -6 4 C-6.33 3.01 -6.66 2.02 -7 1 C-4.53721199 -0.231394 -2.7204945 -0.07159196 0 0 Z " fill="#35343B" transform="translate(32,43)"/>
<path d="M0 0 C0.99 0.33 1.98 0.66 3 1 C1.71937515 2.7074998 0.38232443 4.37373596 -1 6 C-1.66 6 -2.32 6 -3 6 C-3 4.68 -3 3.36 -3 2 C-2.01 1.34 -1.02 0.68 0 0 Z " fill="#333219" transform="translate(36,49)"/>
<path d="M0 0 C0 2.31 0 4.62 0 7 C-1.65 5.68 -3.3 4.36 -5 3 C-1.125 0 -1.125 0 0 0 Z " fill="#E6A41B" transform="translate(74,107)"/>
<path d="M0 0 C3.53586014 3.17320782 5.58578031 5.16743695 6 10 C4.62437146 8.71034824 3.29233607 7.37310707 2 6 C2 5.34 2 4.68 2 4 C1.34 4 0.68 4 0 4 C0 2.68 0 1.36 0 0 Z " fill="#2E311C" transform="translate(18,85)"/>
<path d="M0 0 C0.99 0.33 1.98 0.66 3 1 C3.33 2.65 3.66 4.3 4 6 C3.01 6 2.02 6 1 6 C0.67 4.02 0.34 2.04 0 0 Z " fill="#5A545B" transform="translate(85,77)"/>
<path d="" fill="#000000" transform="translate(0,0)"/>
<path d="" fill="#000000" transform="translate(0,0)"/>
<path d="" fill="#000000" transform="translate(0,0)"/>
<path d="" fill="#000000" transform="translate(0,0)"/>
<path d="" fill="#000000" transform="translate(0,0)"/>
<path d="" fill="#010000" transform="translate(0,0)"/>
<path d="" fill="#000000" transform="translate(0,0)"/>
<path d="" fill="#000000" transform="translate(0,0)"/>
<path d="" fill="#000000" transform="translate(0,0)"/>
<path d="" fill="#000000" transform="translate(0,0)"/>
<path d="" fill="#000000" transform="translate(0,0)"/>
<path d="" fill="#000000" transform="translate(0,0)"/>
<path d="" fill="#000000" transform="translate(0,0)"/>
<path d="" fill="#000000" transform="translate(0,0)"/>
<path d="" fill="#000000" transform="translate(0,0)"/>
<path d="" fill="#000000" transform="translate(0,0)"/>
<path d="" fill="#000000" transform="translate(0,0)"/>
<path d="" fill="#000000" transform="translate(0,0)"/>
<path d="" fill="#000000" transform="translate(0,0)"/>
<path d="" fill="#000000" transform="translate(0,0)"/>
<path d="" fill="#000000" transform="translate(0,0)"/>
<path d="" fill="#000000" transform="translate(0,0)"/>
<path d="" fill="#000000" transform="translate(0,0)"/>
<path d="" fill="#000000" transform="translate(0,0)"/>
<path d="" fill="#000000" transform="translate(0,0)"/>
<path d="" fill="#000000" transform="translate(0,0)"/>
<path d="" fill="#000000" transform="translate(0,0)"/>
<path d="" fill="#000000" transform="translate(0,0)"/>
<path d="" fill="#000000" transform="translate(0,0)"/>
<path d="" fill="#000000" transform="translate(0,0)"/>
<path d="" fill="#000000" transform="translate(0,0)"/>
<path d="" fill="#000000" transform="translate(0,0)"/>
<path d="" fill="#000000" transform="translate(0,0)"/>
<path d="" fill="#000000" transform="translate(0,0)"/>
<path d="" fill="#000000" transform="translate(0,0)"/>
<path d="" fill="#000000" transform="translate(0,0)"/>
<path d="" fill="#000000" transform="translate(0,0)"/>
<path d="" fill="#010000" transform="translate(0,0)"/>
<path d="" fill="#000000" transform="translate(0,0)"/>
<path d="" fill="#000000" transform="translate(0,0)"/>
<path d="" fill="#000000" transform="translate(0,0)"/>
<path d="" fill="#000000" transform="translate(0,0)"/>
<path d="" fill="#000000" transform="translate(0,0)"/>
<path d="" fill="#000000" transform="translate(0,0)"/>
<path d="" fill="#000000" transform="translate(0,0)"/>
<path d="" fill="#000000" transform="translate(0,0)"/>
</svg>
