<?xml version="1.0" encoding="UTF-8"?>
<svg version="1.1" xmlns="http://www.w3.org/2000/svg" width="167" height="118">
<path d="M0 0 C0.93146851 0.00138474 1.86293701 0.00276947 2.82263184 0.00419617 C16.05804157 0.03654327 29.29316784 0.13259134 42.5277853 0.27869415 C46.6402509 0.32382929 50.75260147 0.36310047 54.86523438 0.3894043 C58.91081666 0.41543028 62.95602375 0.45574957 67.00137329 0.50615501 C68.52588279 0.52273667 70.05045598 0.5343048 71.57504272 0.54058266 C73.6936628 0.55022906 75.81130866 0.57826575 77.9296875 0.6105957 C79.12907959 0.62169876 80.32847168 0.63280182 81.56420898 0.64424133 C86.78224142 1.27340526 90.75149945 3.32861841 94.12109375 7.35546875 C94.600625 7.90847656 95.08015625 8.46148437 95.57421875 9.03125 C98.4231011 13.45045003 99.12325642 17.92949958 99.16162109 23.10498047 C99.1743808 24.27995087 99.1871405 25.45492126 99.20028687 26.66549683 C99.20251251 27.92185944 99.20473816 29.17822205 99.20703125 30.47265625 C99.21701645 32.42910568 99.21701645 32.42910568 99.22720337 34.42507935 C99.23914292 37.18039257 99.24288761 39.93558072 99.24169922 42.69091797 C99.24149614 46.20351425 99.26879992 49.71530045 99.30324364 53.227705 C99.330966 56.60103286 99.32966443 59.97421616 99.33203125 63.34765625 C99.34640228 64.5999704 99.36077332 65.85228455 99.37557983 67.14254761 C99.33598887 74.74304079 98.89948883 80.83798058 93.38827515 86.59078979 C88.70105674 90.71423443 85.0706226 91.18245179 79.00390625 91.359375 C78.3102597 91.38024673 77.61661316 91.40111847 76.90194702 91.42262268 C74.60011556 91.48940846 72.29818026 91.54818208 69.99609375 91.60546875 C69.19888916 91.62631531 68.40168457 91.64716187 67.58032227 91.66864014 C50.14021567 92.117855 32.70713219 92.23788955 15.26239014 92.0657959 C12.78838873 92.04217925 10.31437517 92.02356561 7.84033203 92.00488281 C3.66860477 91.96985819 -0.50218188 91.91036557 -4.67333984 91.83343506 C-6.25185803 91.80674261 -7.83049596 91.78630008 -9.40917969 91.77252197 C-11.59652172 91.7513318 -13.78197092 91.70508418 -15.96875 91.65234375 C-17.21003662 91.63139648 -18.45132324 91.61044922 -19.73022461 91.58886719 C-26.44500315 90.51033513 -30.26066042 86.23747029 -34.12890625 81.04296875 C-35.20420889 77.81706084 -35.27521414 75.43974407 -35.3059082 72.04614258 C-35.31874344 70.81088333 -35.33157867 69.57562408 -35.34480286 68.30293274 C-35.35297263 66.95195926 -35.36041591 65.60098121 -35.3671875 64.25 C-35.37126303 63.56768499 -35.37533855 62.88536999 -35.37953758 62.18237877 C-35.40038486 58.56812215 -35.41469013 54.95390331 -35.42407227 51.33959961 C-35.43511052 47.62183576 -35.46948329 43.90467477 -35.50924397 40.1871233 C-35.53550138 37.31561741 -35.54377229 34.44425291 -35.54735374 31.57263756 C-35.55219931 30.20320266 -35.56375501 28.83377321 -35.58239174 27.46445656 C-35.68323045 19.56174693 -35.5204931 13.74660729 -31.12890625 7.04296875 C-22.67752147 -1.19171386 -11.0124752 -0.02582724 0 0 Z " fill="#3C3B35" transform="translate(50.12890625,15.95703125)"/>
<path d="M0 0 C-0.33 0.66 -0.66 1.32 -1 2 C-1.06950541 3.54023996 -1.08452357 5.08334988 -1.0625 6.625 C-1.041875 8.06875 -1.02125 9.5125 -1 11 C-5.95 11 -10.9 11 -16 11 C-16 8.36 -16 5.72 -16 3 C-16.99 3.495 -16.99 3.495 -18 4 C-19.3734635 4.15004973 -20.7528526 4.24838006 -22.1328125 4.31640625 C-22.93847656 4.35830078 -23.74414062 4.40019531 -24.57421875 4.44335938 C-25.41597656 4.48267578 -26.25773437 4.52199219 -27.125 4.5625 C-27.97449219 4.60568359 -28.82398437 4.64886719 -29.69921875 4.69335938 C-31.79928223 4.79954236 -33.89961948 4.90028497 -36 5 C-36.28746094 5.61230469 -36.57492188 6.22460938 -36.87109375 6.85546875 C-38 9 -38 9 -40.0625 11.3125 C-42.45848058 14.63595694 -42.65060498 16.94701779 -43 21 C-43.17321777 22.04260986 -43.34643555 23.08521973 -43.52490234 24.15942383 C-44.06469651 28.52299115 -44.04435371 32.6886539 -43.9140625 37.07421875 C-43.89282318 37.92047318 -43.87158386 38.7667276 -43.84970093 39.6386261 C-43.80369257 41.41614255 -43.75478778 43.19358617 -43.703125 44.97094727 C-43.62494338 47.68946863 -43.55790873 50.40810499 -43.4921875 53.12695312 C-43.44597363 54.85939276 -43.39912082 56.5918155 -43.3515625 58.32421875 C-43.33171295 59.13469162 -43.3118634 59.94516449 -43.29141235 60.78019714 C-43.18660695 64.99499679 -43.18660695 64.99499679 -42.43930054 69.12800598 C-42 71 -42 71 -42.75 72.875 C-43.29650374 75.37482349 -43.29650374 75.37482349 -40.5625 78.125 C-39.716875 79.07375 -38.87125 80.0225 -38 81 C-38 81.66 -38 82.32 -38 83 C-37.34 83 -36.68 83 -36 83 C-36 83.66 -36 84.32 -36 85 C-35.01 85.33 -34.02 85.66 -33 86 C-33 86.66 -33 87.32 -33 88 C-14.52 88.33 3.96 88.66 23 89 C22.67 83.39 22.34 77.78 22 72 C22.66 71.67 23.32 71.34 24 71 C25.90029238 76.70087713 25 82.99074787 25 89 C36.22 89 47.44 89 59 89 C59 83.39 59 77.78 59 72 C59.66 71.67 60.32 71.34 61 71 C61 76.61 61 82.22 61 88 C68.40446653 88 71.96889978 87.69955063 78 84 C80.43177033 81.52656069 80.43177033 81.52656069 82 79 C82.66 78.34 83.32 77.68 84 77 C83.58443583 81.84824868 81.62551755 83.88036862 78 87 C75.27617044 88.68236531 74.26115629 89 71 89 C71 89.66 71 90.32 71 91 C48.46559874 91.84703938 25.9625733 92.24275193 3.41271973 92.02282715 C0.92718222 91.99931106 -1.55836768 91.98065827 -4.04394531 91.96191406 C-8.21228666 91.92692353 -12.37968446 91.86744704 -16.54745483 91.79046631 C-18.124691 91.76376182 -19.70204736 91.74332499 -21.27944946 91.72955322 C-23.46706577 91.70836125 -25.65279019 91.66211165 -27.83984375 91.609375 C-29.08113037 91.58842773 -30.32241699 91.56748047 -31.60131836 91.54589844 C-38.3160969 90.46736638 -42.13175417 86.19450154 -46 81 C-47.07530264 77.77409209 -47.14630789 75.39677532 -47.17700195 72.00317383 C-47.18983719 70.76791458 -47.20267242 69.53265533 -47.21589661 68.25996399 C-47.22406638 66.90899051 -47.23150966 65.55801246 -47.23828125 64.20703125 C-47.24235678 63.52471624 -47.2464323 62.84240124 -47.25063133 62.13941002 C-47.27147861 58.5251534 -47.28578388 54.91093456 -47.29516602 51.29663086 C-47.30620427 47.57886701 -47.34057704 43.86170602 -47.38033772 40.14415455 C-47.40659513 37.27264866 -47.41486604 34.40128416 -47.41844749 31.52966881 C-47.42329306 30.16023391 -47.43484876 28.79080446 -47.45348549 27.42148781 C-47.5543242 19.51877818 -47.39158685 13.70363854 -43 7 C-32.319232 -3.40690215 -13.74893597 -0.12558753 0 0 Z " fill="#4E4E46" transform="translate(62,16)"/>
<path d="M0 0 C2 1 4 2 6 3 C11.49458336 3.50752766 11.49458336 3.50752766 16.375 1.5 C16.91125 1.005 17.4475 0.51 18 0 C18.66 0 19.32 0 20 0 C21.55024464 3.10048928 21.28992015 5.57894218 21 9 C18.46750296 13.28576423 15.55605608 15.11815075 11 17 C10.34 17 9.68 17 9 17 C8.87625 17.928125 8.87625 17.928125 8.75 18.875 C8 21 8 21 6.4375 22.25 C2.45514935 23.47533866 -2.19826452 23.90086774 -6 22 C-6.66 23.32 -7.32 24.64 -8 26 C-8.99 26 -9.98 26 -11 26 C-10.86184471 22.18718055 -10.71319438 18.37484283 -10.5625 14.5625 C-10.52318359 13.47388672 -10.48386719 12.38527344 -10.44335938 11.26367188 C-10.40146484 10.22919922 -10.35957031 9.19472656 -10.31640625 8.12890625 C-10.27974854 7.17056885 -10.24309082 6.21223145 -10.20532227 5.22485352 C-10 3 -10 3 -9 2 C-6.9427083 1.68076508 -4.88386479 1.48838648 -2.8125 1.28125 C-0.9832467 1.18001957 -0.9832467 1.18001957 0 0 Z " fill="#514F4A" transform="translate(94,56)"/>
<path d="M0 0 C1.485 0.495 1.485 0.495 3 1 C3 3.97 3 6.94 3 10 C-9.44025697 12.15349116 -9.44025697 12.15349116 -15.1875 11.9375 C-16.445625 11.958125 -17.70375 11.97875 -19 12 C-19.99 13.485 -19.99 13.485 -21 15 C-15.36566322 17.40929552 -10.1310889 17.23079831 -4.125 17.125 C-3.15046875 17.11597656 -2.1759375 17.10695313 -1.171875 17.09765625 C1.21900728 17.07421623 3.60937261 17.04140442 6 17 C6.495 18.485 6.495 18.485 7 20 C4.69 20.33 2.38 20.66 0 21 C2.31 21.33 4.62 21.66 7 22 C7 22.99 7 23.98 7 25 C-0.26 25 -7.52 25 -15 25 C-15.66 23.35 -16.32 21.7 -17 20 C-17.38671875 20.433125 -17.7734375 20.86625 -18.171875 21.3125 C-18.69265625 21.869375 -19.2134375 22.42625 -19.75 23 C-20.26046875 23.556875 -20.7709375 24.11375 -21.296875 24.6875 C-23 26 -23 26 -27 26 C-29.25 23.75 -29.25 23.75 -31 21 C-31 19.68 -31 18.36 -31 17 C-30.34 17 -29.68 17 -29 17 C-29 16.34 -29 15.68 -29 15 C-27.35 14.67 -25.7 14.34 -24 14 C-23.896875 13.360625 -23.79375 12.72125 -23.6875 12.0625 C-23.460625 11.381875 -23.23375 10.70125 -23 10 C-22.01 9.67 -21.02 9.34 -20 9 C-20.33 8.67 -20.66 8.34 -21 8 C-21.04092937 5.66702567 -21.04241723 3.33294775 -21 1 C-20.34 1 -19.68 1 -19 1 C-19 2.98 -19 4.96 -19 7 C-12.73 7 -6.46 7 0 7 C0 4.69 0 2.38 0 0 Z " fill="#63703C" transform="translate(63,22)"/>
<path d="M0 0 C8.25 0 16.5 0 25 0 C23.89419286 5.52903568 22.64621559 9.21268022 18.8125 13.375 C15.16038098 15.48511321 12.06520538 15.91666396 8 15 C3.45070275 12.0815829 0.84298288 9.09530561 -1 4 C-0.67 2.68 -0.34 1.36 0 0 Z " fill="#49474D" transform="translate(92,39)"/>
<path d="M0 0 C1.68300669 1.68300669 1.22809077 3.82008727 1.31640625 6.12890625 C1.35830078 7.16337891 1.40019531 8.19785156 1.44335938 9.26367188 C1.48267578 10.35228516 1.52199219 11.44089844 1.5625 12.5625 C1.60568359 13.65498047 1.64886719 14.74746094 1.69335938 15.87304688 C1.79982068 18.58189564 1.90183516 21.29083992 2 24 C-0.99332739 23.0022242 -1.94766315 22.2477975 -4 20 C-4.33 20.33 -4.66 20.66 -5 21 C-10.82597058 21.47558944 -14.72808443 20.21975392 -20 18 C-20 17.01 -20 16.02 -20 15 C-19.37351562 14.67386719 -18.74703125 14.34773438 -18.1015625 14.01171875 C-17.28429687 13.57472656 -16.46703125 13.13773438 -15.625 12.6875 C-14.81289062 12.25824219 -14.00078125 11.82898438 -13.1640625 11.38671875 C-10.73165957 10.03221276 -10.73165957 10.03221276 -9 7 C-8.835 5.96875 -8.67 4.9375 -8.5 3.875 C-8.335 2.92625 -8.17 1.9775 -8 1 C-5.26752652 -0.36623674 -3.01801098 -0.128426 0 0 Z " fill="#4C4A46" transform="translate(123,58)"/>
<path d="M0 0 C2 3 2 3 2 18 C13.22 18 24.44 18 36 18 C36 12.39 36 6.78 36 1 C36.66 0.67 37.32 0.34 38 0 C38 5.61 38 11.22 38 17 C45.40446653 17 48.96889978 16.69955063 55 13 C57.43177033 10.52656069 57.43177033 10.52656069 59 8 C59.66 7.34 60.32 6.68 61 6 C60.58443583 10.84824868 58.62551755 12.88036862 55 16 C52.27617044 17.68236531 51.26115629 18 48 18 C48 18.66 48 19.32 48 20 C26.65029427 20.15008986 5.29864996 20.01023728 -16.04985809 19.76267529 C-19.8039512 19.71918996 -23.55794083 19.68046353 -27.31219482 19.65383911 C-30.91089813 19.62794427 -34.50917101 19.58762482 -38.10760689 19.53687668 C-40.0930399 19.51235472 -42.07863355 19.50215662 -44.06419373 19.49234009 C-57.41843881 19.27316845 -57.41843881 19.27316845 -62.99609375 14.17578125 C-63.47175781 13.56089844 -63.94742188 12.94601563 -64.4375 12.3125 C-64.93121094 11.68988281 -65.42492187 11.06726563 -65.93359375 10.42578125 C-66.28550781 9.95527344 -66.63742188 9.48476562 -67 9 C-66.67 8.34 -66.34 7.68 -66 7 C-65.6596875 7.47050781 -65.319375 7.94101563 -64.96875 8.42578125 C-64.4840625 9.04839844 -63.999375 9.67101562 -63.5 10.3125 C-63.0359375 10.92738281 -62.571875 11.54226562 -62.09375 12.17578125 C-55.73609328 17.71500828 -47.8175762 17.46523578 -39.84375 17.51171875 C-38.70087524 17.52966995 -37.55800049 17.54762115 -36.38049316 17.56611633 C-32.7536989 17.62001447 -29.12703472 17.65405004 -25.5 17.6875 C-23.03123198 17.72069107 -20.56248108 17.75518237 -18.09375 17.79101562 C-12.06261669 17.87572923 -6.03146612 17.94416552 0 18 C-0.08378906 16.78441406 -0.16757813 15.56882812 -0.25390625 14.31640625 C-0.35704703 12.73178879 -0.45989661 11.14715235 -0.5625 9.5625 C-0.64661133 8.35883789 -0.64661133 8.35883789 -0.73242188 7.13085938 C-0.8616295 5.08937889 -0.9351273 3.04453631 -1 1 C-0.67 0.67 -0.34 0.34 0 0 Z " fill="#A6C751" transform="translate(85,87)"/>
<path d="M0 0 C3.25 0.375 3.25 0.375 6.125 2.1875 C9.56130048 7.34195071 8.87905806 12.58697649 7.890625 18.5390625 C7.08266462 21.81269509 6.19606891 24.56203452 3.25 26.375 C1.1875 26.3125 1.1875 26.3125 -0.75 25.375 C-3.00444521 22.00121487 -2.93371976 19.16835698 -2.8125 15.1875 C-2.75863319 13.25063691 -2.72948181 11.31250336 -2.75 9.375 C-3.08 9.045 -3.41 8.715 -3.75 8.375 C-3.875 4.875 -3.875 4.875 -3.75 1.375 C-2.75 0.375 -2.75 0.375 0 0 Z " fill="#F5A920" transform="translate(130.75,59.625)"/>
<path d="M0 0 C1 1 1 1 1.125 4.5 C1 8 1 8 0 9 C-0.23659529 12.18089225 -0.39625615 15.35409437 -0.51757812 18.54101562 C-0.78671875 23.78671875 -0.78671875 23.78671875 -3 26 C-6.29714793 25.67028521 -7.6226839 25.3773161 -10 23 C-11.9951343 17.39030419 -11.60550482 10.82798386 -11 5 C-8.01067725 0.2522521 -5.52695651 -0.75367589 0 0 Z " fill="#F8B727" transform="translate(80,60)"/>
<path d="M0 0 C2 1 4 2 6 3 C11.49458336 3.50752766 11.49458336 3.50752766 16.375 1.5 C16.91125 1.005 17.4475 0.51 18 0 C18.66 0 19.32 0 20 0 C21.55024464 3.10048928 21.28992015 5.57894218 21 9 C19.20437595 11.75329021 17.94745078 13.52627461 15 15 C5.98825826 16.14642125 5.98825826 16.14642125 2.1640625 13.94140625 C-0.49429197 11.10634035 -1.28715866 8.43764965 -1.375 4.6875 C-1 1 -1 1 0 0 Z " fill="#F8B92A" transform="translate(94,56)"/>
<path d="M0 0 C0.70266495 0.00478867 1.4053299 0.00957733 2.12928772 0.01451111 C4.45965489 0.03223959 6.78983978 0.05797992 9.12011719 0.08496094 C10.73956268 0.10165308 12.35900849 0.11831527 13.97845459 0.13494873 C17.37811001 0.17145982 20.77767548 0.21268657 24.17724609 0.25634766 C28.52603343 0.31121075 32.87476773 0.34782361 37.22377396 0.37997818 C40.57143479 0.40790113 43.91884323 0.44896149 47.26631927 0.49358368 C48.86897524 0.51273707 50.47169675 0.52705445 52.07444 0.53638458 C54.32218072 0.55077778 56.56894559 0.58373095 58.81640625 0.62109375 C60.73262787 0.64227264 60.73262787 0.64227264 62.68756104 0.66387939 C69.19859295 1.42260701 72.98353628 4.37489669 76.97558594 9.28417969 C78.45162017 11.49581131 79.00647813 13.42085404 79.16699219 16.06933594 C78.50699219 16.39933594 77.84699219 16.72933594 77.16699219 17.06933594 C76.82087891 16.27269531 76.82087891 16.27269531 76.46777344 15.45996094 C74.35509996 10.88389348 72.52882763 7.8653843 68.16699219 5.06933594 C65.06812999 4.03638187 62.97077533 3.95435795 59.72436523 3.97167969 C58.6085759 3.97498291 57.49278656 3.97828613 56.34318542 3.98168945 C54.52927055 3.99413696 54.52927055 3.99413696 52.67871094 4.00683594 C51.4287886 4.01062256 50.17886627 4.01440918 48.8910675 4.01831055 C44.2073484 4.03259924 39.52370352 4.05558754 34.84002686 4.07971191 C30.26542937 4.10287019 25.69084494 4.11809286 21.11621094 4.13183594 C19.9292009 4.14013428 18.74219086 4.14843262 17.51921082 4.15698242 C9.36072265 4.18040717 1.2960872 3.75374917 -6.83300781 3.06933594 C-6.83300781 5.37933594 -6.83300781 7.68933594 -6.83300781 10.06933594 C-7.16300781 10.06933594 -7.49300781 10.06933594 -7.83300781 10.06933594 C-8.16300781 7.09933594 -8.49300781 4.12933594 -8.83300781 1.06933594 C-5.88634566 -0.40399514 -3.28870229 -0.02822586 0 0 Z " fill="#4B4B4A" transform="translate(68.8330078125,15.9306640625)"/>
<path d="M0 0 C0.26554687 0.57492188 0.53109375 1.14984375 0.8046875 1.7421875 C2.44697273 4.84428183 4.58971991 7.44629558 6.7578125 10.1953125 C8 12 8 12 8 14 C8.66 14 9.32 14 10 14 C10 14.66 10 15.32 10 16 C10.99 16.33 11.98 16.66 13 17 C12.34 17.33 11.68 17.66 11 18 C8.69 16.02 6.38 14.04 4 12 C5.051875 13.423125 5.051875 13.423125 6.125 14.875 C6.51945312 15.40867187 6.91390625 15.94234375 7.3203125 16.4921875 C11.33989793 20.10046652 16.52553239 20.25435507 21.69213867 20.28710938 C23.00337204 20.30052368 24.31460541 20.31393799 25.66557312 20.32775879 C26.70509408 20.33160332 26.70509408 20.33160332 27.76561546 20.33552551 C29.94721549 20.34386176 32.12840632 20.36440587 34.30989075 20.38806152 C39.72272066 20.44427548 45.1356495 20.47972533 50.54864502 20.51568604 C55.13421431 20.54692402 59.71958108 20.58608906 64.30498695 20.63594055 C66.45377432 20.65600079 68.60240504 20.66432392 70.75126648 20.67224121 C72.05304337 20.68565552 73.35482025 20.69906982 74.69604492 20.71289062 C75.84376877 20.72018188 76.99149261 20.72747314 78.17399597 20.73498535 C81 21 81 21 84 23 C65.80788194 23.10218525 47.60904569 23.1419888 29.41931152 22.79147339 C27.85618364 22.76396665 26.29292248 22.74316437 24.72961426 22.72927856 C22.5389861 22.70809619 20.35022725 22.66192649 18.16015625 22.609375 C16.29822632 22.5779541 16.29822632 22.5779541 14.39868164 22.54589844 C9.06357359 21.68896994 5.97466951 18.95301019 2.1875 15.25 C-0.84316079 10.74730397 -1.51616479 6.94951311 -0.5625 1.5 C-0.376875 1.005 -0.19125 0.51 0 0 Z " fill="#707332" transform="translate(16,85)"/>
<path d="M0 0 C0.11719175 3.83307169 0.18758077 7.66567608 0.25 11.5 C0.30027344 13.11648437 0.30027344 13.11648437 0.3515625 14.765625 C0.44204302 22.18502775 -0.33896422 27.8737103 -5.37744141 33.55249023 C-8.68990403 36.61600514 -11.54756149 37.68196868 -16 38 C-16 37.34 -16 36.68 -16 36 C-14.9275 35.5875 -13.855 35.175 -12.75 34.75 C-9.48050353 33.35731388 -7.30375449 31.76450539 -5 29 C-5 28.67 -5 28.34 -5 28 C-5.43570313 28.40992187 -5.87140625 28.81984375 -6.3203125 29.2421875 C-12.93176525 35.22397808 -18.23492988 36.3506028 -27 36 C-24.17486464 34.46837764 -21.57754511 33.54445124 -18.4375 32.875 C-17.29087891 32.62363281 -17.29087891 32.62363281 -16.12109375 32.3671875 C-14 32 -14 32 -11 32 C-11 31.34 -11 30.68 -11 30 C-10.01 29.34 -9.02 28.68 -8 28 C-7.67 27.01 -7.34 26.02 -7 25 C-6.34 25 -5.68 25 -5 25 C-5.02320313 24.35675781 -5.04640625 23.71351562 -5.0703125 23.05078125 C-5.21864791 15.62341524 -4.79254217 8.23655915 -3 1 C-1 0 -1 0 0 0 Z " fill="#767D33" transform="translate(149,69)"/>
<path d="M0 0 C1.485 0.495 1.485 0.495 3 1 C3 3.97 3 6.94 3 10 C-9.44025697 12.15349116 -9.44025697 12.15349116 -15.1875 11.9375 C-16.445625 11.958125 -17.70375 11.97875 -19 12 C-19.99 13.485 -19.99 13.485 -21 15 C-20.34 15.33 -19.68 15.66 -19 16 C-20.98 17.65 -22.96 19.3 -25 21 C-27.46800047 19.84826645 -29.04783565 18.95216435 -31 17 C-30.34 17 -29.68 17 -29 17 C-29 16.34 -29 15.68 -29 15 C-27.35 14.67 -25.7 14.34 -24 14 C-23.896875 13.360625 -23.79375 12.72125 -23.6875 12.0625 C-23.460625 11.381875 -23.23375 10.70125 -23 10 C-22.01 9.67 -21.02 9.34 -20 9 C-20.33 8.67 -20.66 8.34 -21 8 C-21.04092937 5.66702567 -21.04241723 3.33294775 -21 1 C-20.34 1 -19.68 1 -19 1 C-19 2.98 -19 4.96 -19 7 C-12.73 7 -6.46 7 0 7 C0 4.69 0 2.38 0 0 Z " fill="#54534E" transform="translate(63,22)"/>
<path d="M0 0 C9.24 0 18.48 0 28 0 C28 1.98 28 3.96 28 6 C18.76 6 9.52 6 0 6 C0 4.02 0 2.04 0 0 Z " fill="#FBB62A" transform="translate(90,31)"/>
<path d="M0 0 C3.64238503 1.39072883 6.57110945 2.89641763 9 6 C9 6.66 9 7.32 9 8 C0.42 8 -8.16 8 -17 8 C-16 4 -16 4 -13.5625 1.75 C-8.88055679 -0.54990193 -5.12730703 -0.70031511 0 0 Z " fill="#F2D946" transform="translate(108,21)"/>
<path d="M0 0 C2.64590014 -0.02684679 5.29153096 -0.04676357 7.9375 -0.0625 C8.69224609 -0.07087891 9.44699219 -0.07925781 10.22460938 -0.08789062 C12.14994313 -0.09652441 14.07535581 -0.05224333 16 0 C17 1 17 1 17 8 C11.39 8 5.78 8 0 8 C0 5.36 0 2.72 0 0 Z " fill="#91881E" transform="translate(48,69)"/>
<path d="M0 0 C1.2065625 0.0309375 1.2065625 0.0309375 2.4375 0.0625 C2.4375 0.7225 2.4375 1.3825 2.4375 2.0625 C3.7575 2.0625 5.0775 2.0625 6.4375 2.0625 C6.4375 1.4025 6.4375 0.7425 6.4375 0.0625 C8.0875 0.0625 9.7375 0.0625 11.4375 0.0625 C11.4375 3.0325 11.4375 6.0025 11.4375 9.0625 C6.4875 9.0625 1.5375 9.0625 -3.5625 9.0625 C-3.66015625 2.91015625 -3.66015625 2.91015625 -3.5625 1.0625 C-2.5625 0.0625 -2.5625 0.0625 0 0 Z " fill="#DBE650" transform="translate(49.5625,17.9375)"/>
<path d="M0 0 C-0.66 0.66 -1.32 1.32 -2 2 C-3.32 2 -4.64 2 -6 2 C-6 2.66 -6 3.32 -6 4 C-7.32 4 -8.64 4 -10 4 C-10 3.34 -10 2.68 -10 2 C-11.485 2.4640625 -11.485 2.4640625 -13 2.9375 C-17.99066775 4.23435811 -23.05598943 4.34630068 -28.1875 4.39428711 C-33.23593134 4.56187244 -36.10625837 5.82774579 -40 9 C-41.46565478 10.60844935 -41.46565478 10.60844935 -42.375 12.25 C-42.91125 13.1575 -43.4475 14.065 -44 15 C-44.33 14.34 -44.66 13.68 -45 13 C-42.2569105 8.08529798 -39.50670071 5.74191701 -34.609375 2.98046875 C-34.07828125 2.65691406 -33.5471875 2.33335938 -33 2 C-33 1.67 -33 1.34 -33 1 C-22.01480208 -0.27364614 -11.04098375 -0.10085216 0 0 Z " fill="#5A595A" transform="translate(62,16)"/>
<path d="M0 0 C1.8253125 0.680625 1.8253125 0.680625 3.6875 1.375 C14.74384342 5.0233364 26.26685898 5.35633401 37.8125 5.625 C39.1985885 5.66331755 40.58465672 5.7023764 41.97070312 5.7421875 C45.31367747 5.83537145 48.6566614 5.92118243 52 6 C52 6.33 52 6.66 52 7 C44.66767322 7.05067793 37.33539156 7.08572428 30.00292969 7.10986328 C27.50812085 7.11992561 25.01332382 7.13357679 22.51855469 7.15087891 C18.93421516 7.17511668 15.35003147 7.18648082 11.765625 7.1953125 C10.64883362 7.20563507 9.53204224 7.21595764 8.38140869 7.22659302 C7.34063171 7.22674408 6.29985474 7.22689514 5.22753906 7.22705078 C4.31264709 7.231492 3.39775513 7.23593323 2.45513916 7.24050903 C-0.13932269 6.98635175 -1.76969393 6.31398098 -4 5 C-3.67 4.34 -3.34 3.68 -3 3 C-0.9375 2.375 -0.9375 2.375 1 2 C0.67 1.34 0.34 0.68 0 0 Z " fill="#5B6231" transform="translate(33,98)"/>
<path d="M0 0 C0.33 0 0.66 0 1 0 C1 4.62 1 9.24 1 14 C-10.22 14 -21.44 14 -33 14 C-33 10.04 -33 6.08 -33 2 C-32.67 2 -32.34 2 -32 2 C-32 5.3 -32 8.6 -32 12 C-29.16644901 11.85771699 -26.33321213 11.71126584 -23.5 11.5625 C-22.31277344 11.50352539 -22.31277344 11.50352539 -21.1015625 11.44335938 C-17.24899296 11.23809952 -13.44873152 10.9586376 -9.625 10.4375 C-6.10539255 10.01271979 -3.43852623 10.2263316 0 11 C0 7.37 0 3.74 0 0 Z " fill="#526039" transform="translate(120,91)"/>
<path d="M0 0 C1.32 0.33 2.64 0.66 4 1 C4.33 8.59 4.66 16.18 5 24 C2 23 2 23 0 20 C-0.22705078 17.82348633 -0.22705078 17.82348633 -0.1953125 15.33203125 C-0.18564453 13.99301758 -0.18564453 13.99301758 -0.17578125 12.62695312 C-0.15902344 11.69818359 -0.14226562 10.76941406 -0.125 9.8125 C-0.11597656 8.87212891 -0.10695313 7.93175781 -0.09765625 6.96289062 C-0.07409056 4.64167032 -0.04119116 2.32096356 0 0 Z " fill="#A2BF36" transform="translate(120,58)"/>
<path d="M0 0 C0.99 0 1.98 0 3 0 C3.08120751 2.89640118 3.14059421 5.79050912 3.1875 8.6875 C3.21263672 9.50412109 3.23777344 10.32074219 3.26367188 11.16210938 C3.32170486 15.94015822 3.14903871 19.13423093 0 23 C-0.66 23.33 -1.32 23.66 -2 24 C-1.86184471 20.18718055 -1.71319438 16.37484283 -1.5625 12.5625 C-1.52318359 11.47388672 -1.48386719 10.38527344 -1.44335938 9.26367188 C-1.40146484 8.22919922 -1.35957031 7.19472656 -1.31640625 6.12890625 C-1.27974854 5.17056885 -1.24309082 4.21223145 -1.20532227 3.22485352 C-1 1 -1 1 0 0 Z " fill="#C9D33E" transform="translate(85,58)"/>
<path d="M0 0 C0.99 0.33 1.98 0.66 3 1 C3 3.64 3 6.28 3 9 C-0.81248426 9.02887236 -4.6249407 9.04675492 -8.4375 9.0625 C-9.52611328 9.07087891 -10.61472656 9.07925781 -11.73632812 9.08789062 C-12.77080078 9.09111328 -13.80527344 9.09433594 -14.87109375 9.09765625 C-16.30859985 9.10551147 -16.30859985 9.10551147 -17.77514648 9.11352539 C-20 9 -20 9 -21 8 C-21.04092937 5.66702567 -21.04241723 3.33294775 -21 1 C-20.34 1 -19.68 1 -19 1 C-19 2.98 -19 4.96 -19 7 C-12.73 7 -6.46 7 0 7 C0 4.69 0 2.38 0 0 Z " fill="#A2C92D" transform="translate(63,22)"/>
<path d="M0 0 C-0.79664063 0.32871094 -0.79664063 0.32871094 -1.609375 0.6640625 C-6.60626657 2.90719266 -9.5004094 4.89214096 -12 10 C-11.67 10.99 -11.34 11.98 -11 13 C-10.76835942 17.24674388 -10.66785576 20.35602463 -13 24 C-13.66 24 -14.32 24 -15 24 C-15.44950727 16.50821224 -15.6498962 10.20484541 -11 4 C-5.05813953 -1.51744186 -5.05813953 -1.51744186 0 0 Z M-6 3 C-5.34 3.33 -4.68 3.66 -4 4 C-6.97 6.475 -6.97 6.475 -10 9 C-8.84826645 6.53199953 -7.95216435 4.95216435 -6 3 Z " fill="#535157" transform="translate(30,19)"/>
<path d="M0 0 C0.66 0 1.32 0 2 0 C2 11.22 2 22.44 2 34 C0.515 34.495 0.515 34.495 -1 35 C-0.67 23.45 -0.34 11.9 0 0 Z " fill="#424045" transform="translate(147,35)"/>
<path d="M0 0 C0.33 0 0.66 0 1 0 C1 4.95 1 9.9 1 15 C7.73640437 13.27038266 12.02873465 11.85290189 17 7 C18.175625 5.8553125 18.175625 5.8553125 19.375 4.6875 C19.91125 4.130625 20.4475 3.57375 21 3 C21 4.32 21 5.64 21 7 C20.34 7 19.68 7 19 7 C18.896875 7.639375 18.79375 8.27875 18.6875 8.9375 C18.460625 9.618125 18.23375 10.29875 18 11 C17.01 11.33 16.02 11.66 15 12 C15 12.66 15 13.32 15 14 C13.0636296 14.50435694 11.12585854 15.00333874 9.1875 15.5 C8.10855469 15.7784375 7.02960938 16.056875 5.91796875 16.34375 C3 17 3 17 0 17 C0 11.39 0 5.78 0 0 Z " fill="#4D582E" transform="translate(123,87)"/>
<path d="M0 0 C1.76923828 0.01353516 1.76923828 0.01353516 3.57421875 0.02734375 C4.47785156 0.03894531 5.38148437 0.05054687 6.3125 0.0625 C6.3125 0.7225 6.3125 1.3825 6.3125 2.0625 C5.55324219 2.12308594 4.79398438 2.18367188 4.01171875 2.24609375 C3.01785156 2.32988281 2.02398437 2.41367187 1 2.5 C-0.47919922 2.62181641 -0.47919922 2.62181641 -1.98828125 2.74609375 C-4.78125599 2.98062559 -4.78125599 2.98062559 -7.6875 4.0625 C-8.0175 12.6425 -8.3475 21.2225 -8.6875 30.0625 C-9.0175 30.0625 -9.3475 30.0625 -9.6875 30.0625 C-9.74808594 29.31484375 -9.80867188 28.5671875 -9.87109375 27.796875 C-9.95488281 26.81203125 -10.03867187 25.8271875 -10.125 24.8125 C-10.20621094 23.83796875 -10.28742187 22.8634375 -10.37109375 21.859375 C-10.60961357 19.13264294 -10.60961357 19.13264294 -11.28515625 16.828125 C-11.6875 15.0625 -11.6875 15.0625 -10.6875 13.0625 C-10.45891886 11.0250237 -10.27725722 8.98209697 -10.125 6.9375 C-10.04121094 5.84179688 -9.95742188 4.74609375 -9.87109375 3.6171875 C-9.81050781 2.77414063 -9.74992187 1.93109375 -9.6875 1.0625 C-6.26517028 -0.07827657 -3.60076783 -0.03565117 0 0 Z " fill="#4B4A4C" transform="translate(33.6875,23.9375)"/>
<path d="M0 0 C1 3 1 3 0 5.4375 C-2.66760001 8.85536252 -5.09295739 10.11624731 -9 12 C-9.99 12 -10.98 12 -12 12 C-12 12.66 -12 13.32 -12 14 C-23.88 14 -35.76 14 -48 14 C-48 13.67 -48 13.34 -48 13 C-36.78 13 -25.56 13 -14 13 C-14 12.34 -14 11.68 -14 11 C-13.09507812 10.65388672 -13.09507812 10.65388672 -12.171875 10.30078125 C-6.38484191 7.93929839 -2.88087481 5.76174962 0 0 Z " fill="#8F943C" transform="translate(145,93)"/>
<path d="M0 0 C6.93 0 13.86 0 21 0 C21.33 0.99 21.66 1.98 22 3 C14.41 3 6.82 3 -1 3 C-0.67 2.01 -0.34 1.02 0 0 Z " fill="#90C03E" transform="translate(48,54)"/>
<path d="M0 0 C1.70884005 1.62339805 3.37446717 3.29319053 5 5 C5 5.66 5 6.32 5 7 C5.66 7 6.32 7 7 7 C9.01178391 9.33366933 10.01595171 11.04785514 11 14 C6.18885231 13.55245138 3.18543184 12.74756687 0 9 C-0.4147743 5.95482159 -0.29352855 3.05269695 0 0 Z " fill="#4E5332" transform="translate(24,87)"/>
<path d="M0 0 C7.26 0 14.52 0 22 0 C22 0.99 22 1.98 22 3 C14.74 3 7.48 3 0 3 C0 2.01 0 1.02 0 0 Z " fill="#70B638" transform="translate(48,44)"/>
<path d="M0 0 C6.93 0 13.86 0 21 0 C21.33 0.99 21.66 1.98 22 3 C14.74 3 7.48 3 0 3 C0 2.01 0 1.02 0 0 Z " fill="#88BF4D" transform="translate(48,39)"/>
<path d="M0 0 C0 0.99 0 1.98 0 3 C-0.99 3.495 -0.99 3.495 -2 4 C-2.66 3.67 -3.32 3.34 -4 3 C-4 3.66 -4 4.32 -4 5 C-8.62 5.33 -13.24 5.66 -18 6 C-18 4.68 -18 3.36 -18 2 C-14.828262 0.414131 -11.36486178 0.62133555 -7.875 0.4375 C-7.12089844 0.39431641 -6.36679687 0.35113281 -5.58984375 0.30664062 C-3.72678112 0.2005168 -1.86341476 0.09974999 0 0 Z " fill="#484749" transform="translate(44,19)"/>
<path d="M0 0 C0 5.94 0 11.88 0 18 C-1.65 18.66 -3.3 19.32 -5 20 C-4.76153643 17.88789411 -4.52259611 15.77584095 -4.28125 13.6640625 C-4.08961119 11.84881708 -3.92397508 10.03068224 -3.78125 8.2109375 C-3.7090625 7.31632812 -3.636875 6.42171875 -3.5625 5.5 C-3.50191406 4.6646875 -3.44132813 3.829375 -3.37890625 2.96875 C-3.25386719 2.3190625 -3.12882813 1.669375 -3 1 C-1 0 -1 0 0 0 Z " fill="#5C6130" transform="translate(149,69)"/>
<path d="M0 0 C5.28 0 10.56 0 16 0 C16 0.99 16 1.98 16 3 C10.72 3 5.44 3 0 3 C0 2.01 0 1.02 0 0 Z " fill="#C9CB2E" transform="translate(48,69)"/>
<path d="M0 0 C0.98291016 0.00322266 1.96582031 0.00644531 2.97851562 0.00976562 C4.51475586 0.02233398 4.51475586 0.02233398 6.08203125 0.03515625 C7.11779297 0.03966797 8.15355469 0.04417969 9.22070312 0.04882812 C11.77870391 0.06061615 14.33658858 0.0770711 16.89453125 0.09765625 C16.89453125 0.42765625 16.89453125 0.75765625 16.89453125 1.09765625 C-2.95209452 4.53323907 -2.95209452 4.53323907 -8.10546875 1.09765625 C-5.10530963 0.09760321 -3.13123119 -0.0180996 0 0 Z " fill="#515B32" transform="translate(49.10546875,30.90234375)"/>
<path d="M0 0 C0 1.32 0 2.64 0 4 C-0.928125 3.773125 -1.85625 3.54625 -2.8125 3.3125 C-5.91464861 2.65095142 -5.91464861 2.65095142 -7.6809082 4.22973633 C-9.27036412 6.36283735 -9.3523278 7.38013438 -9.29296875 10.01171875 C-9.28330078 10.76904297 -9.27363281 11.52636719 -9.26367188 12.30664062 C-9.23853516 13.09232422 -9.21339844 13.87800781 -9.1875 14.6875 C-9.16719727 15.88342773 -9.16719727 15.88342773 -9.14648438 17.10351562 C-9.11117089 19.06929967 -9.05736447 21.03473582 -9 23 C-12.3398083 17.62143321 -11.69596454 11.07713364 -11 5 C-7.98168719 0.20620906 -5.55640964 -0.64609414 0 0 Z " fill="#DFCB86" transform="translate(80,60)"/>
<path d="M0 0 C0.33 0 0.66 0 1 0 C1.13277344 0.67546875 1.26554687 1.3509375 1.40234375 2.046875 C1.57894531 2.93890625 1.75554688 3.8309375 1.9375 4.75 C2.11152344 5.63171875 2.28554688 6.5134375 2.46484375 7.421875 C2.94131671 9.9494898 2.94131671 9.9494898 3.69140625 12.140625 C4 14 4 14 2 17 C1.01 16.67 0.02 16.34 -1 16 C-1.02712153 14.083412 -1.04645097 12.1667127 -1.0625 10.25 C-1.07410156 9.18265625 -1.08570313 8.1153125 -1.09765625 7.015625 C-1.01510087 4.46631499 -0.74617558 2.42066409 0 0 Z " fill="#676C37" transform="translate(16,73)"/>
<path d="M0 0 C6.75 0.875 6.75 0.875 9 2 C11.54615009 2.23172827 14.07396225 2.41894529 16.625 2.5625 C17.33140625 2.60568359 18.0378125 2.64886719 18.765625 2.69335938 C20.51018537 2.79944751 22.25506697 2.90022889 24 3 C24 3.33 24 3.66 24 4 C20.58340509 4.05816623 17.16693795 4.09365195 13.75 4.125 C12.29787109 4.15013672 12.29787109 4.15013672 10.81640625 4.17578125 C9.41455078 4.18544922 9.41455078 4.18544922 7.984375 4.1953125 C7.12553711 4.20578613 6.26669922 4.21625977 5.38183594 4.22705078 C2.82096404 3.98293323 1.20488971 3.28990512 -1 2 C-0.67 1.34 -0.34 0.68 0 0 Z " fill="#6D7335" transform="translate(30,101)"/>
<path d="M0 0 C3.96 0 7.92 0 12 0 C11.67 0.99 11.34 1.98 11 3 C9.68 2.67 8.36 2.34 7 2 C7.33 2.99 7.66 3.98 8 5 C5.36 4.67 2.72 4.34 0 4 C0 2.68 0 1.36 0 0 Z " fill="#625E69" transform="translate(67,24)"/>
<path d="M0 0 C6.93 0 13.86 0 21 0 C20.34 0.66 19.68 1.32 19 2 C17.68 2 16.36 2 15 2 C15 2.66 15 3.32 15 4 C13.68 4 12.36 4 11 4 C11 3.34 11 2.68 11 2 C7.37 1.67 3.74 1.34 0 1 C0 0.67 0 0.34 0 0 Z " fill="#737360" transform="translate(41,16)"/>
<path d="M0 0 C0.26554687 0.57492188 0.53109375 1.14984375 0.8046875 1.7421875 C2.44697273 4.84428183 4.58971991 7.44629558 6.7578125 10.1953125 C8 12 8 12 8 14 C8.66 14 9.32 14 10 14 C10 14.66 10 15.32 10 16 C10.99 16.33 11.98 16.66 13 17 C12.34 17.33 11.68 17.66 11 18 C9.87411986 17.04270084 8.7493285 16.08412105 7.625 15.125 C6.99851562 14.59132813 6.37203125 14.05765625 5.7265625 13.5078125 C3.0577947 11.17716913 1.28889536 9.31430236 0 6 C-0.125 2.75 -0.125 2.75 0 0 Z " fill="#8B8F44" transform="translate(16,85)"/>
<path d="M0 0 C0 3 0 3 -2.1875 5.75 C-5 8 -5 8 -7.6875 7.9375 C-10 7 -10 7 -12 5 C-12 4.01 -12 3.02 -12 2 C-10.02 2.66 -8.04 3.32 -6 4 C-5.38125 3.34 -4.7625 2.68 -4.125 2 C-2 0 -2 0 0 0 Z " fill="#D3DF50" transform="translate(44,38)"/>
<path d="M0 0 C0 0.33 0 0.66 0 1 C-1.0725 1.268125 -2.145 1.53625 -3.25 1.8125 C-6.90427861 2.73636209 -6.90427861 2.73636209 -9.125 4.625 C-11.5278388 6.38708178 -13.08979925 6.24251673 -16 6 C-15 3 -15 3 -13.0625 1.3125 C-8.70616699 -0.55449986 -4.6736598 -0.24502682 0 0 Z " fill="#E5DC87" transform="translate(108,21)"/>
<path d="M0 0 C0 0.99 0 1.98 0 3 C-2.75 5.75 -2.75 5.75 -6 8 C-9.10513115 7.91374636 -9.78572897 7.21427103 -12 5 C-12 4.01 -12 3.02 -12 2 C-10.02 2.66 -8.04 3.32 -6 4 C-5.38125 3.34 -4.7625 2.68 -4.125 2 C-2 0 -2 0 0 0 Z " fill="#DAE45F" transform="translate(44,68)"/>
<path d="M0 0 C0.99 0 1.98 0 3 0 C3 4.95 3 9.9 3 15 C2.34 15 1.68 15 1 15 C-0.03590199 9.94997778 -0.10251672 5.12583611 0 0 Z " fill="#E0E745" transform="translate(120,58)"/>
<path d="M0 0 C0 0.99 0 1.98 0 3 C-2.75 5.75 -2.75 5.75 -6 8 C-9.10513115 7.91374636 -9.78572897 7.21427103 -12 5 C-12 4.01 -12 3.02 -12 2 C-10.02 2.66 -8.04 3.32 -6 4 C-5.38125 3.34 -4.7625 2.68 -4.125 2 C-2 0 -2 0 0 0 Z " fill="#DEE85B" transform="translate(44,53)"/>
<path d="M0 0 C0.33 0.66 0.66 1.32 1 2 C5.62 1.67 10.24 1.34 15 1 C15 1.99 15 2.98 15 4 C10.05 4 5.1 4 0 4 C0 2.68 0 1.36 0 0 Z " fill="#B8DC41" transform="translate(46,23)"/>
<path d="M0 0 C5.625 -0.25 5.625 -0.25 9 2 C9 2.99 9 3.98 9 5 C6.03 4.67 3.06 4.34 0 4 C0 2.68 0 1.36 0 0 Z " fill="#F5CD47" transform="translate(128,60)"/>
<path d="M0 0 C4.29 0 8.58 0 13 0 C13 0.66 13 1.32 13 2 C12.25234375 2.06058594 11.5046875 2.12117188 10.734375 2.18359375 C9.74953125 2.26738281 8.7646875 2.35117187 7.75 2.4375 C6.77546875 2.51871094 5.8009375 2.59992187 4.796875 2.68359375 C2.43538247 2.95074584 0.28098935 3.35371968 -2 4 C-1.34 2.68 -0.68 1.36 0 0 Z " fill="#6D6974" transform="translate(27,24)"/>
<path d="M0 0 C0.62261719 0.15339844 1.24523437 0.30679688 1.88671875 0.46484375 C6.18274772 1.20330795 10.46241952 1.36462162 14.8125 1.5625 C15.69615234 1.60568359 16.57980469 1.64886719 17.49023438 1.69335938 C19.65999623 1.79891536 21.8299791 1.89991071 24 2 C24 2.33 24 2.66 24 3 C16.41 3 8.82 3 1 3 C0.67 2.01 0.34 1.02 0 0 Z " fill="#8B9038" transform="translate(26,104)"/>
<path d="M0 0 C1 3 1 3 0 5.4375 C-2.69893134 8.89550577 -4.99871559 10.17485273 -9 12 C-11.22265625 11.6015625 -11.22265625 11.6015625 -13 11 C-12.46890625 10.76925781 -11.9378125 10.53851563 -11.390625 10.30078125 C-6.06461875 7.8418769 -2.69677033 5.39354066 0 0 Z " fill="#C0C458" transform="translate(145,93)"/>
<path d="M0 0 C0.66 0 1.32 0 2 0 C2 1.98 2 3.96 2 6 C4.31 6 6.62 6 9 6 C9 6.66 9 7.32 9 8 C2.84765625 8.09765625 2.84765625 8.09765625 1 8 C0 7 0 7 -0.0625 3.4375 C-0.041875 2.303125 -0.02125 1.16875 0 0 Z " fill="#79A927" transform="translate(42,23)"/>
<path d="M0 0 C1.32 0.66 2.64 1.32 4 2 C3.01 3.485 3.01 3.485 2 5 C1.60986284 6.9896995 1.26797351 8.99019869 1 11 C-1 9 -1 9 -1.23046875 7.08984375 C-1.11111111 1.11111111 -1.11111111 1.11111111 0 0 Z " fill="#F0D773" transform="translate(94,56)"/>
<path d="M0 0 C1.32 0 2.64 0 4 0 C3.34 1.32 2.68 2.64 2 4 C2.99 4.33 3.98 4.66 5 5 C5 5.66 5 6.32 5 7 C3.35 7 1.7 7 0 7 C-0.38133299 5.0085944 -0.71325582 3.00720923 -1 1 C-0.67 0.67 -0.34 0.34 0 0 Z " fill="#EAEE74" transform="translate(47,18)"/>
<path d="M0 0 C4.875 2.625 4.875 2.625 6 6 C3.36 6 0.72 6 -2 6 C-1.67 5.38125 -1.34 4.7625 -1 4.125 C0.14193235 2.08981656 0.14193235 2.08981656 0 0 Z " fill="#F6D32A" transform="translate(110,22)"/>
<path d="M0 0 C0 1.32 0 2.64 0 4 C-2.64 4.33 -5.28 4.66 -8 5 C-8 3 -8 3 -6.8125 1.375 C-4.44439338 -0.42149467 -2.90102749 -0.23521845 0 0 Z " fill="#EAF161" transform="translate(61,18)"/>
<path d="M0 0 C0.33 0 0.66 0 1 0 C1.56364659 10.75103676 1.56364659 10.75103676 -2 15 C-2.99 15.495 -2.99 15.495 -4 16 C-4 14.02 -4 12.04 -4 10 C-3.01 10.495 -3.01 10.495 -2 11 C-0.85185003 8.70370006 -0.69230191 6.92301914 -0.4375 4.375 C-0.35371094 3.55773437 -0.26992187 2.74046875 -0.18359375 1.8984375 C-0.12300781 1.27195312 -0.06242187 0.64546875 0 0 Z " fill="#AEC234" transform="translate(87,66)"/>
<path d="M0 0 C0 2.97 0 5.94 0 9 C-0.99 9.33 -1.98 9.66 -3 10 C-3 7.03 -3 4.06 -3 1 C-1 0 -1 0 0 0 Z " fill="#515335" transform="translate(149,69)"/>
<path d="M0 0 C0.99 0.33 1.98 0.66 3 1 C1.7934375 1.9590625 1.7934375 1.9590625 0.5625 2.9375 C-2.75412763 6.90127449 -2.87952582 9.97294083 -3 15 C-3.33 15 -3.66 15 -4 15 C-4.63019694 4.84682713 -4.63019694 4.84682713 -2 1.3125 C-1.34 0.879375 -0.68 0.44625 0 0 Z " fill="#FED44A" transform="translate(74,62)"/>
<path d="M0 0 C0.66 0 1.32 0 2 0 C2 3.3 2 6.6 2 10 C1.01 10.33 0.02 10.66 -1 11 C-0.67 7.37 -0.34 3.74 0 0 Z " fill="#46453B" transform="translate(147,59)"/>
<path d="M0 0 C0.99 0 1.98 0 3 0 C3 2.64 3 5.28 3 8 C2.01 8 1.02 8 0 8 C0 5.36 0 2.72 0 0 Z " fill="#E8E553" transform="translate(85,58)"/>
<path d="M0 0 C0.99 0.33 1.98 0.66 3 1 C3 3.64 3 6.28 3 9 C2.01 8.67 1.02 8.34 0 8 C0 5.36 0 2.72 0 0 Z " fill="#9FBD34" transform="translate(63,22)"/>
<path d="M0 0 C0.33 0.66 0.66 1.32 1 2 C1.66 2 2.32 2 3 2 C3 3.98 3 5.96 3 8 C2.34 8 1.68 8 1 8 C0.67 7.34 0.34 6.68 0 6 C-0.66 6 -1.32 6 -2 6 C-1.34 4.02 -0.68 2.04 0 0 Z " fill="#6C722F" transform="translate(146,85)"/>
<path d="M0 0 C0 0.99 0 1.98 0 3 C-1.75 4.75 -1.75 4.75 -4 6 C-6.25 5.6875 -6.25 5.6875 -8 5 C-2.25 0 -2.25 0 0 0 Z " fill="#E9ED7F" transform="translate(44,38)"/>
</svg>
